<?xml version="1.0" encoding="UTF-8" standalone="no"?>
<svg width="56px" height="51px" viewBox="0 0 56 51" version="1.1" xmlns="http://www.w3.org/2000/svg" xmlns:xlink="http://www.w3.org/1999/xlink" xmlns:sketch="http://www.bohemiancoding.com/sketch/ns">
    <!-- Generator: Sketch 3.3.3 (12072) - http://www.bohemiancoding.com/sketch -->
    <title>logo_BP</title>
    <desc>Created with Sketch.</desc>
    <defs></defs>
    <g id="Page-1" stroke="none" stroke-width="1" fill="none" fill-rule="evenodd" sketch:type="MSPage">
        <g id="logo_BP" sketch:type="MSLayerGroup">
            <path d="M0.0099408284,0.0984142012 L55.9222959,0.0984142012 L55.9222959,50.1339172 L0.0099408284,50.1339172 L0.0099408284,0.0984142012 Z" id="Fill-1" fill="#FFFFFF" sketch:type="MSShapeGroup"></path>
            <path d="M9.48785799,4.12113609 C9.48785799,4.21772781 9.48123077,4.28002367 9.46847337,4.30504142 C9.45588166,4.33138462 9.40650888,4.34381065 9.3223432,4.34381065 C9.2323787,4.34381065 8.83259172,4.33005917 8.12182249,4.30023669 C7.41121893,4.27107692 7.01424852,4.25666272 6.93091124,4.25666272 C6.81394083,4.25666272 6.53874556,4.29128994 6.1031716,4.36336095 C5.66660355,4.43360947 5.22904142,4.51413018 4.79131361,4.60508876 C4.79131361,5.06385799 4.76132544,5.54333728 4.70433136,6.04302959 C4.64534911,6.54338462 4.58702959,7.04871006 4.5300355,7.55884024 C4.89105325,7.48809467 5.25505325,7.43027219 5.62286391,7.38388166 C5.99183432,7.33947929 6.28823669,7.31794083 6.51472189,7.31794083 C7.14115976,7.31794083 7.67166864,7.50267456 8.10740828,7.87346746 C8.54281657,8.24525444 8.76184615,8.71379882 8.76184615,9.28224852 C8.76184615,9.87687574 8.29893491,10.3580118 7.37642604,10.7258225 C6.6724497,11.0026746 6.03656805,11.1421775 5.46811834,11.1421775 C5.3267929,11.1421775 5.18927811,11.1451598 5.05673373,11.1519527 C4.92402367,11.1575858 4.80009467,11.1645444 4.68395266,11.1713373 C4.45067456,11.1713373 4.27439053,11.1575858 4.15145562,11.132568 C4.02835503,11.1062249 3.9675503,11.0576805 3.9675503,10.987432 C3.9675503,10.9223195 3.98975148,10.868142 4.03514793,10.8224142 C3.96456805,10.6163077 3.9132071,10.3018462 3.88040237,9.87770414 C3.84743195,9.45571598 3.83086391,8.93663905 3.83086391,8.32378698 C3.70908876,8.32378698 3.61614201,8.3168284 3.55119527,8.30440237 C3.36447337,8.26546746 3.27036686,8.18146746 3.27036686,8.05372781 C3.27036686,7.9307929 3.32835503,7.84265089 3.44466272,7.79145562 C3.48939645,7.77190533 3.61895858,7.74009467 3.83086391,7.69353846 C3.83086391,7.51360947 3.8444497,7.25216568 3.8707929,6.91053254 C3.93457988,6.05147929 3.9675503,5.33921893 3.9675503,4.76960947 C3.79905325,4.74442604 3.69931361,4.72785799 3.66733728,4.72139645 C3.53760947,4.68262722 3.47266272,4.60508876 3.47266272,4.48894675 C3.47266272,4.42515976 3.5356213,4.35723077 3.66253254,4.2856568 C3.7884497,4.21491124 3.89680473,4.17249704 3.98676923,4.15990533 C3.98676923,4.03663905 4.01592899,3.93027219 4.07408284,3.84014201 C4.13207101,3.74918343 4.20662722,3.70478107 4.29659172,3.70478107 C4.45067456,3.70478107 4.56284024,3.73178698 4.63076923,3.78728994 C4.69836686,3.84229586 4.74210651,3.92149112 4.76132544,4.02404734 C4.92982249,3.96639053 5.2376568,3.91287574 5.68598817,3.86366864 C6.13514793,3.81595266 6.48572781,3.79209467 6.73739645,3.79209467 C7.51178698,3.79209467 8.08305325,3.80534911 8.45202367,3.83053254 C9.14224852,3.88172781 9.48785799,3.97964497 9.48785799,4.12113609 L9.48785799,4.12113609 Z M8.16042604,9.28224852 C8.16042604,8.84369231 7.96674556,8.49029586 7.57988166,8.22239053 C7.19252071,7.95398817 6.7140355,7.8204497 6.14591716,7.8204497 C5.82350296,7.8204497 5.53306509,7.84828402 5.27443787,7.90743195 C5.11389349,7.94620118 4.86504142,8.02456805 4.5300355,8.13988166 C4.47088757,8.55905325 4.44189349,9.05957396 4.44189349,9.64160947 C4.44189349,9.78956213 4.45647337,9.99020118 4.48546746,10.2415385 C4.51446154,10.4933728 4.5300355,10.6453018 4.5300355,10.6968284 L5.46811834,10.6968284 C5.90087574,10.6968284 6.43337278,10.5573254 7.06660355,10.2803077 C7.79642604,9.95689941 8.16042604,9.62504142 8.16042604,9.28224852 L8.16042604,9.28224852 Z" id="Fill-3" fill="#1A1918" sketch:type="MSShapeGroup"></path>
            <path d="M16.4191006,7.45131361 C16.4191006,8.31119527 16.0675266,9.07895858 15.363716,9.7575858 C14.6599053,10.4352189 13.8533728,10.7742012 12.9421302,10.7742012 C12.2065089,10.7742012 11.643858,10.464213 11.2576568,9.84506509 C10.9012781,9.27545562 10.7253254,8.52426036 10.7253254,7.588 C10.7253254,6.98078107 10.9478343,6.32833136 11.3933491,5.62750296 C11.8385325,4.92650888 12.2772544,4.57592899 12.7100118,4.57592899 C12.9490888,4.57592899 13.1174201,4.62248521 13.2181538,4.71659172 C13.3178935,4.81036686 13.3682604,4.95069822 13.3682604,5.13742012 C13.3682604,5.34485207 13.3276686,5.51616568 13.2471479,5.65086391 C13.1659645,5.78622485 13.0750059,5.85415385 12.9712899,5.85415385 C12.9316923,5.85415385 12.9133018,5.82863905 12.9133018,5.77777515 C12.9133018,5.75839053 12.9229112,5.70984615 12.9421302,5.63131361 C12.9615148,5.55377515 12.9712899,5.49976331 12.9712899,5.46695858 C12.9712899,5.40300592 12.9452781,5.34485207 12.8939172,5.29266272 C12.8231716,5.22191716 12.732213,5.1859645 12.6218698,5.1859645 C12.4097988,5.1859645 12.1609467,5.43581065 11.8773018,5.93136095 C11.5606864,6.48026036 11.4029586,7.03910059 11.4029586,7.60738462 C11.4029586,8.22106509 11.4929231,8.74097041 11.6740118,9.16627219 C11.9644497,9.85749112 12.4553609,10.2031006 13.1455858,10.2031006 C13.8881657,10.2031006 14.5280237,9.92011834 15.0683077,9.35498225 C15.6066036,8.79017751 15.8758343,8.13988166 15.8758343,7.40326627 C15.8758343,6.9711716 15.783716,6.56773964 15.5950059,6.19379882 C15.4334675,5.87718343 15.0567101,5.5635503 14.4622485,5.25389349 C13.9135148,4.97008284 13.6393136,4.78534911 13.6393136,4.70201183 C13.6393136,4.63822485 13.655716,4.57990533 13.6876923,4.52788166 C13.720497,4.47652071 13.771858,4.45017751 13.8426036,4.45017751 C14.0429112,4.45017751 14.3684734,4.57592899 14.8212781,4.82776331 C15.3763077,5.13742012 15.7663195,5.48021302 15.9929704,5.85415385 C16.1545089,6.11377515 16.2660118,6.36511243 16.3269822,6.60932544 C16.3871243,6.85519527 16.4191006,7.13602367 16.4191006,7.45131361" id="Fill-4" fill="#1A1918" sketch:type="MSShapeGroup"></path>
            <path d="M23.7837633,10.9678817 C23.7837633,11.1168284 23.744,11.1902249 23.6664615,11.1902249 C23.576497,11.1902249 23.4689704,11.1062249 23.3460355,10.9388876 C23.1465562,10.6744615 22.8494911,10.132355 22.4563314,9.31223669 C22.2422722,8.85330178 22.0302012,8.3923787 21.8174675,7.92681657 C21.5782249,7.40409467 21.4155266,7.05649704 21.332355,6.88220118 C21.1008994,6.39145562 20.8676213,5.89673373 20.6351716,5.40018935 C20.4542485,5.8384142 20.2769704,6.27498225 20.1026746,6.7072426 C20.0320947,6.85602367 19.9535621,7.04589349 19.8703905,7.2791716 C19.6767101,7.79427219 19.5565917,8.10790533 19.5121893,8.21824852 L18.7861775,9.7575858 C18.7144379,9.88731361 18.639716,10.052 18.5633373,10.2511479 C18.4849704,10.451787 18.4460355,10.5969231 18.4460355,10.6870533 C18.4460355,10.7586272 18.4124024,10.8167811 18.3446391,10.8673136 C18.2767101,10.9145325 18.2111006,10.9388876 18.1461538,10.9388876 C18.0696095,10.9388876 18.0018462,10.8973018 17.943858,10.8128047 C17.8845444,10.7299645 17.8565444,10.6418225 17.8565444,10.5516923 C17.8565444,10.4226272 17.9786509,10.0657515 18.2235266,9.48073373 C18.4693964,8.89704142 18.7116213,8.32097041 18.9506982,7.75384615 C19.0348639,7.55204734 19.2661538,7.00430769 19.6467219,6.10681657 C19.9053491,5.50572781 20.0610888,5.12201183 20.1124497,4.95351479 C20.1510533,4.73481657 20.1898225,4.52175148 20.2275976,4.31481657 C20.2673609,4.10871006 20.3379408,4.00466272 20.4414911,4.00466272 C20.5452071,4.00466272 20.6447811,4.04757396 20.7417041,4.13091124 C20.8772308,4.24688757 20.9779645,4.40859172 21.0417515,4.61469822 C21.2420592,4.98383432 21.4620828,5.48435503 21.7011598,6.11659172 C22.0302012,6.99386982 22.2492308,7.56298225 22.359574,7.8204497 C22.5337041,8.22802367 22.7341775,8.67337278 22.9598343,9.15732544 C23.1465562,9.56407101 23.3304615,9.96501775 23.511716,10.3580118 C23.6918107,10.7521657 23.7837633,10.9554556 23.7837633,10.9678817" id="Fill-5" fill="#1A1918" sketch:type="MSShapeGroup"></path>
            <path d="M30.1458935,9.26004734 C30.1458935,9.8543432 29.6843077,10.3358107 28.7616331,10.7024615 C28.0579882,10.9813018 27.4219408,11.1188166 26.8536568,11.1188166 L26.6212071,11.1188166 C26.4662959,11.1188166 26.315858,11.1111953 26.1700592,11.095787 C26.0255858,11.0790533 25.9076213,11.0548639 25.8174911,11.0228876 C25.4168757,11.0228876 25.2167337,10.115787 25.2167337,8.3015858 C25.0934675,8.3015858 25.0008521,8.29578698 24.9357396,8.2820355 C24.7488521,8.24326627 24.6559053,8.16009467 24.6559053,8.03020118 C24.6559053,7.90743195 24.7130651,7.8204497 24.8303669,7.76908876 C24.8757633,7.74970414 25.0038343,7.71689941 25.2167337,7.67216568 C25.2167337,7.49140828 25.2425799,6.94615385 25.2947692,6.03607101 C25.3461302,5.1248284 25.3724734,4.48894675 25.3724734,4.12792899 C25.3724734,4.02404734 25.4022959,3.92347929 25.4629349,3.82688757 C25.5252308,3.73095858 25.5979645,3.68175148 25.6821302,3.68175148 C25.8300828,3.68175148 25.9493728,3.77552663 26.0401657,3.96224852 C26.1299645,4.15029586 26.1756923,4.35723077 26.1756923,4.58272189 C26.1756923,4.77640237 26.1312899,5.30028402 26.0451361,6.15138462 C25.9578225,7.00430769 25.9140828,7.46224852 25.9140828,7.52702959 C26.1785089,7.48246154 26.4469112,7.43607101 26.7177988,7.39150296 C27.1701065,7.32639053 27.5642604,7.29457988 27.8991006,7.29457988 C28.5255385,7.29457988 29.0567101,7.48047337 29.4926154,7.85110059 C29.928355,8.22239053 30.1458935,8.6927574 30.1458935,9.26004734 L30.1458935,9.26004734 Z M29.5459645,9.26004734 C29.5459645,8.82132544 29.352284,8.46809467 28.9637633,8.20002367 C28.5777278,7.9316213 28.099574,7.79824852 27.5311243,7.79824852 C27.207716,7.79824852 26.9174438,7.8272426 26.659645,7.88506509 C26.4991006,7.924 26.2504142,8.00153846 25.9140828,8.11751479 C25.856426,8.53751479 25.8272663,9.03737278 25.8272663,9.61808284 L25.9626272,10.6058698 C26.1428876,10.6252544 26.3037633,10.6418225 26.4421065,10.6542485 C26.580284,10.6676686 26.7177988,10.6744615 26.8536568,10.6744615 C27.2854201,10.6744615 27.8189112,10.535787 28.452142,10.2572781 C29.1808047,9.93469822 29.5459645,9.60284024 29.5459645,9.26004734 L29.5459645,9.26004734 Z" id="Fill-6" fill="#1A1918" sketch:type="MSShapeGroup"></path>
            <path d="M39.2468876,4.52009467 C39.0596686,5.152 38.8943195,5.7612071 38.7531598,6.34489941 C38.6108402,6.9287574 38.5397633,7.43391716 38.5397633,7.86004734 L38.5397633,10.4363787 C38.6562367,10.4489704 38.7230059,10.455929 38.7435503,10.455929 C38.827716,10.4489704 38.8789112,10.4461538 38.8979645,10.4461538 C38.9246391,10.4461538 38.9380592,10.4849231 38.9380592,10.5632899 C38.9380592,10.7307929 38.9173491,10.8333491 38.8789112,10.8721183 C38.840142,10.9105562 38.7500118,10.9299408 38.6076923,10.9299408 C38.2528047,10.9299408 37.8120947,10.9193373 37.2853964,10.896142 C36.7595266,10.8737751 36.2152663,10.8527337 35.6542722,10.8333491 L32.7969467,10.8333491 C32.6935621,10.8398107 32.6130414,10.8431243 32.5552189,10.8431243 C32.4263195,10.8431243 32.3214438,10.8224142 32.2402604,10.7856331 C32.1599053,10.7462012 32.1194793,10.671645 32.1194793,10.5632899 C32.1194793,10.5168994 32.1557633,10.4779645 32.2306509,10.4461538 C32.3053728,10.4130178 32.3999763,10.3976095 32.5172781,10.3976095 C32.5035266,10.3328284 32.4970651,10.2330888 32.4970651,10.0964024 C32.4970651,9.73621302 32.5091598,9.35498225 32.5358343,8.95519527 C32.5608521,8.55424852 32.6130414,8.08089941 32.6914083,7.53100592 C32.8067219,6.91136095 32.8907219,6.45607101 32.9420828,6.1659645 C33.0386746,5.63628402 33.0872189,5.14553846 33.0872189,4.69439053 C33.0872189,4.62248521 33.120355,4.52788166 33.1849704,4.40776331 C33.2489231,4.28963314 33.3127101,4.22949112 33.3778225,4.22949112 C33.507716,4.22949112 33.5908876,4.27588166 33.6304852,4.36982249 C33.6694201,4.46276923 33.6886391,4.60011834 33.6886391,4.78137278 L33.6886391,5.07197633 C33.6886391,5.28504142 33.6167337,5.76899408 33.4744142,6.524 C33.3847811,6.99536095 33.323645,7.36648521 33.2910059,7.63737278 C33.2197633,8.16009467 33.1523314,8.68795266 33.0872189,9.22111243 C33.0224379,9.75360947 32.9906272,10.1391479 32.9906272,10.3782249 L33.6006627,10.3490651 C33.8269822,10.3296805 34.0498225,10.3212308 34.268355,10.3212308 C34.3982485,10.3212308 34.5756923,10.3232189 34.8011834,10.3296805 C35.0276686,10.3366391 35.1824142,10.3386272 35.2669112,10.3386272 C35.228142,10.1391479 35.1969941,9.89907692 35.1747929,9.61808284 C35.1525917,9.3375858 35.1408284,9.04499408 35.1408284,8.74097041 C35.1408284,8.58042604 35.168,8.27640237 35.2233373,7.83088757 C35.2783432,7.38553846 35.3510769,6.92792899 35.4408757,6.45607101 C35.5046627,6.11443787 35.5669586,5.7552426 35.6251124,5.38163314 C35.6565917,5.17469822 35.6877396,4.97008284 35.7157396,4.7659645 C35.7458935,4.56250888 35.8038817,4.41140828 35.8910296,4.31067456 C35.9785089,4.21126627 36.0835503,4.16156213 36.2056568,4.16156213 C36.2573491,4.16156213 36.3067219,4.18707692 36.3511243,4.23843787 C36.3956923,4.29046154 36.4190533,4.34745562 36.4190533,4.41339645 C36.4190533,4.50236686 36.3908876,4.72504142 36.3317396,5.08175148 C36.2735858,5.43581065 36.1972071,5.88695858 36.1054201,6.43188166 C36.0099882,6.97730178 35.9473609,7.34710059 35.9153846,7.54078107 C35.7868166,8.25138462 35.7217041,8.652 35.7217041,8.74097041 C35.7217041,8.9871716 35.7188876,9.19046154 35.7120947,9.35216568 C35.6869112,10.0095858 35.6736568,10.3426036 35.6736568,10.3490651 C36.183787,10.3490651 36.6220118,10.3520473 36.9898225,10.3588402 C37.3577988,10.3656331 37.6812071,10.3712663 37.9592189,10.3782249 C37.9454675,10.3328284 37.9398343,10.284284 37.9398343,10.2330888 L37.9398343,10.1073373 C37.9398343,10.0616095 37.9426509,9.97429586 37.9496095,9.84572781 C37.9552426,9.7168284 37.9592189,9.60366864 37.9592189,9.50707692 L37.9592189,7.78366864 C37.9592189,6.97597633 38.0453728,6.20821302 38.220497,5.47872189 C38.4209704,4.63209467 38.6590533,4.20927811 38.9380592,4.20927811 C39.0142722,4.20927811 39.0851834,4.23843787 39.1502959,4.29742012 C39.2149112,4.3544142 39.2468876,4.42880473 39.2468876,4.52009467" id="Fill-7" fill="#1A1918" sketch:type="MSShapeGroup"></path>
            <path d="M46.6171834,10.7569704 C46.6171834,10.9055858 46.5789112,10.9793136 46.5020355,10.9793136 C46.4102485,10.9793136 46.3035503,10.8953136 46.1817751,10.7278107 C46.0266982,10.5203787 45.823574,10.1817278 45.5719053,9.71119527 C45.3199053,9.23850888 45.0713846,8.72970414 44.8251834,8.18063905 C44.6064852,8.21344379 44.2163077,8.28418935 43.6539882,8.39370414 C43.3050651,8.46527811 42.9211834,8.5416568 42.5018462,8.62698225 C42.4493254,8.63824852 42.4175148,8.6452071 42.4049231,8.6452071 C42.340142,8.6452071 42.2404024,8.58042604 42.103716,8.45152663 L41.6205917,9.54667456 C41.5490178,9.6752426 41.4746272,9.84009467 41.3970888,10.0402367 C41.3207101,10.2407101 41.2819408,10.3850178 41.2819408,10.476142 C41.2819408,10.5467219 41.2478107,10.6066982 41.1803787,10.6542485 C41.1124497,10.7024615 41.0466746,10.7278107 40.9818935,10.7278107 C40.9035266,10.7278107 40.836426,10.6848994 40.7774438,10.6017278 C40.720284,10.5177278 40.6904615,10.4302485 40.6904615,10.3406154 C40.6904615,10.2108876 40.8132308,9.8543432 41.0591006,9.2696568 C41.304142,8.6859645 41.5462012,8.10989349 41.7851124,7.54160947 C41.8684497,7.34097041 42.1017278,6.79323077 42.4824615,5.89457988 C42.7407574,5.29431953 42.8956686,4.91110059 42.9470296,4.74243787 C42.9857988,4.52307692 43.024568,4.31067456 43.0641657,4.10373964 C43.1017751,3.89630769 43.1725207,3.79375148 43.276071,3.79375148 C43.3787929,3.79375148 43.4793609,3.83533728 43.5764497,3.91983432 C43.7118107,4.03581065 43.811716,4.19751479 43.8763314,4.4036213 C44.0449941,4.71377515 44.2462959,5.17055621 44.4815621,5.77379882 C44.7179882,6.37770414 44.9549112,6.98972781 45.1941538,7.60937278 L45.6878817,7.60937278 C45.7780118,7.60937278 45.8572071,7.62478107 45.9249704,7.6575858 C45.9930651,7.68939645 46.0266982,7.74208284 46.0266982,7.8128284 C46.0266982,7.85110059 46.0104615,7.88026036 45.9773254,7.89964497 C45.8746036,7.9316213 45.8041893,7.95100592 45.7655858,7.95779882 L45.396284,8.04478107 C45.4226272,8.10989349 45.5719053,8.43214201 45.8417988,9.01417751 C46.3588876,10.1179408 46.6171834,10.6986509 46.6171834,10.7569704 L46.6171834,10.7569704 Z M44.6508876,7.71573964 C44.4128047,7.19301775 44.2511006,6.84343195 44.1677633,6.66913609 C43.9346509,6.17921893 43.7020355,5.6856568 43.4709112,5.18795266 C43.2889941,5.62750296 43.1115503,6.06307692 42.9372544,6.49484024 C42.8665089,6.64975148 42.7775385,6.86878107 42.6713373,7.14944379 C42.5646391,7.43027219 42.4569467,7.71573964 42.3466036,8.0063432 C42.5472426,7.97453254 42.944213,7.92118343 43.5375148,7.84629586 C44.1323077,7.77190533 44.5029349,7.72949112 44.6508876,7.71573964 L44.6508876,7.71573964 Z" id="Fill-8" fill="#1A1918" sketch:type="MSShapeGroup"></path>
            <path d="M52.6527574,4.70681657 C52.5755503,5.35943195 52.5152426,5.93136095 52.4736568,6.42542012 C52.4312426,6.91898225 52.4097041,7.34097041 52.4097041,7.68939645 L52.2460118,10.2648994 C52.2460118,10.7488521 52.1648284,10.9910769 52.004284,10.9910769 C51.9133254,10.9910769 51.8462249,10.9251361 51.8009941,10.7937515 C51.7544379,10.6607101 51.7322367,10.4779645 51.7322367,10.2455148 L51.7900592,8.36752663 C51.6808757,8.45831953 51.4444497,8.63261538 51.083432,8.89008284 C50.5663432,9.25805917 50.2538698,9.48073373 50.144355,9.55843787 C49.9506746,9.69462722 49.6058935,9.94927811 49.1081893,10.3240473 C48.4043787,10.8535621 47.9719527,11.1168284 47.8100828,11.1168284 C47.7782722,11.1168284 47.7421538,11.1034083 47.7035503,11.0742485 C47.6657751,11.0450888 47.6493728,11.0172544 47.6553373,10.9910769 C47.6687574,10.9271243 48.0725207,10.5856568 48.8664615,9.96584615 C49.3434556,9.59687574 49.7182249,9.29401183 49.9904379,9.05476923 C50.1831243,8.88047337 50.3768047,8.70617751 50.5704852,8.53188166 C50.9904852,8.16407101 51.2423195,7.93443787 51.3263195,7.84463905 L51.1994083,7.84463905 C50.8771598,7.84463905 50.5636923,7.82542012 50.2614911,7.78648521 C49.724355,7.69635503 49.3399763,7.56861538 49.1073609,7.40326627 C48.8749112,7.2384142 48.7589349,7.01756213 48.7589349,6.74071006 C48.7589349,6.10201183 49.1433136,5.48435503 49.9110769,4.89088757 C50.6410651,4.32243787 51.3324497,4.03779882 51.9848994,4.03779882 C52.055645,4.03779882 52.1104852,4.04144379 52.1482604,4.04840237 C52.4840947,4.0803787 52.6527574,4.30023669 52.6527574,4.70681657 L52.6527574,4.70681657 Z M52.0418935,4.93943195 C52.0418935,4.86255621 52.024497,4.78899408 51.9885444,4.72139645 C51.9537515,4.65363314 51.9004024,4.61966864 51.8299882,4.61966864 C51.3650888,4.61966864 50.8493254,4.84714793 50.2846864,5.30243787 C49.7203787,5.75723077 49.4377278,6.19495858 49.4377278,6.61413018 C49.4377278,6.79521893 49.4667219,6.92511243 49.5245444,7.00231953 C49.6474793,7.15706509 49.9049467,7.26376331 50.300426,7.3215858 C50.4281657,7.34097041 50.6740355,7.36532544 51.0348876,7.39448521 C51.3970651,7.42347929 51.6545325,7.43805917 51.8106036,7.43805917 C51.8106036,7.37427219 51.8356213,7.14364497 51.8871479,6.74949112 C51.919787,6.50461538 51.9365207,6.3263432 51.9365207,6.21715976 L52.0418935,4.93943195 L52.0418935,4.93943195 Z" id="Fill-9" fill="#1A1918" sketch:type="MSShapeGroup"></path>
            <path d="M3.1164497,12.5150059 L52.8060118,12.5150059 L52.8060118,38.6764497 L3.1164497,38.6764497 L3.1164497,12.5150059 Z" id="Fill-10" fill="#008CC1" sketch:type="MSShapeGroup"></path>
            <path d="M49.0019882,22.1986982 C45.004284,20.7655621 40.2659882,20.6737751 38.2564497,20.7655621 C29.9614911,21.1355266 27.8116213,23.6313373 27.8116213,23.6313373 C27.8116213,23.6313373 26.9792426,21.9904379 21.4572781,21.1583905 C11.4987219,19.8186982 6.6928284,22.1519763 6.6928284,22.1519763 L10.3661302,24.8550533 L6.71502959,35.9008047 L12.3768284,27.9058935 C12.3768284,27.9058935 15.3103669,31.9031006 17.3909822,34.7223195 C23.699432,35.1154793 24.9697041,35.9473609 27.7887574,37.5185089 C30.7466509,34.8840237 38.1177751,34.6994556 38.1177751,34.6994556 L43.1786509,27.8836923 L48.9088757,35.7854911 L45.1881893,24.8550533 C45.1881893,24.8550533 45.9743432,24.2546272 49.0019882,22.1986982 L49.0019882,22.1986982 Z M17.3445917,34.5142249 L14.2715503,24.439858 L17.3445917,20.9280947 L17.3445917,34.5142249 L17.3445917,34.5142249 Z M38.1177751,34.5142249 L38.163503,20.9971834 L41.2826036,24.4163314 L38.1177751,34.5142249 L38.1177751,34.5142249 Z" id="Fill-11" fill="#1A1918" sketch:type="MSShapeGroup"></path>
            <path d="M49.1983195,20.9126864 C45.1707929,19.4702722 40.3996923,19.3773254 38.3744142,19.4702722 C30.0181538,19.8417278 27.8537041,22.3562604 27.8537041,22.3562604 C27.8537041,22.3562604 27.0161893,20.7035976 21.4533018,19.8660828 C11.4215148,18.5154556 6.58049704,20.8662959 6.58049704,20.8662959 L10.2817988,23.5904142 L6.60369231,34.7155266 L12.3070769,26.6614675 C12.3070769,26.6614675 15.2619882,30.6891598 17.3570178,33.5297515 C23.7120237,33.9247337 24.9912426,34.7632426 27.8303432,36.3449941 C30.8104379,33.6924497 38.2349112,33.5055621 38.2349112,33.5055621 L43.3333964,26.6392663 L49.1045444,34.5993846 L45.3580118,23.5904142 C45.3580118,23.5904142 46.1486391,22.9845207 49.1983195,20.9126864 L49.1983195,20.9126864 Z M17.3106272,33.3188402 L14.2143905,23.1712426 L17.3106272,19.6328047 L17.3106272,33.3188402 L17.3106272,33.3188402 Z M38.2349112,33.3188402 L38.2826272,19.7035503 L41.4240947,23.1473846 L38.2349112,33.3188402 L38.2349112,33.3188402 Z" id="Fill-12" fill="#FFFFFF" sketch:type="MSShapeGroup"></path>
            <path d="M13.7292781,17.2529704 C13.7292781,18.244568 12.9248994,19.0491124 11.9333018,19.0491124 C10.9412071,19.0491124 10.136497,18.244568 10.136497,17.2529704 C10.136497,16.259716 10.9412071,15.456 11.9333018,15.456 C12.9248994,15.456 13.7292781,16.259716 13.7292781,17.2529704" id="Fill-13" fill="#FFFFFF" sketch:type="MSShapeGroup"></path>
            <path d="M45.5164024,17.2529704 C45.5164024,18.244568 44.7131834,19.0491124 43.7207574,19.0491124 C42.7283314,19.0491124 41.9246154,18.244568 41.9246154,17.2529704 C41.9246154,16.259716 42.7283314,15.456 43.7207574,15.456 C44.7131834,15.456 45.5164024,16.259716 45.5164024,17.2529704" id="Fill-14" fill="#FFFFFF" sketch:type="MSShapeGroup"></path>
            <path d="M8.70667456,40.7848994 C8.70667456,40.8760237 8.69971598,40.9321893 8.68927811,40.9563787 C8.67652071,40.9807337 8.63211834,40.9923314 8.55259172,40.9923314 L8.09481657,40.9563787 C7.9087574,41.5972308 7.75401183,42.1925207 7.62809467,42.7407574 C7.50217751,43.2896568 7.43921893,43.751574 7.43921893,44.1289941 C7.43921893,44.4164497 7.44998817,44.7653728 7.47119527,45.1727811 C7.49057988,45.5795266 7.51394083,46.0111243 7.53813018,46.4659172 L7.53813018,46.6461775 C7.53813018,46.7488994 7.52537278,46.8184852 7.50217751,46.8582485 C7.47815385,46.8970178 7.41801183,46.9154083 7.32208284,46.9154083 C7.17794083,46.9154083 7.08979882,46.7412781 7.0568284,46.3906982 C7.02385799,46.040284 6.99784615,45.7766864 6.9804497,45.5997396 C6.96288757,45.4224615 6.94366864,45.1921657 6.92710059,44.9075266 C6.90871006,44.6228876 6.89992899,44.336426 6.89992899,44.0478107 C6.89992899,43.4979172 6.97746746,42.8888757 7.13436686,42.2238343 C7.22350296,41.8462485 7.35207101,41.4027219 7.51973964,40.8934201 C7.35207101,40.8751953 7.1391716,40.8528284 6.88054438,40.8258225 C6.62407101,40.7986509 6.4467929,40.7848994 6.35102959,40.7848994 C6.20208284,40.7848994 5.94925444,40.8334438 5.59585799,40.9292071 C5.36854438,40.996142 5.14371598,41.0579408 4.9220355,41.1180828 C4.71791716,41.7301065 4.52423669,42.6478107 4.33718343,43.8735148 C4.15261538,45.0992189 4.05950296,46.0023432 4.05950296,46.5832189 C4.05950296,46.667716 4.03332544,46.7440947 3.98295858,46.8128521 C3.93176331,46.8816095 3.86383432,46.9154083 3.77983432,46.9154083 C3.71969231,46.9154083 3.67611834,46.8516213 3.6459645,46.7238817 C3.61614201,46.5941538 3.60040237,46.4311243 3.60040237,46.2326391 C3.60040237,45.9995266 3.61895858,45.6595503 3.65491124,45.2123787 C3.68953846,44.7662012 3.73410651,44.3051124 3.78447337,43.8289467 C3.83566864,43.3514556 3.9123787,42.7727337 4.01410651,42.0891361 C4.05569231,41.8016805 4.10108876,41.5102485 4.14946746,41.2168284 L3.99571598,41.2168284 C3.90542012,41.2168284 3.83401183,41.2034083 3.77983432,41.1764024 C3.72648521,41.1500592 3.69931361,41.0945562 3.69931361,41.0098935 C3.69931361,40.9494201 3.75730178,40.8876213 3.87460355,40.8218462 C3.99157396,40.7557396 4.09247337,40.7134911 4.17581065,40.6960947 C4.17581065,40.5877396 4.20281657,40.4914793 4.25699408,40.4083077 C4.3111716,40.324142 4.37976331,40.2817278 4.46409467,40.2817278 C4.60061538,40.2817278 4.70333728,40.3060828 4.76927811,40.3541302 C4.83488757,40.4026746 4.87647337,40.4773964 4.89486391,40.5787929 C5.05673373,40.5246154 5.28901775,40.4754083 5.59204734,40.4310059 C5.89507692,40.3851124 6.14691124,40.3629112 6.35102959,40.3629112 C6.8243787,40.3629112 7.33550296,40.4094675 7.88456805,40.5024142 C8.43181065,40.5955266 8.70667456,40.6891361 8.70667456,40.7848994" id="Fill-15" fill="#1A1918" sketch:type="MSShapeGroup"></path>
            <path d="M15.5592189,41.1220592 C15.5592189,41.1568521 15.4448994,41.1742485 15.2165917,41.1742485 C15.0007101,41.1742485 14.7498698,41.1694438 14.4622485,41.1568521 C14.1747929,41.1452544 13.9405207,41.1334911 13.7614201,41.1220592 C13.167787,41.1220592 12.5327337,41.1936331 11.855929,41.3367811 C11.315645,41.4512663 10.8936568,41.5770178 10.5878107,41.7143669 C10.5878107,41.7571124 10.5810178,41.859503 10.5646154,42.0245207 C10.5510296,42.1890414 10.5420828,42.3050178 10.5420828,42.3709586 L10.5420828,43.2878343 C10.7823195,43.2404497 11.4271479,43.1426982 12.4757396,42.9962367 C13.5241657,42.8491124 14.1390059,42.7755503 14.3181065,42.7755503 C14.3480947,42.7755503 14.3896805,42.7825089 14.443858,42.7979172 C14.4982012,42.8123314 14.5252071,42.8297278 14.5252071,42.8471243 C14.5252071,42.9788402 14.2067692,43.116355 13.571716,43.2606627 C13.2791243,43.3266036 12.9248994,43.3951953 12.5115266,43.4669349 L10.480284,43.8541302 L10.3011834,46.119645 C10.4261065,46.0836923 10.6756213,46.0556923 11.0505562,46.0334911 C11.4263195,46.0132781 11.8501302,46.0023432 12.3226509,46.0023432 C12.7360237,46.0023432 13.1310059,46.0295148 13.5047811,46.0828639 C13.8793846,46.1368757 14.0672663,46.2086154 14.0672663,46.2994083 C14.0672663,46.3945089 13.8387929,46.4465325 13.3828402,46.4526627 C12.927716,46.4582959 12.5946982,46.4611124 12.3856095,46.4611124 C11.9664379,46.4611124 11.5946509,46.4998817 11.2712426,46.5775858 C11.2170651,46.5900118 10.9953846,46.6531361 10.6060355,46.7664615 C10.5278343,46.7913136 10.4095385,46.8386982 10.2509822,46.9106036 C10.0920947,46.9823432 9.97678107,47.0181302 9.9052071,47.0181302 C9.83247337,47.0181302 9.76089941,46.9849941 9.68932544,46.9192189 C9.61659172,46.8532781 9.58080473,46.771929 9.58080473,46.6769941 C9.58080473,46.5986272 9.59256805,46.5358343 9.61659172,46.4886154 C9.66513609,46.4158817 9.70373964,46.3540828 9.73389349,46.2994083 C9.79386982,45.7710533 9.84142012,45.2983669 9.87820118,44.8791953 C9.91398817,44.4600237 9.93121893,44.1505325 9.93121893,43.9527101 C9.85981065,43.9527101 9.80347929,43.9109586 9.76570414,43.8271243 C9.72693491,43.743787 9.70672189,43.6563077 9.70672189,43.5666746 C9.70672189,43.4162367 9.80248521,43.3330651 9.99417751,43.3140118 C10.0009704,43.2788876 10.003787,43.2286864 10.003787,43.1620828 C10.003787,43.1143669 10.0009704,43.0302012 9.99417751,42.9100828 C9.98854438,42.7909586 9.98556213,42.6943669 9.98556213,42.6227929 C9.98556213,42.4125444 9.97495858,42.1966627 9.9535858,41.9748166 C9.93337278,41.7531361 9.91680473,41.555645 9.9052071,41.3813491 C9.9052071,41.183858 10.0243314,41.0854438 10.2644024,41.0854438 C10.3601657,41.0854438 10.4396923,41.0902485 10.5014911,41.0986982 C10.5646154,41.1083077 10.6118343,41.1266982 10.6419882,41.1568521 C11.0969467,41.0493254 11.4929231,40.9591953 11.827929,40.8876213 C12.4997633,40.7433136 12.9848757,40.6719053 13.2850888,40.6719053 C13.7284497,40.6719053 14.160213,40.6989112 14.5783905,40.7530888 C15.232,40.836426 15.5592189,40.9591953 15.5592189,41.1220592" id="Fill-16" fill="#1A1918" sketch:type="MSShapeGroup"></path>
            <path d="M19.604142,42.1211124 C19.604142,42.4930651 19.4628166,42.8532544 19.1809941,43.1995266 C18.9003314,43.5481183 18.5519053,43.7825562 18.1391953,43.9013491 C17.9224852,43.9603314 17.6648521,44.0070533 17.3657988,44.0400237 C17.0665799,44.0739882 16.827503,44.0900592 16.6474083,44.0900592 C16.6474083,44.2277396 16.6366391,44.4765917 16.6202367,44.8356213 C16.5716923,45.8022012 16.5476686,46.3199527 16.5476686,46.3906982 C16.5476686,46.6191716 16.5176805,46.7974438 16.4585325,46.9268402 C16.3975621,47.0545799 16.3201893,47.1196923 16.2242604,47.1196923 C16.1458935,47.1196923 16.0973491,47.0820828 16.076142,47.0073609 C16.0549349,46.9329704 16.0441657,46.7926391 16.0441657,46.5891834 L16.0441657,46.4178698 L16.063716,43.9013491 C16.063716,43.6014675 16.0501302,43.112213 16.0259408,42.4367337 C16.0015858,41.7587692 15.9901538,41.3125917 15.9901538,41.0967101 C15.8710296,41.0967101 15.7885207,41.0910769 15.747929,41.0784852 C15.6278107,41.0425325 15.5678343,40.968142 15.5678343,40.8536568 C15.5678343,40.703716 15.7073373,40.592213 15.9861775,40.5169941 C16.2650178,40.4422722 16.6696095,40.404497 17.2040947,40.404497 C18.0192426,40.404497 18.6088994,40.5178225 18.9748876,40.7462959 C19.3940592,41.0098935 19.604142,41.468497 19.604142,42.1211124 L19.604142,42.1211124 Z M19.1190296,42.1211124 C19.1190296,41.696142 18.9912899,41.4027219 18.7366391,41.2401893 C18.4821538,41.0793136 18.0280237,40.9979645 17.3744142,40.9979645 C17.3629822,40.9979645 17.2612544,41.0021065 17.0693964,41.0057515 C16.8768757,41.0125444 16.7267692,41.0249704 16.6202367,41.0425325 L16.6202367,43.559716 C16.6318343,43.559716 16.6966154,43.5626982 16.8167337,43.5694911 C16.9368521,43.5751243 17.0423905,43.5772781 17.1315266,43.5772781 C17.3116213,43.5772781 17.4879053,43.567503 17.6620355,43.5459645 C17.8363314,43.5257515 17.9950533,43.4883077 18.1391953,43.4341302 C18.408426,43.3378698 18.6390533,43.159929 18.8305799,42.899645 C19.0232663,42.6382012 19.1190296,42.3785799 19.1190296,42.1211124 L19.1190296,42.1211124 Z" id="Fill-17" fill="#1A1918" sketch:type="MSShapeGroup"></path>
            <path d="M26.5156686,41.1220592 C26.5156686,41.1568521 26.4025089,41.1742485 26.1748639,41.1742485 C25.9589822,41.1742485 25.7071479,41.1694438 25.4196923,41.1568521 C25.1322367,41.1452544 24.8982959,41.1334911 24.7178698,41.1220592 C24.1255621,41.1220592 23.4901775,41.1936331 22.8127101,41.3367811 C22.2734201,41.4512663 21.8511006,41.5770178 21.5454201,41.7143669 C21.5454201,41.7571124 21.5374675,41.859503 21.5230533,42.0245207 C21.5074793,42.1890414 21.499858,42.3050178 21.499858,42.3709586 L21.499858,43.2878343 C21.7397633,43.2404497 22.3837633,43.1426982 23.4331834,42.9962367 C24.4816095,42.8491124 25.0967811,42.7755503 25.2753846,42.7755503 C25.3053728,42.7755503 25.3481183,42.7825089 25.4014675,42.7979172 C25.4558107,42.8123314 25.4823195,42.8297278 25.4823195,42.8471243 C25.4823195,42.9788402 25.1655385,43.116355 24.5301538,43.2606627 C24.2359053,43.3266036 23.8823432,43.3951953 23.4689704,43.4669349 L21.4378935,43.8541302 L21.2577988,46.119645 C21.3835503,46.0836923 21.6333964,46.0556923 22.008,46.0334911 C22.3827692,46.0132781 22.8067456,46.0023432 23.2802604,46.0023432 C23.6934675,46.0023432 24.087787,46.0295148 24.4622249,46.0828639 C24.8369941,46.1368757 25.0240473,46.2086154 25.0240473,46.2994083 C25.0240473,46.3945089 24.7964024,46.4465325 24.3412781,46.4526627 C23.8861538,46.4582959 23.5533018,46.4611124 23.3430533,46.4611124 C22.9238817,46.4611124 22.5520947,46.4998817 22.2288521,46.5775858 C22.1735148,46.5900118 21.9528284,46.6531361 21.5626509,46.7664615 C21.4852781,46.7913136 21.3669822,46.8386982 21.208426,46.9106036 C21.0487101,46.9823432 20.9343905,47.0181302 20.8618225,47.0181302 C20.7910769,47.0181302 20.7173491,46.9849941 20.6469349,46.9192189 C20.5742012,46.8532781 20.5382485,46.771929 20.5382485,46.6769941 C20.5382485,46.5986272 20.5511716,46.5358343 20.5751953,46.4886154 C20.6225799,46.4158817 20.6615148,46.3540828 20.6913373,46.2994083 C20.7514793,45.7710533 20.7988639,45.2983669 20.8346509,44.8791953 C20.8704379,44.4600237 20.8888284,44.1505325 20.8888284,43.9527101 C20.8172544,43.9527101 20.7620828,43.9109586 20.7223195,43.8271243 C20.683716,43.743787 20.6643314,43.6563077 20.6643314,43.5666746 C20.6643314,43.4162367 20.7600947,43.3330651 20.951787,43.3140118 C20.9575858,43.2788876 20.960568,43.2286864 20.960568,43.1620828 C20.960568,43.1143669 20.9575858,43.0302012 20.951787,42.9100828 C20.9459882,42.7909586 20.9430059,42.6943669 20.9430059,42.6227929 C20.9430059,42.4125444 20.932568,42.1966627 20.9120237,41.9748166 C20.8908166,41.7531361 20.8742485,41.555645 20.8618225,41.3813491 C20.8618225,41.183858 20.9817751,41.0854438 21.2218462,41.0854438 C21.3177751,41.0854438 21.3971361,41.0902485 21.4600947,41.0986982 C21.5230533,41.1083077 21.5686154,41.1266982 21.5984379,41.1568521 C22.0545562,41.0493254 22.4495385,40.9591953 22.7853728,40.8876213 C23.4575385,40.7433136 23.9423195,40.6719053 24.2415385,40.6719053 C24.6860592,40.6719053 25.1169941,40.6989112 25.536497,40.7530888 C26.1889467,40.836426 26.5156686,40.9591953 26.5156686,41.1220592" id="Fill-18" fill="#1A1918" sketch:type="MSShapeGroup"></path>
            <path d="M32.7371361,41.5770178 C32.7371361,41.876071 32.7253728,42.3272189 32.7011834,42.9284734 C32.6781538,43.5313846 32.6526391,44.1261775 32.6296095,44.7140118 C32.6052544,45.3005207 32.5936568,45.7148876 32.5936568,45.9529704 C32.5936568,46.0313373 32.5964734,46.1188166 32.6021065,46.2145799 C32.608071,46.3111716 32.6142012,46.4069349 32.6198343,46.5026982 C32.6198343,46.6289467 32.6093964,46.7238817 32.5886864,46.7904852 C32.5686391,46.8552663 32.5237396,46.8884024 32.4581302,46.8884024 C32.3076923,46.8884024 32.208284,46.7227219 32.1570888,46.3895385 C32.1065562,46.0576805 32.0813728,45.6177988 32.0813728,45.0728757 L32.0813728,44.2906982 C32.0813728,44.051787 32.0846864,43.7300355 32.0903195,43.3294201 C32.0951243,42.927645 32.1048994,42.4965444 32.1174911,42.0349586 C32.0515503,42.1250888 31.8615148,42.4658935 31.5502012,43.0601893 C31.5081183,43.1377278 31.3609941,43.4127574 31.1103195,43.8861065 C30.8048047,44.4802367 30.6155976,44.8299882 30.5440237,44.9383432 C30.3039527,45.2977041 30.0521183,45.4776331 29.7876923,45.4776331 C29.5670059,45.4776331 29.3183195,45.3331598 29.0434556,45.0458698 C28.796426,44.7940355 28.5692781,44.4737751 28.3590296,44.084426 C28.2215148,43.8213254 28.1100118,43.6082604 28.0268402,43.4453964 C27.9010888,43.1947219 27.7995266,42.9670769 27.7211598,42.7622959 C27.6378225,43.272426 27.5679053,43.6854675 27.5137278,44.0032426 C27.3702485,44.8125917 27.2408521,45.4420118 27.1285207,45.8911716 C26.9659882,46.5444497 26.8273136,46.8711716 26.7141538,46.8711716 C26.6538462,46.8711716 26.607787,46.8574201 26.5746509,46.8302485 C26.5415148,46.8039053 26.5261065,46.7449231 26.5261065,46.6559527 L26.5261065,46.5475976 C26.5261065,46.4341065 26.5754793,46.0711006 26.6782012,45.4594083 C26.7800947,44.848213 26.8843077,44.2337041 26.9926627,43.6168757 C27.1243787,42.8373491 27.2060592,42.3166154 27.2348876,42.0531834 C27.2473136,41.9739882 27.2570888,41.8626509 27.2618935,41.7155266 C27.2675266,41.5692308 27.2716686,41.4658462 27.2716686,41.4055385 L27.2716686,41.0453491 C27.2716686,40.955716 27.2748166,40.883645 27.2812781,40.8294675 C27.3112663,40.6621302 27.376213,40.5779645 27.4777751,40.5779645 C27.5922604,40.5663669 27.7026036,40.703716 27.8107929,40.9923314 C27.8893254,41.2382012 27.9668639,41.480426 28.0453964,41.720497 C28.1100118,41.8810414 28.1953373,42.1065325 28.296071,42.3938225 C28.4463432,42.8199527 28.607716,43.2016805 28.7818462,43.5403314 C28.9564734,43.8791479 29.1198343,44.1659408 29.2767337,44.3982249 C29.5159763,44.7584142 29.7018698,44.9383432 29.8334201,44.9383432 C29.9348166,44.9383432 30.088071,44.7736568 30.2921893,44.4434556 C30.4538935,44.1801893 30.6155976,43.8715266 30.7773018,43.5181302 C30.9148166,43.1995266 31.1007101,42.831716 31.3343195,42.411716 C31.5268402,42.0709112 31.7183669,41.7289467 31.9100592,41.3873136 C32.0603314,41.1472426 32.144497,41.0155266 32.1618935,40.9923314 C32.2646154,40.8480237 32.3438107,40.7764497 32.4047811,40.7764497 C32.547929,40.7764497 32.6441893,40.808426 32.6927337,40.8703905 C32.7394556,40.9341775 32.7638107,41.0279527 32.7638107,41.1528757 C32.7638107,41.2256095 32.7613254,41.2980118 32.7553609,41.3700828 C32.7492308,41.4414911 32.7427692,41.5102485 32.7371361,41.5770178" id="Fill-19" fill="#1A1918" sketch:type="MSShapeGroup"></path>
            <path d="M40.1172071,41.1220592 C40.1172071,41.1568521 40.0032189,41.1742485 39.7752426,41.1742485 C39.5593609,41.1742485 39.307858,41.1694438 39.020071,41.1568521 C38.7326154,41.1452544 38.4993373,41.1334911 38.3190769,41.1220592 C37.7247811,41.1220592 37.0910533,41.1936331 36.4129231,41.3367811 C35.8736331,41.4512663 35.4518107,41.5770178 35.1456331,41.7143669 C35.1456331,41.7571124 35.1380118,41.859503 35.123432,42.0245207 C35.1076923,42.1890414 35.1012308,42.3050178 35.1012308,42.3709586 L35.1012308,43.2878343 C35.3413018,43.2404497 35.9849704,43.1426982 37.0335621,42.9962367 C38.0821538,42.8491124 38.6958343,42.7755503 38.8762604,42.7755503 C38.9060828,42.7755503 38.948497,42.7825089 39.0031716,42.7979172 C39.0560237,42.8123314 39.0831953,42.8297278 39.0831953,42.8471243 C39.0831953,42.9788402 38.7654201,43.116355 38.1306982,43.2606627 C37.8364497,43.3266036 37.4830533,43.3951953 37.0695148,43.4669349 L35.0381065,43.8541302 L34.8583432,46.119645 C34.983929,46.0836923 35.2337751,46.0556923 35.6085444,46.0334911 C35.9833136,46.0132781 36.4069586,46.0023432 36.8808047,46.0023432 C37.2938462,46.0023432 37.688,46.0295148 38.0627692,46.0828639 C38.4375385,46.1368757 38.6242604,46.2086154 38.6242604,46.2994083 C38.6242604,46.3945089 38.3966154,46.4465325 37.9414911,46.4526627 C37.4855385,46.4582959 37.1536805,46.4611124 36.9445917,46.4611124 C36.5242604,46.4611124 36.1526391,46.4998817 35.8292308,46.5775858 C35.7750533,46.5900118 35.5532071,46.6531361 35.164355,46.7664615 C35.0858225,46.7913136 34.967858,46.8386982 34.8084734,46.9106036 C34.6500828,46.9823432 34.5336095,47.0181302 34.4633609,47.0181302 C34.3904615,47.0181302 34.3190533,46.9849941 34.2474793,46.9192189 C34.1747456,46.8532781 34.1391243,46.771929 34.1391243,46.6769941 C34.1391243,46.5986272 34.1512189,46.5358343 34.1747456,46.4886154 C34.2231243,46.4158817 34.2618935,46.3540828 34.2918817,46.2994083 C34.3516923,45.7710533 34.4002367,45.2983669 34.435858,44.8791953 C34.4709822,44.4600237 34.4900355,44.1505325 34.4900355,43.9527101 C34.4176331,43.9527101 34.3621302,43.9109586 34.3226982,43.8271243 C34.2837633,43.743787 34.2643787,43.6563077 34.2643787,43.5666746 C34.2643787,43.4162367 34.3606391,43.3330651 34.5529941,43.3140118 C34.5579645,43.2788876 34.5611124,43.2286864 34.5611124,43.1620828 C34.5611124,43.1143669 34.5579645,43.0302012 34.5529941,42.9100828 C34.5473609,42.7909586 34.5433846,42.6943669 34.5433846,42.6227929 C34.5433846,42.4125444 34.5327811,42.1966627 34.5117396,41.9748166 C34.4911953,41.7531361 34.4737988,41.555645 34.4633609,41.3813491 C34.4633609,41.183858 34.5829822,41.0854438 34.8222249,41.0854438 C34.9179882,41.0854438 34.9976805,41.0902485 35.0608047,41.0986982 C35.123432,41.1083077 35.1699882,41.1266982 35.1998107,41.1568521 C35.6551006,41.0493254 36.0512426,40.9591953 36.3859172,40.8876213 C37.0570888,40.7433136 37.5428639,40.6719053 37.8420828,40.6719053 C38.2862722,40.6719053 38.7173728,40.6989112 39.1373728,40.7530888 C39.7909822,40.836426 40.1172071,40.9591953 40.1172071,41.1220592" id="Fill-20" fill="#1A1918" sketch:type="MSShapeGroup"></path>
            <path d="M45.8195976,41.0257988 C45.6570651,41.6136331 45.5127574,42.167503 45.3878343,42.6887337 C45.2435266,43.2886627 45.1707929,43.7679763 45.1707929,44.1270059 C45.1707929,44.4156213 45.1817278,44.7632189 45.2027692,45.1707929 C45.224142,45.5773728 45.2463432,46.0091361 45.2705325,46.464426 L45.2705325,46.644355 C45.2705325,46.728355 45.2665562,46.779716 45.2609231,46.7974438 C45.2378935,46.8746509 45.1679763,46.9142485 45.0548166,46.9142485 C44.9173018,46.9142485 44.8283314,46.7392899 44.7895621,46.3888757 C44.7507929,46.0382959 44.7236213,45.7828166 44.7083787,45.623929 C44.6937988,45.4650414 44.6772308,45.2597633 44.6598343,45.0082604 C44.6411124,44.7572544 44.6326627,44.5559527 44.6326627,44.4060118 C44.3440473,44.4835503 44.0489704,44.5425325 43.7457751,44.580142 C43.4437396,44.6197396 43.0649941,44.6391243 42.6102012,44.6391243 C42.2973964,44.6391243 42.0417515,44.6343195 41.8406154,44.6217278 C41.6399763,44.6099645 41.4976568,44.5829586 41.4136568,44.5413728 C41.4136568,44.6015148 41.3833373,44.9153136 41.324355,45.4845917 C41.2645444,46.0537041 41.2345562,46.419858 41.2345562,46.5812308 C41.2345562,46.6655621 41.2090414,46.7421065 41.1578462,46.8106982 C41.1068166,46.8794556 41.0388876,46.9142485 40.9555503,46.9142485 C40.8954083,46.9142485 40.8508402,46.8496331 40.8210178,46.7218935 C40.7910296,46.5921657 40.7752899,46.4293018 40.7752899,46.2318107 C40.7752899,46.0149349 40.7890414,45.6752899 40.8160473,45.2103905 C40.8432189,44.7466509 40.8569704,44.504426 40.8569704,44.4871953 C40.7724734,44.4871953 40.6932781,44.4794083 40.6177278,44.464 C40.544,44.4494201 40.4850178,44.4426272 40.443432,44.4426272 C40.3589349,44.4426272 40.2865325,44.411645 40.2275503,44.352497 C40.1672426,44.2926864 40.1374201,44.223929 40.1374201,44.1455621 C40.1374201,44.0610651 40.1935858,43.9956213 40.308071,43.9470769 C40.4639763,43.8821302 40.6795266,43.848497 40.9555503,43.848497 C41.0271243,43.5910296 41.0986982,43.2500592 41.1715976,42.8240947 C41.2729941,42.2190296 41.324355,41.6823905 41.324355,41.2146746 C41.324355,41.1492308 41.3545089,41.0610888 41.4136568,40.9494201 C41.4734675,40.8390769 41.5337751,40.7830769 41.5935858,40.7830769 C41.7128757,40.7830769 41.792071,40.8266509 41.8268639,40.9139645 C41.8628166,41.0009467 41.8810414,41.127858 41.8810414,41.2950296 L41.8810414,41.5652544 C41.8810414,41.7940592 41.8268639,42.2216805 41.7196686,42.8511006 C41.6477633,43.2828639 41.5790059,43.6486864 41.5130651,43.9470769 C41.8240473,44.0012544 42.0329704,44.0358817 42.1368521,44.051787 C42.2432189,44.0658698 42.4243077,44.0728284 42.6809467,44.0728284 C42.7651124,44.0728284 42.9392426,44.0787929 43.2025089,44.0874083 C43.4661065,44.096355 43.6846391,44.1038107 43.8589349,44.1096095 C44.1823432,44.1096095 44.4369941,44.088568 44.6230533,44.0469822 C44.7973491,42.8608757 44.8901302,42.2392426 44.9020592,42.1860592 C45.0944142,41.2208047 45.3066509,40.7385089 45.5397633,40.7385089 C45.6123314,40.7385089 45.6764497,40.7676686 45.7334438,40.8238343 C45.7904379,40.8808284 45.8195976,40.9487574 45.8195976,41.0257988" id="Fill-21" fill="#1A1918" sketch:type="MSShapeGroup"></path>
            <path d="M52.3217278,46.8454911 C52.3217278,46.9830059 52.2861065,47.0529231 52.2140355,47.0529231 C52.1300355,47.0529231 52.0314556,46.9745562 51.9169704,46.8184852 C51.7738225,46.627787 51.5851124,46.3131598 51.3513373,45.8757633 C51.1182249,45.4378698 50.8869349,44.963858 50.6594556,44.4543905 C50.4551716,44.484213 50.0929941,44.5511479 49.5711006,44.651716 C49.2476923,44.7176568 48.891645,44.7903905 48.5022959,44.8675976 C48.4537515,44.8805207 48.4237633,44.8861538 48.412497,44.8861538 C48.352355,44.8861538 48.2592426,44.8260118 48.1336568,44.7058935 L47.684497,45.7225089 C47.6172308,45.8417988 47.5486391,45.9953846 47.4770651,46.1806154 C47.4043314,46.3665089 47.3695385,46.5010414 47.3695385,46.5843787 C47.3695385,46.6511479 47.3367337,46.7061538 47.2737751,46.7505562 C47.2118107,46.7961183 47.1500118,46.8184852 47.0898698,46.8184852 C47.0191243,46.8184852 46.9563314,46.779716 46.9018225,46.7025089 C46.847645,46.6239763 46.8206391,46.5436213 46.8206391,46.4594556 C46.8206391,46.339503 46.9349586,46.0071479 47.1632663,45.4658698 C47.3897515,44.9229349 47.6145799,44.3884497 47.8372544,43.8619172 C47.9147929,43.675858 48.1306746,43.1655621 48.484071,42.3333491 C48.7229822,41.7763314 48.8672899,41.4192899 48.9145089,41.2632189 C48.9512899,41.0591006 48.9874083,40.8626036 49.0233609,40.6705799 C49.0588166,40.4782249 49.1247574,40.3824615 49.2205207,40.3824615 C49.3164497,40.3824615 49.4107219,40.4212308 49.4995266,40.4984379 C49.6252781,40.6067929 49.7182249,40.7570651 49.7783669,40.9487574 C49.9341065,41.236213 50.1213254,41.6601893 50.3400237,42.2208521 C50.5587219,42.7811834 50.7794083,43.3496331 51.0012544,43.923716 L51.4590296,43.923716 C51.5435266,43.923716 51.6157633,43.9392899 51.6788876,43.9692781 C51.7428402,43.9992663 51.7738225,44.0469822 51.7738225,44.1135858 C51.7738225,44.1483787 51.7592426,44.1753846 51.7290888,44.1939408 C51.6333254,44.223929 51.5663905,44.2414911 51.5317633,44.248284 L51.1889704,44.3283077 C51.2131598,44.3884497 51.3513373,44.688497 51.6033373,45.227787 C52.0826509,46.2520237 52.3217278,46.7913136 52.3217278,46.8454911 L52.3217278,46.8454911 Z M50.4975858,44.0234556 C50.2749112,43.5383432 50.1257988,43.2149349 50.048426,43.0517396 C49.8325444,42.5972781 49.6156686,42.1383432 49.3996213,41.6767574 C49.2331124,42.0843314 49.0685917,42.4889231 48.9062249,42.8898698 C48.8401183,43.0350059 48.7577751,43.2363077 48.6590296,43.4979172 C48.5604497,43.7583669 48.459716,44.0234556 48.3579882,44.2935148 C48.5438817,44.2626982 48.911858,44.2131598 49.463574,44.1444024 C50.0146272,44.0748166 50.3594083,44.0340592 50.4975858,44.0234556 L50.4975858,44.0234556 Z" id="Fill-22" fill="#1A1918" sketch:type="MSShapeGroup"></path>
        </g>
    </g>
</svg>