<?xml version="1.0" encoding="UTF-8" standalone="no"?>
<svg width="32px" height="32px" viewBox="0 0 32 32" version="1.1" xmlns="http://www.w3.org/2000/svg" xmlns:xlink="http://www.w3.org/1999/xlink" xmlns:sketch="http://www.bohemiancoding.com/sketch/ns">
    <!-- Generator: Sketch 3.4 (15575) - http://www.bohemiancoding.com/sketch -->
    <title>Shape</title>
    <desc>Created with Sketch.</desc>
    <defs></defs>
    <g id="Page-1" stroke="none" stroke-width="1" fill="none" fill-rule="evenodd" sketch:type="MSPage">
        <path d="M3.29246899,11.0894299 L0,7.80017411 C1.50110494,4.31688207 4.28366705,1.52039108 7.75517311,0 L7.76267327,0 L11.050961,3.28400188 C12.8735016,2.4964843 14.8814036,2.05611732 16.9943079,2.05611732 C25.2616353,2.05611732 31.9646421,8.76019554 31.9646421,17.0275229 C31.9646421,25.2969932 25.2605639,32 16.9943079,32 C8.72483761,32 2.0229023,25.2991361 2.0229023,17.0275229 C2.0229023,14.9081899 2.4964843,12.9195741 3.29150204,11.0938191 L3.29235984,11.0925324 C3.2918243,11.0909274 3.29214661,11.0901786 3.29246899,11.0894299 Z M3.29246899,11.0894299 L3.29364495,11.0906047 L3.29235984,11.0925324 L15.4685596,23.2462332 C16.968593,19.7629411 19.7532981,16.9664501 23.2237327,15.4449876 L23.2258756,15.4449876 L11.0531039,3.29043059 L11.0477466,3.28935914 C7.57484389,4.81049481 4.79273113,7.60504017 3.29246899,11.0894299 Z M24.095895,19.596866 C22.0794214,20.4797429 20.4636711,22.1072792 19.5904373,24.1280386 L25.2755642,25.303422 L24.095895,19.596866 Z" id="Shape" fill="#FFFFFF" sketch:type="MSShapeGroup"></path>
    </g>
</svg>