<?xml version="1.0" encoding="UTF-8" standalone="no"?>
<svg width="273px" height="125px" viewBox="0 0 273 125" version="1.1" xmlns="http://www.w3.org/2000/svg" xmlns:xlink="http://www.w3.org/1999/xlink" xmlns:sketch="http://www.bohemiancoding.com/sketch/ns">
    <!-- Generator: Sketch 3.4.2 (15855) - http://www.bohemiancoding.com/sketch -->
    <title>Group</title>
    <desc>Created with Sketch.</desc>
    <defs></defs>
    <g id="Page-1" stroke="none" stroke-width="1" fill="none" fill-rule="evenodd" sketch:type="MSPage">
        <g id="Group" sketch:type="MSLayerGroup" fill="#FFFFFF">
            <path d="M121.193408,60.9273239 L121.193408,92.7267606 L113.676225,92.7267606 L113.676225,54.2214085 L137.904958,54.2214085 L137.904958,60.9273239 L121.193408,60.9273239 L121.193408,60.9273239 Z" id="Fill-8" sketch:type="MSShapeGroup"></path>
            <path d="M165.541127,92.7266479 L165.541127,68.0117183 L150.560845,92.7266479 L143.855493,92.7266479 L143.855493,54.2212958 L151.372113,54.2212958 L151.372113,78.8821408 L166.352394,54.2212958 L173.058873,54.2212958 L173.058873,92.7266479 L165.541127,92.7266479 L165.541127,92.7266479 Z" id="Fill-10" sketch:type="MSShapeGroup"></path>
            <path d="M189.718085,60.9273239 L189.718085,92.7267606 L182.200338,92.7267606 L182.200338,54.2214085 L206.42907,54.2214085 L206.42907,60.9273239 L189.718085,60.9273239 L189.718085,60.9273239 Z" id="Fill-12" sketch:type="MSShapeGroup"></path>
            <path d="M212.378761,92.7266479 L212.378761,54.2212958 L237.742704,54.2212958 L237.742704,60.9272113 L219.896507,60.9272113 L219.896507,69.9587606 L235.092,69.9587606 L235.092,76.6646761 L219.896507,76.6646761 L219.896507,86.0207324 L237.742704,86.0207324 L237.742704,92.7266479 L212.378761,92.7266479 L212.378761,92.7266479 Z" id="Fill-14" sketch:type="MSShapeGroup"></path>
            <path d="M259.646592,71.4727887 C263.000394,71.4727887 265.217859,69.4181408 265.217859,66.2271549 C265.217859,63.036169 263.000394,60.9274366 259.646592,60.9274366 L252.616169,60.9274366 L252.616169,71.4727887 L259.646592,71.4727887 L259.646592,71.4727887 Z M260.02631,54.2209577 C267.434761,54.2209577 272.733915,59.1967324 272.733915,66.2271549 C272.733915,73.2575775 267.488845,78.2327887 260.02631,78.2327887 L252.616169,78.2327887 L252.616169,92.7268732 L245.100113,92.7268732 L245.100113,54.2209577 L260.02631,54.2209577 L260.02631,54.2209577 Z" id="Fill-16" sketch:type="MSShapeGroup"></path>
            <path d="M46.6101695,0 C22.2161017,0 0,34.8389831 0,73.0932203 C0,88.9682203 5.00847458,102.366525 14.4830508,111.841102 C22.9682203,120.326271 34.3771186,125 46.6101695,125 C58.8432203,125 70.2521186,120.326271 78.7372881,111.841102 C88.2118644,102.366525 93.220339,88.9682203 93.220339,73.0932203 C93.220339,34.8389831 71.0042373,0 46.6101695,0 L46.6101695,0 Z M46.6101695,120.762712 C25.4237288,120.762712 4.23728814,104.872881 4.23728814,73.0932203 C4.23728814,36.0169492 25.4237288,4.23728814 46.6101695,4.23728814 C67.7966102,4.23728814 88.9830508,36.0169492 88.9830508,73.0932203 C88.9830508,104.872881 67.7966102,120.762712 46.6101695,120.762712 L46.6101695,120.762712 Z" id="Shape" sketch:type="MSShapeGroup"></path>
            <path d="M44.7563559,48.6949153 L46.6101695,47.625 L46.6101695,36.0169492 C35.2923729,36.0169492 24.6525424,40.4237288 16.6483051,48.4258475 L27.1059322,58.8855932 L44.7563559,48.6949153 L44.7563559,48.6949153 Z" id="Shape" sketch:type="MSShapeGroup"></path>
            <path d="M69.5444915,91.6313559 L69.5444915,65.1483051 L46.6101695,51.9067797 L23.6758475,65.1483051 L23.6758475,91.6313559 L46.6101695,104.872881 L69.5444915,91.6313559 L69.5444915,91.6313559 Z M41.3135593,78.3898305 C41.3135593,71.0762712 43.684322,65.1483051 46.6101695,65.1483051 C49.5360169,65.1483051 51.9067797,71.0762712 51.9067797,78.3898305 C51.9067797,85.7033898 49.5360169,91.6313559 46.6101695,91.6313559 C43.684322,91.6313559 41.3135593,85.7033898 41.3135593,78.3898305 L41.3135593,78.3898305 Z" id="Shape" sketch:type="MSShapeGroup"></path>
            <path d="M46.6101695,109.110169 L46.6101695,114.40678 C56.2309322,114.40678 65.2754237,110.658898 72.0783898,103.858051 L68.3326271,100.112288 C62.529661,105.915254 54.815678,109.110169 46.6101695,109.110169 L46.6101695,109.110169 Z" id="Shape" sketch:type="MSShapeGroup"></path>
        </g>
    </g>
</svg>