<?xml version="1.0" encoding="UTF-8" standalone="no"?>
<svg width="44px" height="59px" viewBox="0 0 44 59" version="1.1" xmlns="http://www.w3.org/2000/svg" xmlns:xlink="http://www.w3.org/1999/xlink" xmlns:sketch="http://www.bohemiancoding.com/sketch/ns">
    <!-- Generator: Sketch 3.4.2 (15855) - http://www.bohemiancoding.com/sketch -->
    <title>Group</title>
    <desc>Created with Sketch.</desc>
    <defs></defs>
    <g id="Page-1" stroke="none" stroke-width="1" fill="none" fill-rule="evenodd" sketch:type="MSPage">
        <g id="Group" sketch:type="MSLayerGroup" fill="#FFFFFF">
            <path d="M22,0 C10.486,0 0,16.444 0,34.5 C0,41.993 2.364,48.317 6.836,52.789 C10.841,56.794 16.226,59 22,59 C27.774,59 33.159,56.794 37.164,52.789 C41.636,48.317 44,41.993 44,34.5 C44,16.444 33.514,0 22,0 L22,0 Z M22,57 C12,57 2,49.5 2,34.5 C2,17 12,2 22,2 C32,2 42,17 42,34.5 C42,49.5 32,57 22,57 L22,57 Z" id="Shape" sketch:type="MSShapeGroup"></path>
            <path d="M21.125,22.984 L22,22.479 L22,17 C16.658,17 11.636,19.08 7.858,22.857 L12.794,27.794 L21.125,22.984 L21.125,22.984 Z" id="Shape" sketch:type="MSShapeGroup"></path>
            <path d="M32.825,43.25 L32.825,30.75 L22,24.5 L11.175,30.75 L11.175,43.25 L22,49.5 L32.825,43.25 L32.825,43.25 Z M19.5,37 C19.5,33.548 20.619,30.75 22,30.75 C23.381,30.75 24.5,33.548 24.5,37 C24.5,40.452 23.381,43.25 22,43.25 C20.619,43.25 19.5,40.452 19.5,37 L19.5,37 Z" id="Shape" sketch:type="MSShapeGroup"></path>
            <path d="M22,51.5 L22,54 C26.541,54 30.81,52.231 34.021,49.021 L32.253,47.253 C29.514,49.992 25.873,51.5 22,51.5 L22,51.5 Z" id="Shape" sketch:type="MSShapeGroup"></path>
        </g>
    </g>
</svg>