<svg xmlns="http://www.w3.org/2000/svg" xmlns:xlink="http://www.w3.org/1999/xlink" xmlns:sketch="http://www.bohemiancoding.com/sketch/ns"><defs><path id="a" d="M3.05 7.427c0 .195-.052.378-.143.536L5.76 9.61c.186-.32.53-.534.927-.534.396 0 .74.215.926.535l2.854-1.65c-.092-.157-.145-.34-.145-.535s.053-.377.145-.534l-.76-.438c-.167.286-.263.618-.263.973 0 .167.023.328.062.482l-1.46.844c-.35-.342-.83-.554-1.36-.554-.528 0-1.007.212-1.358.555l-1.46-.844c.038-.153.062-.314.062-.48 0-.167-.024-.327-.063-.483l1.46-.843c.35.344.83.556 1.36.556.72 0 1.348-.394 1.685-.976l-.76-.44c-.185.32-.53.537-.925.537-.396 0-.74-.216-.926-.536L2.908 6.893c.09.157.144.34.144.535"/><path d="M9.707 2.96l.76-.44c.184.322.53.538.925.538.397 0 .743-.216.928-.537l.76.44c-.253.434-.667.763-1.16.903V5.55c.492.138.906.467 1.158.9l-.76.44c-.185-.32-.53-.536-.926-.536-.395 0-.74.216-.925.537l-.76-.438c.252-.435.665-.764 1.158-.902V3.863c-.493-.14-.907-.47-1.158-.903zm4.706.77c-.167.288-.263.62-.263.976 0 .354.096.687.262.973l.76-.44c-.09-.157-.144-.34-.144-.534 0-.196.053-.378.145-.536l-.76-.44zm-6.656.976c0 .195-.053.378-.144.535l.76.44c.165-.287.262-.62.262-.974 0-.355-.097-.687-.263-.975l-.76.44c.092.16.145.34.145.536z" id="b"/><path d="M14.15 10.143c0-.354.096-.686.262-.973l.76.44c-.09.157-.144.338-.144.533 0 .196.053.38.145.537l-.76.44c-.166-.288-.263-.62-.263-.977zm-2.758-1.646c-.395 0-.74-.216-.925-.536L7.613 9.61c.09.16.144.34.144.536 0 .195-.053.378-.144.535l.76.44c.166-.286.262-.618.262-.974 0-.166-.022-.326-.062-.48l1.46-.845c.23.225.515.392.832.48v3.26l.527.306.528-.306V9.3c.493-.137.906-.466 1.158-.9l-.76-.44c-.185.32-.53.537-.926.537z" id="c"/><path id="d" d="M.295 11.893l.76.44c.184-.322.53-.54.926-.54.397 0 .743.218.928.54l.76-.44c-.253-.435-.667-.764-1.16-.904V9.302c.318-.09.604-.257.834-.482l1.46.845c-.04.154-.064.315-.064.48 0 .357.097.69.264.976l.76-.44c-.092-.156-.145-.338-.145-.534 0-.194.053-.377.144-.535L2.908 7.964c-.185.32-.53.535-.926.535-.395 0-.74-.216-.925-.535l-.76.438c.252.435.666.764 1.16.903v1.686c-.495.14-.91.47-1.16.903"/><path d="M3.93 12.866c0 .355-.097.688-.264.975l-.76-.438c.092-.158.145-.34.145-.536 0-.195-.052-.377-.142-.534l.76-.44c.165.288.262.62.262.974zm2.757 1.648c.396 0 .74.216.926.537l3.78-2.184-.528-.306-2.82 1.63c-.35-.343-.83-.555-1.358-.555-.72 0-1.35.394-1.687.977l.76.44c.185-.32.53-.538.927-.538zm0-2.417c.72 0 1.348-.394 1.685-.977l-.76-.44c-.184.322-.53.537-.925.537-.396 0-.74-.215-.926-.536l-.758.44c.337.583.965.977 1.685.977z" id="e"/><path id="f" d="M21.332 10.99V9.3c.493-.138.906-.467 1.158-.902l-.76-.44c-.184.322-.53.54-.926.54s-.74-.218-.926-.54l-2.853 1.65c.09.158.143.34.143.535 0 .196-.053.38-.144.537l.76.44c.166-.29.263-.62.263-.977 0-.166-.023-.327-.062-.48l1.46-.844c.228.224.514.392.832.48v1.69c-.493.137-.906.466-1.158.9l.758.44c.185-.32.53-.537.926-.537s.74.216.926.536l.76-.44c-.252-.434-.666-.763-1.158-.9"/><path d="M19.878 13.4l-.76.44c-.166-.288-.263-.62-.263-.976 0-.355.097-.687.264-.974l.758.44c-.09.157-.144.34-.144.534 0 .196.053.378.144.536zm-5.14.788L11.92 12.56l-.528.306 3.78 2.184c.184-.32.53-.538.926-.538.397 0 .742.217.927.538l.76-.44c-.253-.434-.666-.763-1.16-.903V12.02c.493-.14.906-.468 1.158-.9l-.76-.44c-.185.32-.53.534-.925.534s-.74-.215-.925-.534l-.76.44c.253.432.666.76 1.158.9v1.687c-.316.09-.6.257-.83.48z" id="g"/><path d="M5.76 16.122l-2.852 1.65c-.184-.322-.53-.54-.927-.54-.396 0-.742.218-.927.54l-.76-.44c.338-.583.967-.978 1.688-.978.53 0 1.01.213 1.36.556l1.46-.844c-.04-.154-.062-.315-.062-.48 0-.355.097-.687.262-.974l.76.44c-.09.156-.143.338-.143.534 0 .195.053.378.144.536zm-3.78-1.306c.72 0 1.348-.393 1.686-.975l-.76-.438c-.185.32-.53.535-.925.535-.394 0-.74-.215-.924-.535l-.76.44c.338.58.966.974 1.685.974z" id="h"/><path d="M22.49 17.33l-.76.44c-.185-.32-.53-.537-.926-.537s-.74.216-.926.537l-2.854-1.65c.09-.158.144-.34.144-.536 0-.195-.052-.377-.143-.534l.76-.44c.165.287.262.62.262.974 0 .165-.023.326-.062.48l1.46.845c.353-.343.83-.556 1.36-.556.72 0 1.347.394 1.685.976zm-1.686-2.516c.72 0 1.348-.393 1.686-.975l-.76-.44c-.185.32-.53.535-.926.535s-.74-.216-.926-.535l-.76.44c.338.58.967.974 1.686.974z" id="i"/><path id="j" d="M11.393 16.356c-.528 0-1.007.212-1.36.554l-1.46-.844c.04-.154.062-.315.062-.48 0-.167-.022-.328-.062-.482l2.82-1.63 2.82 1.628c-.04.154-.063.315-.063.482 0 .356.097.688.264.975l.76-.44c-.093-.158-.146-.34-.146-.536 0-.195.053-.377.144-.534l-3.78-2.184-3.78 2.185c.092.158.145.34.145.536 0 .195-.053.378-.145.536l2.855 1.65c.185-.32.53-.537.926-.537s.74.215.925.536l.76-.44c-.338-.58-.966-.974-1.685-.974"/><path d="M17.784 20.05l-.76.44c-.184-.32-.53-.537-.925-.537-.398 0-.744.217-.928.537l-.76-.44c.337-.582.966-.976 1.687-.976.72 0 1.347.393 1.684.977zm1.95-1.745c0-.196.053-.378.144-.535l-2.854-1.65c-.186.32-.53.535-.926.535-.395 0-.74-.216-.925-.535l-.76.44c.338.58.966.974 1.685.974.53 0 1.01-.212 1.36-.556l1.46.844c-.04.155-.063.316-.063.483 0 .355.097.687.264.974l.758-.44c-.09-.158-.144-.34-.144-.535zm-7.27 0c0 .197-.054.38-.146.537l.76.44c.167-.288.263-.62.263-.976 0-.355-.095-.687-.262-.975l-.76.44c.092.158.145.34.145.536z" id="k"/><path id="l" d="M6.687 19.074c-.72 0-1.35.394-1.687.978l.76.44c.184-.322.53-.54.927-.54s.742.218.927.54l.76-.44c-.338-.584-.967-.978-1.687-.978"/><path id="m" d="M3.665 19.28c.167-.287.265-.62.265-.975 0-.167-.024-.327-.063-.48l1.46-.845c.352.344.83.556 1.36.556.53 0 1.008-.212 1.36-.556l1.46.844c-.04.155-.063.315-.063.482 0 .356.097.688.263.975l.76-.438c-.09-.158-.145-.34-.145-.536 0-.195.054-.377.145-.535l-2.855-1.648c-.185.32-.53.534-.925.534-.396 0-.74-.215-.926-.534l-2.852 1.65c.09.157.143.34.143.533 0 .195-.053.38-.144.537l.76.44"/><path d="M14.412 5.68l.76-.44c.185.32.53.537.927.537.395 0 .74-.216.925-.537l2.854 1.65c-.093.157-.146.34-.146.535 0 .196.053.377.144.534l-2.853 1.65c-.185-.322-.53-.538-.927-.538-.396 0-.742.216-.927.537l-.758-.44c.337-.583.966-.977 1.686-.977.53 0 1.01.212 1.36.555l1.46-.843c-.04-.154-.063-.314-.063-.48 0-.166.024-.328.063-.482l-1.46-.843c-.35.344-.83.556-1.36.556-.72 0-1.348-.394-1.686-.977zm-1.95 1.745c0 .196-.052.378-.144.536l.76.44c.167-.287.263-.62.263-.975s-.095-.687-.262-.974l-.76.44c.092.158.144.34.144.535z" id="n"/><path d="M5 3.732c.338-.583.967-.977 1.687-.977.72 0 1.348.394 1.685.976l-.76.44c-.185-.32-.53-.535-.925-.535-.396 0-.74.216-.926.536L5 3.733zm4.708-2.72c-.167.287-.265.62-.265.975 0 .354.097.686.264.973l.76-.44c-.092-.157-.145-.338-.145-.533 0-.196.054-.38.145-.536l-.76-.44z" id="o"/><path id="p" d="M1.055 6.892c.185-.32.53-.536.926-.536.397 0 .742.216.927.536l2.854-1.65c-.09-.158-.143-.34-.143-.536 0-.195.053-.377.144-.535L5 3.733c-.165.287-.262.62-.262.974 0 .166.023.325.062.48l-1.462.844c-.35-.342-.83-.554-1.357-.554-.72 0-1.347.394-1.685.977l.76.44"/><path id="q" d="M20.804 5.475c-.528 0-1.007.21-1.358.555l-1.46-.844c.038-.155.06-.314.06-.48 0-.356-.096-.688-.263-.975l-.76.44c.092.157.145.34.145.536 0 .195-.052.377-.143.534l2.854 1.65c.184-.32.53-.536.924-.536.396 0 .74.215.925.535l.76-.44c-.34-.582-.967-.975-1.686-.975"/><path d="M17.783 3.73l-.76.44c-.185-.32-.53-.535-.924-.535-.397 0-.742.215-.927.535l-.76-.44c.338-.58.966-.975 1.686-.975.718 0 1.345.394 1.683.976zm-5.32-1.743c0 .194-.053.376-.143.534l.76.44c.165-.287.26-.62.26-.973 0-.356-.096-.69-.263-.976l-.76.44c.092.158.145.34.145.537z" id="r"/><path d="M17.024 21.56c.09-.158.144-.34.144-.536 0-.194-.052-.377-.143-.534l.76-.44c.165.287.262.62.262.974 0 .356-.097.688-.264.976l-.76-.44zm5.466-2.28l-.76-.44c-.185.32-.53.536-.926.536s-.74-.216-.926-.536l-.76.44c.338.58.967.975 1.686.975.72 0 1.348-.394 1.686-.976z" id="s"/><path d="M.297 19.28l.76-.438c.185.32.53.534.924.534.396 0 .74-.215.926-.534l.76.44c-.34.58-.966.973-1.685.973-.718 0-1.345-.392-1.683-.974zm5.32 1.744c0-.194.052-.376.142-.533L5 20.053c-.166.287-.262.618-.262.972 0 .356.097.69.265.977l.76-.44c-.093-.157-.146-.34-.146-.536z" id="t"/><path id="u" d="M.91 18.305c0-.194.053-.376.143-.533l-.76-.44c-.165.287-.26.618-.26.973 0 .356.097.69.264.976l.76-.438c-.093-.158-.146-.34-.146-.537"/></defs><symbol id="icon-facebook" viewBox="0 0 15 32">
    <!-- Generator: Sketch 3.3.3 (12072) - http://www.bohemiancoding.com/sketch -->
    <title>Shape</title>
    <desc>Created with Sketch.</desc>
    
    <g id="Page-1" stroke="none" stroke-width="1" sketch:type="MSPage">
        <path d="M14.6599184,10.2158367 L9.66726531,10.2158367 L9.66726531,6.94138776 C9.66726531,5.71167347 10.4822857,5.42497959 11.0563265,5.42497959 L14.5795918,5.42497959 L14.5795918,0.0189387755 L9.72734694,0 C4.34089796,0 3.11510204,4.032 3.11510204,6.6122449 L3.11510204,10.2158367 L2.66453526e-15,10.2158367 L2.66453526e-15,15.786449 L3.11510204,15.786449 L3.11510204,31.5493878 L9.66726531,31.5493878 L9.66726531,15.786449 L14.0884898,15.786449 L14.6599184,10.2158367 L14.6599184,10.2158367 Z" id="Shape" sketch:type="MSShapeGroup"/>
    </g>
</symbol><symbol id="pic-favorite_border" viewBox="0 0 24 24"><path d="M0 0h24v24H0z" fill="none"/><path d="M16.5 3c-1.74 0-3.41.81-4.5 2.09C10.91 3.81 9.24 3 7.5 3 4.42 3 2 5.42 2 8.5c0 3.78 3.4 6.86 8.55 11.54L12 21.35l1.45-1.32C18.6 15.36 22 12.28 22 8.5 22 5.42 19.58 3 16.5 3zm-4.4 15.55l-.1.1-.1-.1C7.14 14.24 4 11.39 4 8.5 4 6.5 5.5 5 7.5 5c1.54 0 3.04.99 3.57 2.36h1.87C13.46 5.99 14.96 5 16.5 5c2 0 3.5 1.5 3.5 3.5 0 2.89-3.14 5.74-7.9 10.05z"/></symbol><symbol id="icon-instagram" viewBox="0 0 32 32">
    <!-- Generator: Sketch 3.3.3 (12072) - http://www.bohemiancoding.com/sketch -->
    <title>Shape</title>
    <desc>Created with Sketch.</desc>
    
    <g id="Page-1" stroke="none" stroke-width="1" sketch:type="MSPage">
        <path d="M25.5968,0 L6.13184,0 C2.75072,0 0,2.75008 0,6.1312 L0,12.608 L0,25.5968 C0,28.97792 2.75072,31.728 6.13184,31.728 L25.59744,31.728 C28.97856,31.728 31.72864,28.97792 31.72864,25.5968 L31.72864,12.60736 L31.72864,6.13056 C31.728,2.74944 28.97792,0 25.5968,0 L25.5968,0 Z M27.35552,3.65632 L28.05696,3.65376 L28.05696,4.352 L28.05696,9.03168 L22.69696,9.04896 L22.6784,3.67168 L27.35552,3.65632 L27.35552,3.65632 Z M11.33568,12.60736 C12.352,11.20128 14.00064,10.27904 15.86432,10.27904 C17.728,10.27904 19.37664,11.20128 20.39168,12.60736 C21.0528,13.52512 21.44896,14.64768 21.44896,15.86368 C21.44896,18.94272 18.94144,21.44768 15.86368,21.44768 C12.784,21.44768 10.27904,18.94272 10.27904,15.86368 C10.27968,14.64768 10.67456,13.52512 11.33568,12.60736 L11.33568,12.60736 Z M28.6368,25.59616 C28.6368,27.2736 27.27296,28.63616 25.5968,28.63616 L6.13184,28.63616 C4.45504,28.63616 3.0912,27.2736 3.0912,25.59616 L3.0912,12.60736 L7.8272,12.60736 C7.41824,13.61344 7.18848,14.71232 7.18848,15.86368 C7.18848,20.6464 11.07968,24.54016 15.86432,24.54016 C20.64832,24.54016 24.53952,20.6464 24.53952,15.86368 C24.53952,14.71232 24.30848,13.61344 23.89952,12.60736 L28.6368,12.60736 L28.6368,25.59616 L28.6368,25.59616 Z" id="Shape" sketch:type="MSShapeGroup"/>
    </g>
</symbol><symbol id="icon-lj" viewBox="0 0 32 32">
    <!-- Generator: Sketch 3.4 (15575) - http://www.bohemiancoding.com/sketch -->
    <title>Shape</title>
    <desc>Created with Sketch.</desc>
    
    <g id="Page-1" stroke="none" stroke-width="1" sketch:type="MSPage">
        <path d="M3.29246899,11.0894299 L0,7.80017411 C1.50110494,4.31688207 4.28366705,1.52039108 7.75517311,0 L7.76267327,0 L11.050961,3.28400188 C12.8735016,2.4964843 14.8814036,2.05611732 16.9943079,2.05611732 C25.2616353,2.05611732 31.9646421,8.76019554 31.9646421,17.0275229 C31.9646421,25.2969932 25.2605639,32 16.9943079,32 C8.72483761,32 2.0229023,25.2991361 2.0229023,17.0275229 C2.0229023,14.9081899 2.4964843,12.9195741 3.29150204,11.0938191 L3.29235984,11.0925324 C3.2918243,11.0909274 3.29214661,11.0901786 3.29246899,11.0894299 Z M3.29246899,11.0894299 L3.29364495,11.0906047 L3.29235984,11.0925324 L15.4685596,23.2462332 C16.968593,19.7629411 19.7532981,16.9664501 23.2237327,15.4449876 L23.2258756,15.4449876 L11.0531039,3.29043059 L11.0477466,3.28935914 C7.57484389,4.81049481 4.79273113,7.60504017 3.29246899,11.0894299 Z M24.095895,19.596866 C22.0794214,20.4797429 20.4636711,22.1072792 19.5904373,24.1280386 L25.2755642,25.303422 L24.095895,19.596866 Z" id="Shape" sketch:type="MSShapeGroup"/>
    </g>
</symbol><symbol id="pic-logo" viewBox="0 0 280 85"><title>Oval 1 + &#x422;&#x435;&#x43F;&#x43B;&#x438;&#x446;&#x430; &#x43F;&#x440;&#x435;&#x434;&#x443;&#x43F;&#x440;&#x435;&#x436;&#x434;&#x430;&#x435; + &#x421;&#x41C;&#x415;&#x41D;&#x418; &#x41B;&#x41E;&#x413;&#x41E;</title><g fill="#FFF" fill-rule="evenodd"><path d="M23.15 43.02c-1.783-.504-3.09-2.144-3.09-4.09 0-.343.04-.677.118-.997l-2.962-1.71c-.763.73-1.797 1.177-2.936 1.177-1.18 0-2.25-.482-3.02-1.26l-2.907 1.68c.096.353.147.726.147 1.11 0 2.347-1.903 4.25-4.25 4.25S0 41.277 0 38.93s1.903-4.25 4.25-4.25c1.102 0 2.107.42 2.862 1.108l3.013-1.74c-.062-.29-.095-.59-.095-.898 0-2.347 1.903-4.25 4.25-4.25 1.132 0 2.16.443 2.923 1.165l5.917-3.416v-6.93c-.67-.194-1.27-.55-1.76-1.02l-2.96 1.848c.085.334.13.683.13 1.042 0 2.347-1.903 4.25-4.25 4.25s-4.25-1.903-4.25-4.25c0-.34.04-.67.115-.985l-3.082-1.78c-.462.41-1.014.72-1.623.896v3.57c1.768.514 3.06 2.146 3.06 4.08 0 2.347-1.903 4.25-4.25 4.25S0 29.717 0 27.37c0-1.934 1.292-3.566 3.06-4.08v-3.57C1.292 19.207 0 17.575 0 15.64c0-2.347 1.903-4.25 4.25-4.25 1.19 0 2.264.488 3.035 1.275l2.833-1.77c-.058-.28-.088-.57-.088-.865 0-2.347 1.903-4.25 4.25-4.25s4.25 1.903 4.25 4.25-1.903 4.25-4.25 4.25c-1.19 0-2.268-.49-3.04-1.28l-2.83 1.768c.06.282.09.573.09.872 0 .407-.057.8-.164 1.172l2.987 1.725c.765-.74 1.808-1.197 2.957-1.197 1.128 0 2.153.44 2.914 1.156l2.983-1.863c-.077-.32-.117-.65-.117-.993 0-1.996 1.375-3.67 3.23-4.127V8.377c-1.855-.457-3.23-2.13-3.23-4.127 0-2.347 1.903-4.25 4.25-4.25s4.25 1.903 4.25 4.25c0 1.934-1.292 3.566-3.06 4.08v3.23c1.768.514 3.06 2.146 3.06 4.08 0 1.934-1.292 3.566-3.06 4.08v7.027l5.638 3.255c.543-.553 1.235-.957 2.012-1.15v-3.135c-1.855-.457-3.23-2.13-3.23-4.127 0-2.347 1.903-4.25 4.25-4.25 1.127 0 2.15.438 2.912 1.154l2.95-1.844c-.053-.272-.082-.552-.082-.84 0-.362.045-.713.13-1.048l-3.048-1.76c-.755.688-1.76 1.108-2.862 1.108-2.347 0-4.25-1.903-4.25-4.25s1.903-4.25 4.25-4.25 4.25 1.903 4.25 4.25c0 .384-.05.757-.147 1.11l3.017 1.742c.76-.714 1.784-1.152 2.91-1.152 2.347 0 4.25 1.903 4.25 4.25 0 1.934-1.292 3.566-3.06 4.08v3.23c1.768.514 3.06 2.146 3.06 4.08 0 2.347-1.903 4.25-4.25 4.25s-4.25-1.903-4.25-4.25c0-1.996 1.375-3.67 3.23-4.127v-3.136c-.79-.194-1.49-.61-2.037-1.174l-2.852 1.782c.085.334.13.684.13 1.045 0 1.934-1.292 3.566-3.06 4.08v3.23c1.768.514 3.06 2.146 3.06 4.08 0 .398-.055.784-.157 1.15l2.997 1.73c.764-.73 1.8-1.18 2.94-1.18 2.347 0 4.25 1.903 4.25 4.25s-1.903 4.25-4.25 4.25-4.25-1.903-4.25-4.25c0-.347.042-.685.12-1.008L37 36.15c-.75.672-1.743 1.08-2.83 1.08-2.347 0-4.25-1.903-4.25-4.25 0-.302.03-.596.09-.88l-5.785-3.34-5.82 3.36c.08.33.125.675.125 1.03 0 .35-.042.69-.122 1.014l2.954 1.705c.764-.737 1.803-1.19 2.948-1.19 2.347 0 4.25 1.903 4.25 4.25 0 1.974-1.345 3.633-3.17 4.11v5.568l4.844-2.8c-.094-.35-.144-.718-.144-1.098 0-2.347 1.903-4.25 4.25-4.25s4.25 1.903 4.25 4.25-1.903 4.25-4.25 4.25c-1.158 0-2.21-.463-2.975-1.215l-5.974 3.45V61.36h21.973c.413 0 .747.334.747.746 0 .414-.334.748-.747.748H25.468c.386 2.833 3.075 3.213 7.27 3.556 4.085.335 8.717.715 9.962 5.317.082.3-.095.608-.393.69-.05.012-.1.02-.147.02-.247 0-.473-.165-.54-.416-.94-3.467-4.315-4.073-7.83-4.394.094.106.184.215.268.33.67.906 1.722 1.33 2.835 1.777 1.394.56 2.834 1.14 3.487 2.732.117.286-.02.614-.306.732-.07.028-.142.04-.212.04-.22 0-.43-.13-.518-.348-.474-1.153-1.583-1.6-2.87-2.116-.485-.196-.977-.397-1.45-.64.14.52.25 1.054.354 1.573.188.936.365 1.822.704 2.566.13.282.006.614-.276.743-.075.034-.154.05-.232.05-.213 0-.416-.12-.51-.326-.394-.863-.592-1.855-.784-2.813-.46-2.294-.855-4.275-3.598-4.578l-.02-.004c-1.944-.22-3.756-.607-4.946-1.65.558 1.304 1.386 2.256 2.2 3.186.337.385.675.774.994 1.185l.017.016c.334.434.724.8 1.137 1.193.552.52 1.13 1.072 1.602 1.812.01.013.022.025.03.04.623.992 2.457 3.016 3.62 3.672.27.15.365.493.213.763-.104.182-.294.285-.49.285-.093 0-.187-.023-.273-.07-.655-.37-1.44-1.057-2.157-1.794.068.69.068 1.474-.03 2.395-.03.288-.273.5-.556.5-.02 0-.04 0-.06-.002-.306-.032-.53-.31-.497-.617.273-2.57-.23-3.932-1-4.937.34 1.747.12 4.058-1.175 7.423-.086.223-.298.36-.523.36-.07 0-.137-.013-.202-.038-.29-.112-.433-.436-.322-.725 2.507-6.515.802-8.464-1.172-10.722-.782-.895-1.617-1.854-2.232-3.137.177 2.196.46 3.997.708 5.56.742 4.7 1.19 7.538-2.495 12.723-.11.153-.282.234-.457.234-.113 0-.225-.032-.324-.103-.252-.18-.31-.53-.132-.78 2.708-3.81 3.022-6.183 2.678-9.272-.228.394-.495.724-.758 1.05-.7.865-1.36 1.683-1.222 3.982.02.31-.216.576-.525.594-.01.002-.022.002-.034.002-.293 0-.54-.23-.558-.527-.166-2.733.703-3.807 1.47-4.755.763-.946 1.423-1.763 1.026-4.427-.174-1.16-.344-2.452-.47-3.92-.602 1.227-1.598 2.564-3.25 3.958-1.97 1.663-1.435 3.477-.817 5.574.406 1.375.825 2.796.565 4.274-.047.273-.284.463-.55.463-.033 0-.066 0-.098-.007-.305-.053-.508-.344-.455-.65.214-1.217-.166-2.51-.534-3.76-.167-.567-.34-1.152-.457-1.747-.05.22-.096.438-.144.66-.413 1.938-.84 3.944-3.438 5.647-.094.062-.202.092-.307.092-.18 0-.36-.09-.468-.253-.17-.26-.096-.607.162-.776 2.21-1.45 2.556-3.07 2.957-4.944.175-.815.362-1.68.73-2.555l-.474.282c-1.64.97-2.546 1.504-2.91 3.57-.047.272-.283.464-.55.464-.032 0-.064-.003-.097-.01-.305-.053-.51-.344-.456-.65.453-2.572 1.707-3.314 3.442-4.34.916-.542 1.954-1.156 3.18-2.19 1.935-1.633 2.876-3.147 3.335-4.48-.148.183-.305.36-.48.524-1.665 1.562-4.377 2.234-8.064 2.007-1.638.302-1.822 1.195-2.072 3.162-.228 1.79-.51 4.017-2.467 6.333-.11.132-.268.2-.427.2-.128 0-.257-.045-.36-.134-.238-.2-.268-.553-.068-.79 1.742-2.063 2-4.107 2.21-5.75.146-1.14.29-2.24.936-3.035-.61.04-1.163.114-1.666.217-1.43.595-1.493 1.348-1.602 2.706-.074.91-.164 2.04-.774 3.292-.096.2-.295.315-.503.315-.082 0-.165-.018-.245-.056-.278-.136-.393-.47-.258-.75.516-1.062.594-2.033.663-2.89.048-.6.098-1.185.287-1.727-2.154 1.246-2.494 3.082-2.514 3.205-.045.274-.284.47-.552.47-.03 0-.062-.004-.093-.01-.304-.05-.51-.338-.46-.644.276-1.647 1.797-4.088 5.644-4.954l.016-.008c.067-.028.134-.04.202-.04 1.154-.237 2.51-.336 4.098-.234 3.36.22 5.883-.368 7.304-1.7.792-.743 1.123-1.59 1.246-2.318H1.178c-.413 0-.747-.334-.747-.748 0-.412.335-.747.748-.747H23.15V51.195l-5.99-3.462c-.468.458-1.046.807-1.69 1.003-.426.145-.884.223-1.36.223-2.347 0-4.25-1.903-4.25-4.25s1.903-4.25 4.25-4.25c1.655 0 3.09.946 3.79 2.327.324.59.51 1.265.51 1.984 0 .354-.047.694-.13 1.02l4.87 2.816V43.02zm13.204 2.958c.232-.367.366-.802.366-1.268 0-1.314-1.066-2.38-2.38-2.38-.913 0-1.705.514-2.105 1.268l.066.038c-.192.334-.304.72-.304 1.135 0 .416.113.804.307 1.14.395.68 1.127 1.138 1.968 1.138.84 0 1.573-.458 1.967-1.138l.117.068zm-21.51.996c.956-.31 1.646-1.206 1.646-2.264 0-1.314-1.066-2.38-2.38-2.38-1.314 0-2.38 1.066-2.38 2.38 0 .484.144.934.392 1.31l.184-.108c.394.68 1.125 1.136 1.964 1.136.2 0 .39-.026.575-.074zm11.487-6.787c.23-.365.36-.796.36-1.257 0-1.314-1.066-2.38-2.38-2.38-1.314 0-2.38 1.066-2.38 2.38 0 .447.123.866.338 1.223l.035-.02c.393.68 1.127 1.14 1.967 1.14.843 0 1.575-.46 1.968-1.14l.093.054zM4.25 18.02c1.314 0 2.38-1.066 2.38-2.38 0-1.314-1.066-2.38-2.38-2.38-1.314 0-2.38 1.066-2.38 2.38 0 1.314 1.066 2.38 2.38 2.38zm0 11.73c1.314 0 2.38-1.066 2.38-2.38 0-1.314-1.066-2.38-2.38-2.38-1.314 0-2.38 1.066-2.38 2.38 0 1.314 1.066 2.38 2.38 2.38zm10.03-17.34c1.314 0 2.38-1.066 2.38-2.38 0-1.314-1.066-2.38-2.38-2.38-1.314 0-2.38 1.066-2.38 2.38 0 1.314 1.066 2.38 2.38 2.38zm10.03-5.78c1.314 0 2.38-1.066 2.38-2.38 0-1.314-1.066-2.38-2.38-2.38-1.314 0-2.38 1.066-2.38 2.38 0 1.314 1.066 2.38 2.38 2.38zm0 11.39c1.314 0 2.38-1.066 2.38-2.38 0-1.314-1.066-2.38-2.38-2.38-1.314 0-2.38 1.066-2.38 2.38 0 1.314 1.066 2.38 2.38 2.38zm-10.03 5.95c1.314 0 2.38-1.066 2.38-2.38 0-1.314-1.066-2.38-2.38-2.38-1.314 0-2.38 1.066-2.38 2.38 0 1.314 1.066 2.38 2.38 2.38zm19.89-11.73c1.314 0 2.38-1.066 2.38-2.38 0-1.314-1.066-2.38-2.38-2.38-1.314 0-2.38 1.066-2.38 2.38 0 1.314 1.066 2.38 2.38 2.38zm10.03 5.95c1.314 0 2.38-1.066 2.38-2.38 0-1.314-1.066-2.38-2.38-2.38-1.314 0-2.38 1.066-2.38 2.38 0 1.314 1.066 2.38 2.38 2.38zm0 11.39c1.314 0 2.38-1.066 2.38-2.38 0-1.314-1.066-2.38-2.38-2.38-1.314 0-2.38 1.066-2.38 2.38 0 1.314 1.066 2.38 2.38 2.38zm-10.03-5.61c1.314 0 2.38-1.066 2.38-2.38 0-1.314-1.066-2.38-2.38-2.38-1.314 0-2.38 1.066-2.38 2.38 0 1.314 1.066 2.38 2.38 2.38zm0 11.39c1.314 0 2.38-1.066 2.38-2.38 0-1.314-1.066-2.38-2.38-2.38-1.314 0-2.38 1.066-2.38 2.38 0 1.314 1.066 2.38 2.38 2.38zm10.03 5.95c1.314 0 2.38-1.066 2.38-2.38 0-1.314-1.066-2.38-2.38-2.38-1.314 0-2.38 1.066-2.38 2.38 0 1.314 1.066 2.38 2.38 2.38zm-29.92-5.78c1.314 0 2.38-1.066 2.38-2.38 0-1.314-1.066-2.38-2.38-2.38-1.314 0-2.38 1.066-2.38 2.38 0 1.314 1.066 2.38 2.38 2.38zM4.25 41.31c1.314 0 2.38-1.066 2.38-2.38 0-1.314-1.066-2.38-2.38-2.38-1.314 0-2.38 1.066-2.38 2.38 0 1.314 1.066 2.38 2.38 2.38zM76.07 18.315v-1.843h-9.5v1.843h3.724V30h2.052V18.315h3.724zm8.436 7.448v-.874c0-2.832-1.577-4.637-4.066-4.637-2.527 0-4.085 1.862-4.085 4.883 0 3.268 1.482 4.978 4.37 4.978 1.54 0 2.47-.437 3.553-1.5l-1.216-1.16c-.684.665-1.292 1.007-2.26 1.007-1.806 0-2.49-1.082-2.528-2.697h6.232zm-1.9-1.368h-4.332c.038-1.33.608-2.527 2.166-2.527 1.577 0 2.07 1.216 2.166 2.527zM94.804 30v-9.633H87.09V30h1.938v-7.942h3.838V30h1.938zm10.545 0v-9.633h-6.594v4.01c0 3.723-.988 3.913-1.824 3.913h-.304V30h.912c1.88 0 3.078-1.064 3.078-5.15V22.06h2.793V30h1.94zm11.095 0v-9.633h-1.938l-4.123 6.536v-6.536h-1.938V30h1.938l4.123-6.63V30h1.938zm12.16 2.47v-4.16h-1.368v-7.943H125.3v7.942h-3.84v-7.943h-1.937V30h7.22v2.47h1.862zm9.158-2.47v-6.44c0-2.186-1.35-3.307-4.028-3.307-.912 0-1.596.114-2.147.38-.475.21-.722.437-1.254 1.007l1.273 1.197c.285-.36.494-.55.78-.684.34-.17.74-.247 1.29-.247 1.52 0 2.167.532 2.167 1.786v.703h-2.584c-2.052 0-3.306 1.045-3.306 2.793 0 1.862 1.197 2.907 3.344 2.907 1.14 0 1.767-.17 2.565-.97V30h1.9zm-1.92-3.477c0 1.406-.607 1.976-2.108 1.976-1.31 0-1.9-.438-1.9-1.37 0-.91.59-1.367 1.73-1.367h2.28v.76zM153.02 30v-9.633h-7.714V30h1.938v-7.942h3.838V30h1.938zm10.944-4.788c0-1.14-.057-1.786-.21-2.47-.38-1.672-1.557-2.49-3.267-2.49-1.16 0-1.71.324-2.49 1.122v-1.007h-1.9v13.528h1.94v-4.883c.72.798 1.367 1.102 2.47 1.102.987 0 1.823-.304 2.393-.874.76-.76 1.064-1.938 1.064-4.028zm-1.92-.038c0 2.3-.57 3.21-1.994 3.21-1.425 0-2.014-.91-2.014-3.134 0-1.102.114-1.824.36-2.337.305-.627.837-.93 1.635-.93 1.445 0 2.015.892 2.015 3.19zm12.218.59v-.875c0-2.832-1.577-4.637-4.066-4.637-2.527 0-4.085 1.862-4.085 4.883 0 3.268 1.483 4.978 4.37 4.978 1.54 0 2.47-.437 3.554-1.5l-1.216-1.16c-.684.665-1.292 1.007-2.26 1.007-1.806 0-2.49-1.082-2.528-2.697h6.232zm-1.9-1.37h-4.332c.038-1.33.608-2.526 2.166-2.526 1.577 0 2.07 1.216 2.166 2.527zm7.2-2.336h2.718v6.25h-3.63c.552-1.177.913-2.488.913-4.71v-1.54zm-1.842-1.69v2.45c0 2.964-.494 4.275-1.102 5.49h-1.026v4.162h1.843V30h6.25v2.47h1.863v-4.16h-1.33v-7.943h-6.498zm17.195 0h-2.07l-2.243 6.8-2.3-6.8h-2.07l3.382 9.176-.532 1.52c-.285.817-.59 1.007-1.387 1.007h-.494v1.75h.78c1.387 0 2.204-.59 2.68-1.9l4.255-11.553zM204.3 30v-9.633h-7.713V30h1.938v-7.942h3.838V30h1.938zm10.945-4.788c0-1.14-.057-1.786-.21-2.47-.38-1.672-1.557-2.49-3.267-2.49-1.16 0-1.71.324-2.49 1.122v-1.007h-1.9v13.528h1.94v-4.883c.72.798 1.367 1.102 2.47 1.102.987 0 1.823-.304 2.393-.874.76-.76 1.065-1.938 1.065-4.028zm-1.92-.038c0 2.3-.57 3.21-1.994 3.21s-2.013-.91-2.013-3.134c0-1.102.114-1.824.36-2.337.305-.627.837-.93 1.635-.93 1.444 0 2.014.892 2.014 3.19zm12.218.59v-.875c0-2.832-1.577-4.637-4.066-4.637-2.527 0-4.085 1.862-4.085 4.883 0 3.268 1.482 4.978 4.37 4.978 1.54 0 2.47-.437 3.553-1.5l-1.216-1.16c-.685.665-1.293 1.007-2.262 1.007-1.805 0-2.49-1.082-2.527-2.697h6.233zm-1.9-1.37h-4.332c.04-1.33.61-2.526 2.167-2.526 1.577 0 2.07 1.216 2.166 2.527zM228.545 30l3.705-4.997V30h1.957v-4.997L237.912 30h2.337l-3.896-5.11 3.61-4.523h-2.26l-3.497 4.598v-4.598h-1.957v4.598l-3.477-4.598h-2.26l3.61 4.522-3.915 5.11h2.337zm15.96-7.942h2.717v6.25h-3.63c.552-1.177.913-2.488.913-4.71v-1.54zm-1.843-1.69v2.45c0 2.964-.494 4.275-1.102 5.49h-1.026v4.162h1.843V30h6.25v2.47h1.863v-4.16h-1.33v-7.943h-6.498zM259.667 30v-6.44c0-2.186-1.35-3.307-4.028-3.307-.913 0-1.597.114-2.148.38-.475.21-.722.437-1.254 1.007l1.273 1.197c.286-.36.495-.55.78-.684.342-.17.74-.247 1.292-.247 1.52 0 2.166.532 2.166 1.786v.703h-2.584c-2.052 0-3.306 1.045-3.306 2.793 0 1.862 1.197 2.907 3.344 2.907 1.14 0 1.767-.17 2.565-.97V30h1.9zm-1.92-3.477c0 1.406-.607 1.976-2.108 1.976-1.312 0-1.9-.438-1.9-1.37 0-.91.588-1.367 1.728-1.367h2.28v.76zm12.56-.76v-.874c0-2.832-1.577-4.637-4.066-4.637-2.526 0-4.084 1.862-4.084 4.883 0 3.268 1.482 4.978 4.37 4.978 1.54 0 2.47-.437 3.553-1.5l-1.217-1.16c-.684.665-1.292 1.007-2.26 1.007-1.806 0-2.49-1.082-2.528-2.697h6.232zm-1.9-1.368h-4.332c.038-1.33.608-2.527 2.166-2.527 1.578 0 2.072 1.216 2.167 2.527zm11.096-2.337v-1.69h-7.942v1.69h3.06V30h1.938v-7.942h2.945zM87.448 66.996h-2.584c-.646 2.958-2.788 4.896-5.814 4.896-1.598 0-3.128-.612-4.182-1.7-1.53-1.564-1.7-3.23-1.7-8.296 0-5.066.17-6.732 1.7-8.296 1.054-1.088 2.584-1.7 4.182-1.7 3.026 0 5.1 1.938 5.746 4.896h2.652c-.816-4.556-4.046-7.208-8.398-7.208-2.38 0-4.556.884-6.188 2.516-2.278 2.278-2.278 4.658-2.278 9.792 0 5.134 0 7.514 2.278 9.792 1.632 1.632 3.808 2.516 6.188 2.516 4.318 0 7.616-2.652 8.398-7.208zM113.6 74V49.792h-2.584l-7.684 17.17-7.888-17.17H92.86V74h2.584V55.606l6.732 14.586h2.21l6.63-14.586V74h2.584zm21.732 0v-2.312h-12.444V62.95h10.608v-2.312h-10.608v-8.534h12.444v-2.312h-15.028V74h15.028zm21.732 0V49.792h-2.584v10.846h-11.492V49.792h-2.584V74h2.584V62.95h11.492V74h2.584zm24.044 0V49.792h-2.448l-12.308 19.72v-19.72h-2.584V74h2.448l12.308-19.754V74h2.584zm30.884 0V49.792h-13.328v9.826c0 10.064-2.142 12.07-5.134 12.07h-.646V74h1.224c4.624 0 7.072-3.4 7.072-13.6v-8.296h8.228V74h2.584zm22.718-13.77c0-2.958-.17-6.018-2.278-8.126-1.632-1.632-3.808-2.516-6.188-2.516s-4.556.884-6.188 2.516c-2.074 2.074-2.278 5.032-2.278 7.922v1.87c0 4.828.068 7.582 2.278 9.792 1.632 1.632 3.774 2.516 6.188 2.516 2.414 0 4.556-.884 6.188-2.516 2.21-2.21 2.278-4.964 2.278-9.792V60.23zm-2.584 2.856c0 2.788-.034 5.406-1.7 7.072-1.122 1.122-2.584 1.734-4.182 1.734-1.598 0-3.06-.612-4.182-1.734-1.564-1.564-1.7-3.944-1.7-6.562v-2.414c0-3.332 0-5.848 1.7-7.548 1.122-1.122 2.618-1.734 4.182-1.734 1.564 0 3.06.612 4.182 1.734 1.598 1.598 1.7 4.114 1.7 6.97v2.482zm23.16-10.982v-2.312h-14.552V74h2.584V52.104h11.968zm19.25 8.126c0-2.958-.17-6.018-2.278-8.126-1.632-1.632-3.808-2.516-6.188-2.516s-4.556.884-6.188 2.516c-2.074 2.074-2.278 5.032-2.278 7.922v1.87c0 4.828.068 7.582 2.278 9.792 1.632 1.632 3.774 2.516 6.188 2.516 2.414 0 4.556-.884 6.188-2.516 2.21-2.21 2.278-4.964 2.278-9.792V60.23zm-2.584 2.856c0 2.788-.034 5.406-1.7 7.072-1.122 1.122-2.584 1.734-4.182 1.734-1.598 0-3.06-.612-4.182-1.734-1.564-1.564-1.7-3.944-1.7-6.562v-2.414c0-3.332 0-5.848 1.7-7.548 1.122-1.122 2.618-1.734 4.182-1.734 1.564 0 3.06.612 4.182 1.734 1.598 1.598 1.7 4.114 1.7 6.97v2.482z"/></g></symbol><symbol id="icon-ok" viewBox="0 0 19 32">
    <!-- Generator: Sketch 3.3.3 (12072) - http://www.bohemiancoding.com/sketch -->
    <title>odnoklassniki</title>
    <desc>Created with Sketch.</desc>
    
    <g id="Page-1" stroke="none" stroke-width="1" sketch:type="MSPage">
        <path d="M9.25001007,4.83066372 C11.1322373,4.83066372 12.6628262,6.3614992 12.6628262,8.24367713 C12.6628262,10.1239317 11.1322373,11.6549151 9.25001007,11.6549151 C7.3697555,11.6549151 5.83724323,10.1239317 5.83724323,8.24367713 C5.83724323,6.3614992 7.3697555,4.83066372 9.25001007,4.83066372 L9.25001007,4.83066372 L9.25001007,4.83066372 Z M9.25001007,16.4836554 C13.7965519,16.4836554 17.4925036,12.7876544 17.4925036,8.24367713 C17.4925036,3.69752985 13.7965519,0 9.25001007,0 C4.7045039,0 1.00756587,3.69752985 1.00756587,8.24367713 C1.00756587,12.7876544 4.7045039,16.4836554 9.25001007,16.4836554 L9.25001007,16.4836554 L9.25001007,16.4836554 Z M12.5848049,23.2076924 C14.2627564,22.8252794 15.881033,22.1616051 17.3711316,21.2251026 C18.4991364,20.5142308 18.8391357,19.023343 18.1282639,17.8953876 C17.4183291,16.7649168 15.9282304,16.4248682 14.7983022,17.1357401 C11.4221295,19.2591331 7.0750302,19.2581961 3.70078086,17.1357401 C2.57090199,16.4248682 1.08075401,16.7649168 0.371805568,17.8953876 C-0.339066283,19.0240828 -3.98381299e-06,20.5142308 1.12795148,21.2251026 C2.61809946,22.1604214 4.23632668,22.8252794 5.9143275,23.2076924 L1.30613797,27.8156353 C0.364111936,28.7586477 0.364111936,30.2873132 1.30712433,31.2303255 C1.77909905,31.7013632 2.39656232,31.9373506 3.01397627,31.9373506 C3.63237659,31.9373506 4.2507769,31.7013632 4.72280094,31.2303255 L9.24907302,26.70213 L13.7791919,31.2303255 C14.7212673,32.1733873 16.2499327,32.1733873 17.1929451,31.2303255 C18.1369439,30.2873132 18.1369439,28.7579079 17.1929451,27.8156353 L12.5848049,23.2076924 L12.5848049,23.2076924 Z" id="odnoklassniki" sketch:type="MSShapeGroup"/>
    </g>
</symbol><symbol id="pic-search" viewBox="0 0 24 24"><path d="M15.5 14h-.79l-.28-.27C15.41 12.59 16 11.11 16 9.5 16 5.91 13.09 3 9.5 3S3 5.91 3 9.5 5.91 16 9.5 16c1.61 0 3.09-.59 4.23-1.57l.27.28v.79l5 4.99L20.49 19l-4.99-5zm-6 0C7.01 14 5 11.99 5 9.5S7.01 5 9.5 5 14 7.01 14 9.5 11.99 14 9.5 14z"/><path d="M0 0h24v24H0z" fill="none"/></symbol><symbol id="icon-telegram" viewBox="0 0 32 27">
    <!-- Generator: Sketch 3.3.3 (12072) - http://www.bohemiancoding.com/sketch -->
    <title>path9</title>
    <desc>Created with Sketch.</desc>
    
    <g id="Page-1" stroke="none" stroke-width="1" sketch:type="MSPage">
        <path d="M29.8395284,0.177464413 L1.4938725,11.1104417 C-0.440764139,11.8866545 -0.429290764,12.9657099 1.14124074,13.446869 L8.21073295,15.6534015 L10.9156866,23.9465813 C11.2445295,24.8542678 11.0824241,25.2142694 12.0355851,25.2142694 C12.7711661,25.2142694 13.0974833,24.8789005 13.5071685,24.4786884 C13.7676949,24.2237412 15.3145406,22.719841 17.0417047,21.0405748 L24.3953027,26.4737471 C25.7484637,27.2202744 26.7255191,26.8335367 27.0624675,25.2170062 L31.8895339,2.46999728 C32.3837459,0.48862376 31.1341629,-0.410115792 29.8395284,0.177464413 L29.8395284,0.177464413 Z M9.32020973,15.1464533 L25.2548843,5.09316247 C26.0503594,4.61074055 26.7797293,4.87010971 26.1808853,5.40168979 L12.5366383,17.7122492 L12.0053749,23.3785801 L9.32020973,15.1464533 L9.32020973,15.1464533 Z" id="path9" sketch:type="MSShapeGroup"/>
    </g>
</symbol><symbol id="pic-te-st" viewBox="0 0 87 40"><title>&#x422;&#x435;&#x43F;&#x43B;&#x438;&#x446;&#x430; + Group Copy</title><g fill="none" fill-rule="evenodd"><path d="M37.18 6.56v-.68H32.3v.68h2.06V13h.76V6.56h2.06zm4.21 4.17v-.33c0-1.47-.77-2.38-2.02-2.38s-2.02.94-2.02 2.49c0 1.67.75 2.55 2.17 2.55.36 0 .68-.06.95-.17.3-.12.47-.24.83-.59l-.49-.43c-.27.26-.4.35-.62.44-.18.07-.4.12-.63.12-.67 0-1.11-.26-1.34-.81-.1-.24-.13-.44-.15-.89h3.32zm-.72-.54h-2.6c.02-.44.05-.6.15-.82.2-.46.63-.74 1.15-.74.58 0 1.04.34 1.21.91.06.18.07.27.09.65zM46.74 13V8.08h-3.81V13h.71V8.7h2.38V13h.72zm5.46 0V8.08h-3.15v2.11c0 2.05-.6 2.19-1.04 2.19h-.16V13h.33c.9 0 1.56-.54 1.56-2.6V8.7h1.74V13h.72zm5.77 0V8.08h-.72l-2.53 3.79V8.08h-.71V13h.71l2.53-3.81V13h.72zm6.36 1.47v-2.09h-.74v-4.3h-.72v4.3h-2.38v-4.3h-.71V13h3.85v1.47h.7zM69.07 13V9.66c0-1.09-.67-1.64-1.99-1.64-.47 0-.82.06-1.1.2-.24.12-.36.23-.62.53l.49.45c.18-.24.28-.33.45-.41.2-.1.44-.15.76-.15.9 0 1.29.33 1.29 1.08v.47h-1.48c-1.06 0-1.7.53-1.7 1.42 0 .94.61 1.45 1.75 1.45.38 0 .64-.03.87-.13.2-.08.32-.17.56-.4V13h.72zm-.72-1.74c0 .84-.37 1.18-1.29 1.18-.83 0-1.19-.25-1.19-.84 0-.58.37-.87 1.1-.87h1.38v.53zM36.43 23.33l-.49-.47c-.26.27-.38.37-.58.46-.16.07-.33.1-.54.1-.97 0-1.47-.64-1.47-1.88 0-1.24.51-1.88 1.48-1.88.21 0 .39.04.55.11.19.08.31.18.56.44l.49-.46c-.33-.34-.49-.46-.76-.58-.24-.1-.51-.15-.83-.15-1.38 0-2.21.95-2.21 2.52s.83 2.52 2.21 2.52c.32 0 .59-.05.83-.15.27-.12.43-.24.76-.58zm5.13-1.82c0-.92-.18-1.51-.6-1.93-.36-.36-.86-.56-1.41-.56-.56 0-1.05.2-1.41.56-.42.43-.6 1.01-.6 1.96s.18 1.53.6 1.96c.36.36.85.56 1.41.56.56 0 1.05-.2 1.41-.56.43-.44.6-1.01.6-1.99zm-.72.06c0 .78-.11 1.2-.39 1.49-.22.23-.55.36-.9.36s-.67-.13-.89-.36c-.29-.3-.4-.72-.4-1.52s.11-1.23.4-1.52c.22-.23.55-.36.89-.36.35 0 .68.13.9.36.29.29.39.71.39 1.55zm6.82 3.9v-2.09h-.74v-4.3h-.72v4.3h-2.38v-4.3h-.71V24h3.85v1.47h.7zm5.2-1.47v-4.92h-.72l-2.53 3.79v-3.79h-.71V24h.71l2.53-3.81V24h.72zm5.31 0v-3.34c0-1.09-.67-1.64-1.99-1.64-.47 0-.82.06-1.1.2-.24.12-.36.23-.62.53l.49.45c.18-.24.28-.33.45-.41.2-.1.44-.15.76-.15.9 0 1.29.33 1.29 1.08v.47h-1.48c-1.06 0-1.7.53-1.7 1.42 0 .94.61 1.45 1.75 1.45.38 0 .64-.03.87-.13.2-.08.32-.17.56-.4V24h.72zm-.72-1.74c0 .84-.37 1.18-1.29 1.18-.83 0-1.19-.25-1.19-.84 0-.58.37-.87 1.1-.87h1.38v.53zM63.58 24v-4.92h-3.15v2.11c0 2.05-.6 2.19-1.04 2.19h-.16V24h.33c.9 0 1.56-.54 1.56-2.6v-1.7h1.74V24h.72zm5.56-1.48c0-.9-.62-1.49-1.56-1.49H66.1v-1.95h-.71V24h2.19c.94 0 1.56-.59 1.56-1.48zm-.72 0c0 .55-.32.86-.92.86h-1.4v-1.72h1.4c.6 0 .92.31.92.86zM74.26 24v-4.92h-.72v2.07h-2.38v-2.07h-.71V24h.71v-2.23h2.38V24h.72zm7.07 0v-4.92h-.72V24h.72zm-1.51-1.48c0-.9-.62-1.49-1.56-1.49h-1.48v-1.95h-.71V24h2.19c.94 0 1.56-.59 1.56-1.48zm-.72 0c0 .55-.32.86-.92.86h-1.4v-1.72h1.4c.6 0 .92.31.92.86zM86.79 24l-1.67-2.51 1.6-2.41h-.87l-1.11 1.82-1.13-1.82h-.87l1.6 2.41L82.67 24h.87l1.2-1.91L85.92 24h.87zm-50.66 6.7v-.62h-4.02v.62h1.69V35h.72v-4.3h1.61zm4.67 2.03v-.33c0-1.47-.77-2.38-2.02-2.38s-2.02.94-2.02 2.49c0 1.67.75 2.55 2.17 2.55.36 0 .68-.06.95-.17.3-.12.47-.24.83-.59l-.49-.43c-.27.26-.4.35-.62.44-.18.07-.4.12-.63.12-.67 0-1.11-.26-1.34-.81-.1-.24-.13-.44-.15-.89h3.32zm-.72-.54h-2.6c.02-.44.05-.6.15-.82.2-.46.63-.74 1.15-.74.58 0 1.04.34 1.21.91.06.18.07.27.09.65zm5.7 2.81l-1.67-2.51 1.6-2.41h-.87l-1.11 1.82-1.13-1.82h-.87l1.6 2.41L41.66 35h.87l1.2-1.91L44.91 35h.87zm5.05 0v-4.92h-.72v2.07h-2.38v-2.07h-.71V35h.71v-2.23h2.38V35h.72zm5.56-2.49c0-.92-.18-1.51-.6-1.93-.36-.36-.86-.56-1.41-.56-.56 0-1.05.2-1.41.56-.42.43-.6 1.01-.6 1.96s.18 1.53.6 1.96c.36.36.85.56 1.41.56.56 0 1.05-.2 1.41-.56.43-.44.6-1.01.6-1.99zm-.72.06c0 .78-.11 1.2-.39 1.49-.22.23-.55.36-.9.36s-.67-.13-.89-.36c-.29-.3-.4-.72-.4-1.52s.11-1.23.4-1.52c.22-.23.55-.36.89-.36.35 0 .68.13.9.36.29.29.39.71.39 1.55zM61.49 35v-4.92h-3.15v2.11c0 2.05-.6 2.19-1.04 2.19h-.16V35h.33c.9 0 1.56-.54 1.56-2.6v-1.7h1.74V35h.72zm5.56-2.49c0-.92-.18-1.51-.6-1.93-.36-.36-.86-.56-1.41-.56-.56 0-1.05.2-1.41.56-.42.43-.6 1.01-.6 1.96s.18 1.53.6 1.96c.36.36.85.56 1.41.56.56 0 1.05-.2 1.41-.56.43-.44.6-1.01.6-1.99zm-.72.06c0 .78-.11 1.2-.39 1.49-.22.23-.55.36-.9.36s-.67-.13-.89-.36c-.29-.3-.4-.72-.4-1.52s.11-1.23.4-1.52c.22-.23.55-.36.89-.36.35 0 .68.13.9.36.29.29.39.71.39 1.55zm5.42-1.87v-.62h-3.12V35h.72v-4.3h2.4zm4.98 4.3v-4.92h-.72l-2.53 3.79v-3.79h-.71V35h.71l2.53-3.81V35h.72zm5.25-7.04h-.64c-.04.5-.33.75-.82.75-.49 0-.78-.25-.82-.75h-.64c.06.9.63 1.26 1.46 1.26s1.4-.36 1.46-1.26zM82.5 35v-4.92h-.72l-2.53 3.79v-3.79h-.71V35h.71l2.53-3.81V35h.72z" fill="#111"/><g><use fill="#F38D06" xlink:href="#a"/><use fill="#DEDE02" xlink:href="#b"/><use fill="#DB9906" xlink:href="#c"/><use fill="#E6201E" xlink:href="#d"/><use fill="#BE0C39" xlink:href="#e"/><path d="M.91 12.866c0-.195.053-.377.144-.534l-.76-.44c-.165.288-.262.62-.262.974 0 .355.097.688.264.976l.76-.44c-.092-.158-.145-.34-.145-.536" fill="#B70E0B"/><use fill="#A9CA0F" xlink:href="#f"/><path d="M21.874 12.864c0 .196-.053.378-.144.536l.76.44c.166-.288.263-.62.263-.976 0-.355-.097-.688-.264-.974l-.76.44c.09.156.144.34.144.534" fill="#00A8B0"/><use fill="#419F62" xlink:href="#g"/><use fill="#E6005B" xlink:href="#h"/><use xlink:href="#h"/><use fill="#168B8F" xlink:href="#i"/><use fill="#AF0E79" xlink:href="#j"/><use fill="#1269B6" xlink:href="#k"/><use fill="#702282" xlink:href="#l"/><use fill="#7F1F82" xlink:href="#m"/><use fill="#6EB62A" xlink:href="#n"/><use fill="#FFD102" xlink:href="#o"/><path d="M10.467 1.45c.186-.32.53-.535.925-.535.396 0 .74.216.926.536l.76-.44c-.34-.58-.966-.974-1.686-.974s-1.347.393-1.684.975l.76.44" fill="#DEDC00"/><use fill="#F7AB02" xlink:href="#p"/><path d="M.91 7.427c0-.195.054-.378.145-.535l-.76-.44c-.166.288-.263.62-.263.975s.097.688.263.975l.76-.44c-.09-.157-.144-.34-.144-.535" fill="#ED6607"/><use fill="#DCDD02" xlink:href="#q"/><path d="M21.874 7.425c0 .196-.053.377-.143.534l.76.438c.166-.286.263-.618.263-.973s-.098-.688-.264-.975l-.76.44c.09.157.144.34.144.535" fill="#76B82A"/><use fill="#B8CF09" xlink:href="#r"/><use fill="#0E70BC" xlink:href="#s"/><use fill="#B80D79" xlink:href="#t"/><path d="M21.874 18.305c0 .195-.053.377-.144.535l.76.44c.166-.288.263-.62.263-.975s-.097-.688-.264-.975l-.76.44c.09.157.144.34.144.535" fill="#0090D7"/><use fill="#C52987" xlink:href="#u"/><path d="M22.26 28.83H11.92v-4.782l2.82-1.63c.35.344.83.556 1.36.556.718 0 1.346-.392 1.683-.974l-.76-.44c-.185.32-.53.536-.924.536-.397 0-.742-.216-.927-.536-.092-.158-.145-.34-.145-.536 0-.194.053-.377.144-.534l-.76-.44c-.166.288-.262.62-.262.974 0 .167.023.327.062.48L11.92 22.83v-2.648c.493-.14.906-.468 1.158-.9l-.76-.44c-.184.32-.53.536-.925.536-.396 0-.74-.217-.926-.536l-.76.44c.252.432.666.76 1.16.9v2.647l-2.293-1.326c.04-.154.06-.314.06-.48 0-.354-.095-.685-.26-.972l-.76.44c.09.156.143.338.143.532 0 .196-.054.38-.146.537-.184.32-.528.536-.923.536s-.74-.215-.925-.535l-.76.44c.338.582.966.974 1.685.974.53 0 1.01-.212 1.36-.556l2.82 1.63v4.782H.524c-.194 0-.35.158-.35.352 0 .195.156.352.35.352h10.32c-.056.343-.212.74-.585 1.09-.668.627-1.856.904-3.437.8-.747-.048-1.385 0-1.93.11-.03 0-.062.007-.093.02-.003 0-.005.002-.008.003-1.81.408-2.526 1.556-2.656 2.332-.024.143.073.278.217.302.014.002.03.004.044.004.126 0 .238-.092.26-.22.01-.06.17-.923 1.182-1.51-.09.256-.113.53-.135.813-.033.403-.07.86-.313 1.36-.063.13-.01.29.122.352.037.018.077.027.115.027.097 0 .19-.056.236-.15.287-.59.33-1.12.364-1.548.05-.64.08-.994.754-1.274.237-.048.497-.083.784-.102-.305.375-.372.892-.44 1.43-.1.772-.22 1.734-1.04 2.705-.094.112-.08.28.03.373.05.04.11.062.17.062.076 0 .15-.032.202-.094.92-1.09 1.054-2.137 1.16-2.98.118-.925.205-1.345.976-1.487 1.735.107 3.01-.21 3.795-.944.083-.08.157-.162.227-.248-.216.627-.66 1.34-1.57 2.108-.576.487-1.065.776-1.496 1.03-.816.484-1.406.833-1.62 2.044-.024.143.072.28.215.305.016.002.03.004.046.004.127 0 .238-.09.26-.22.17-.97.597-1.222 1.37-1.68.07-.04.146-.086.222-.132-.173.412-.26.82-.343 1.203-.19.882-.352 1.643-1.392 2.326-.122.08-.156.244-.076.366.05.078.135.12.22.12.05 0 .1-.015.145-.044 1.222-.802 1.423-1.745 1.618-2.657.022-.105.044-.208.068-.31.056.28.136.555.215.82.173.59.352 1.198.25 1.77-.024.145.072.28.215.307.016.002.03.003.046.003.125 0 .236-.09.258-.217.123-.696-.074-1.365-.265-2.012-.29-.987-.542-1.84.385-2.623.777-.656 1.245-1.285 1.53-1.862.058.692.138 1.3.22 1.846.187 1.253-.124 1.638-.483 2.083-.36.445-.77.95-.692 2.237.01.14.125.248.263.248h.016c.146-.01.256-.135.248-.28-.066-1.082.245-1.467.575-1.875.123-.153.25-.308.356-.493.163 1.453.015 2.57-1.26 4.362-.083.118-.056.282.063.367.046.033.1.048.153.048.082 0 .163-.038.214-.11 1.734-2.44 1.524-3.776 1.175-5.988-.116-.734-.25-1.582-.333-2.615.29.603.682 1.055 1.05 1.476.93 1.063 1.73 1.98.552 5.046-.053.136.015.288.15.34.032.013.064.02.095.02.105 0 .205-.066.246-.17.61-1.584.712-2.672.552-3.494.362.473.6 1.114.47 2.324-.014.145.09.275.235.29l.028.002c.134 0 .248-.1.263-.236.046-.434.046-.802.014-1.127.338.347.707.67 1.015.843.04.023.085.034.13.034.09 0 .18-.05.23-.134.07-.128.025-.29-.102-.36-.547-.308-1.41-1.26-1.703-1.727-.004-.008-.01-.014-.014-.02-.222-.348-.494-.608-.754-.853-.195-.184-.38-.357-.536-.56l-.008-.01c-.15-.192-.31-.375-.468-.557-.383-.437-.773-.885-1.035-1.5.56.492 1.413.674 2.328.777l.01.002c1.29.142 1.477 1.074 1.693 2.153.09.45.183.918.37 1.324.043.097.14.154.24.154.036 0 .073-.007.108-.023.134-.06.192-.217.13-.35-.158-.35-.242-.767-.33-1.207-.05-.245-.1-.495-.166-.74.22.114.453.21.682.3.605.244 1.127.454 1.35.996.042.103.14.164.244.164.033 0 .067-.006.1-.02.134-.054.2-.21.144-.344-.308-.75-.986-1.022-1.642-1.285-.523-.21-1.018-.41-1.334-.836-.04-.053-.08-.105-.126-.155 1.654.15 3.243.436 3.685 2.068.032.118.138.195.254.195.024 0 .047-.003.07-.01.14-.038.224-.182.185-.324-.586-2.166-2.765-2.345-4.688-2.503-1.974-.16-3.24-.34-3.42-1.673H22.26c.194 0 .35-.157.35-.352 0-.194-.156-.352-.35-.352" fill="#213A8F"/></g></g></symbol><symbol id="icon-twitter" viewBox="0 0 32 26">
    <!-- Generator: Sketch 3.3.3 (12072) - http://www.bohemiancoding.com/sketch -->
    <title>Shape</title>
    <desc>Created with Sketch.</desc>
    
    <g id="Page-1" stroke="none" stroke-width="1" sketch:type="MSPage">
        <path d="M31.52832,3.03296 C30.36928,3.54816 29.12192,3.89568 27.81312,4.0512 C29.14944,3.2512 30.17408,1.984 30.65728,0.47232 C29.40736,1.21408 28.02368,1.75232 26.54976,2.04288 C25.37024,0.78592 23.68896,0 21.82848,0 C18.25664,0 15.36064,2.896 15.36064,6.46848 C15.36064,6.97472 15.4176,7.46816 15.52832,7.9424 C10.15232,7.67232 5.3856,5.0976 2.1952,1.184 C1.6384,2.13888 1.31968,3.24992 1.31968,4.43648 C1.31968,6.68032 2.46144,8.66048 4.19712,9.82016 C3.13728,9.78624 2.13952,9.49504 1.2672,9.01056 C1.26656,9.03744 1.26656,9.06496 1.26656,9.09248 C1.26656,12.22592 3.49632,14.83968 6.45568,15.43488 C5.91296,15.58208 5.34144,15.66144 4.75136,15.66144 C4.33408,15.66144 3.92896,15.62112 3.53408,15.54496 C4.35776,18.11456 6.74624,19.98528 9.57632,20.03712 C7.36256,21.77216 4.57408,22.8064 1.54304,22.8064 C1.02144,22.8064 0.50624,22.77568 0,22.71552 C2.86336,24.55168 6.26304,25.62176 9.91552,25.62176 C21.81376,25.62176 28.31936,15.76576 28.31936,7.21792 C28.31936,6.9376 28.3136,6.65792 28.30144,6.38016 C29.5648,5.47008 30.66176,4.33024 31.52832,3.03296 L31.52832,3.03296 Z" id="Shape" sketch:type="MSShapeGroup"/>
    </g>
</symbol><symbol id="icon-viber" viewBox="0 0 31 31">
    <!-- Generator: Sketch 3.3.3 (12072) - http://www.bohemiancoding.com/sketch -->
    <title>g15</title>
    <desc>Created with Sketch.</desc>
    
    <g id="Page-1" stroke="none" stroke-width="1" sketch:type="MSPage">
        <g id="g15" sketch:type="MSLayerGroup">
            <path d="M28.0456345,22.4253904 C27.1026948,21.6662774 26.094961,20.9848723 25.1030607,20.2887566 C23.1247626,18.8993327 21.315356,18.7914173 19.8391281,21.0267583 C19.0101677,22.2817653 17.8497129,22.3366775 16.6363672,21.7860959 C13.2912164,20.2694419 10.7082107,17.9323619 9.1951501,14.5324112 C8.52587289,13.0282219 8.53463189,11.679561 10.1006956,10.6156797 C10.9297684,10.0530826 11.7651296,9.38728656 11.6983142,8.15788273 C11.6110611,6.55487399 7.71892223,1.19773669 6.18194285,0.632332204 C5.54590491,0.398309772 4.91256206,0.413469575 4.26551923,0.630984666 C0.661416566,1.8429828 -0.831318648,4.80700491 0.59830687,8.31655533 C4.86326462,18.7871501 12.3690513,26.0764323 22.7010742,30.5254413 C23.2900606,30.7787785 23.9445149,30.8800684 24.275897,30.9709149 C26.6281368,30.9946091 29.3837398,28.7282748 30.1795732,26.4791216 C30.9457609,24.3153125 29.3264694,23.4563693 28.0456345,22.4253904 L28.0456345,22.4253904 Z" id="path17-6" sketch:type="MSShapeGroup"/>
            <path d="M16.4608504,1.70575851 C24.01425,2.86733626 27.497748,6.4589742 28.4596656,14.0667245 C28.5488277,14.7694656 28.2870684,15.8268338 29.2896367,15.8463731 C30.3374598,15.8663615 30.085021,14.8246024 30.09378,14.1211875 C30.1823806,6.95610343 23.9348576,0.313751763 16.6792638,0.0688367326 C16.1318265,0.14755541 14.9991085,-0.308698496 14.9284751,0.918234849 C14.8814236,1.74551088 15.8350313,1.60952184 16.4608504,1.70575851 L16.4608504,1.70575851 Z" id="path19-1" sketch:type="MSShapeGroup"/>
            <path d="M17.9383135,3.79174733 C17.2117659,3.70426965 16.2526558,3.36188271 16.082866,4.37006572 C15.9056647,5.42810763 16.9745992,5.32064148 17.6615067,5.4743731 C22.3266833,6.51703063 23.951028,8.2150408 24.7191247,12.8425986 C24.8313072,13.5172659 24.608402,14.5673349 25.7549322,14.3932779 C26.6046672,14.2639143 26.2977654,13.3637589 26.3688481,12.8379945 C26.4064668,8.395274 22.5994474,4.35142478 17.9383135,3.79174733 L17.9383135,3.79174733 Z" id="path21-2" sketch:type="MSShapeGroup"/>
            <path d="M18.3667183,7.42470976 C17.8817169,7.43672531 17.4056991,7.489167 17.2274872,8.00740765 C16.9597763,8.78201741 17.5229349,8.96674241 18.0962,9.05882417 C20.0099286,9.36606283 21.0171009,10.4945136 21.2082267,12.402852 C21.2598824,12.9208681 21.5885693,13.3405139 22.0889551,13.2814468 C22.7822634,13.1987978 22.8449239,12.5816254 22.8237002,11.9955586 C22.8579501,9.8515134 20.4346276,7.37339102 18.3667183,7.42470976 L18.3667183,7.42470976 Z" id="path23" sketch:type="MSShapeGroup"/>
        </g>
    </g>
</symbol><symbol id="icon-vk" viewBox="0 0 32 21">
    <!-- Generator: Sketch 3.3.3 (12072) - http://www.bohemiancoding.com/sketch -->
    <title>vkontakte</title>
    <desc>Created with Sketch.</desc>
    
    <g id="Page-1" stroke="none" stroke-width="1" sketch:type="MSPage">
        <path d="M0.0054438677,1.52695383 C-0.213527289,0.190760493 6.24612006,1.01805207 6.24612006,1.01805207 C6.24612006,1.01805207 9.99600007,10.4350338 11.4740549,10.4350337 C12.9521098,10.4350335 12.2404538,2.44968778 12.2404538,2.44968778 C12.2404538,2.44968778 10.4065708,1.97247588 10.4065709,1.24075096 C10.4065709,0.509026033 12.2404538,0 12.2404538,0 C12.2404538,0 16.986418,6.3958816e-08 17.632617,0 C18.2788159,-6.48236808e-08 18.535979,1.04986625 18.5359797,1.74977699 C18.5359803,2.44968773 18.5359797,10.3077772 18.5359797,10.3077772 L20.0140346,10.3077772 C20.0140346,10.3077772 21.3297427,8.19306598 22.3678669,6.04468412 C23.4059912,3.89630234 24.6670634,1.01805207 24.6670634,1.01805207 L30.935111,1.01805207 C30.935111,1.01805207 32.0847093,1.04961765 31.9478523,2.00416573 C31.7616698,3.30274945 27.5915791,9.46950121 26.7199174,11.580218 C26.0630041,13.1709243 29.4795482,15.3239543 30.935111,17.6249021 C31.8797907,19.118248 31.9478523,20.8700673 31.9478523,20.8700673 L24.502942,20.8700673 L20.7803265,16.5432218 C20.7803265,16.5432218 20.0140346,16.2252048 19.4117571,16.6704783 C18.8094797,17.1157518 18.7822152,18.0066716 18.7822152,18.0066716 L18.7822152,20.8700673 L12.9521098,20.8700673 C12.9521098,20.8700673 8.49057378,19.3429892 4.7133224,12.6620226 C0.936070612,5.98105597 0.224414962,2.86314716 0.0054438677,1.52695383 L0.0054438677,1.52695383 Z" id="vkontakte" sketch:type="MSShapeGroup"/>
    </g>
</symbol><symbol id="icon-whatsup" viewBox="0 0 32 32">
    <!-- Generator: Sketch 3.3.3 (12072) - http://www.bohemiancoding.com/sketch -->
    <title>whatsup</title>
    <desc>Created with Sketch.</desc>
    
    <g id="Page-1" stroke="none" stroke-width="1" sketch:type="MSPage">
        <path d="M16.1717356,0.0001125236 C7.57912571,0.0001125236 0.613633177,6.96532685 0.613633177,15.5579368 C0.613633177,18.4970125 1.42934767,21.2458244 2.84603445,23.5908819 L0.0382519515,31.9377344 L8.65186327,29.1797431 C10.8806484,30.4124247 13.4439252,31.1149267 16.1717356,31.1149267 C24.7637893,31.1149267 31.7292818,24.1499905 31.7292818,15.5580759 C31.7294209,6.96532685 24.7639284,0.0001125236 16.1717356,0.0001125236 L16.1717356,0.0001125236 L16.1717356,0.0001125236 Z M16.1717356,28.6371852 C13.5147178,28.6371852 11.0408706,27.8402468 8.97536742,26.4740466 L3.94881369,28.0837789 L5.582468,23.2262095 C4.01668559,21.0698859 3.09151374,18.4202394 3.09151374,15.5575196 C3.09151374,8.34515699 8.95923393,2.47757585 16.1717356,2.47757585 C23.3838202,2.47757585 29.2516794,8.34515699 29.2516794,15.5575196 C29.2516794,22.7696041 23.3839592,28.6371852 16.1717356,28.6371852 L16.1717356,28.6371852 Z M12.5227867,9.122624 C12.2707706,8.51525396 12.0777251,8.49466985 11.6884353,8.47617198 C11.5549167,8.46977422 11.4101326,8.46365461 11.2517185,8.46365461 C10.7501897,8.46365461 10.230163,8.61135944 9.91681185,8.93194292 C9.5354497,9.32206721 8.58190515,10.2358344 8.58190515,12.1120473 C8.58190515,13.9885383 9.94852248,15.8017472 10.1389254,16.0562668 C10.3298846,16.3105082 12.8042882,20.2174538 16.6540712,21.8125825 C19.6589325,23.0572252 20.551142,22.946377 21.236676,22.7964469 C22.2341703,22.5786448 23.4867406,21.844015 23.8045424,20.9538917 C24.1223442,20.0632122 24.1223442,19.2997924 24.0270732,19.1412392 C23.9316632,18.9819906 23.6774217,18.8869978 23.2960596,18.6957603 C22.9146974,18.5050793 21.0394581,17.58255 20.6899456,17.4555683 C20.3402941,17.3284476 20.017068,17.3672514 19.748223,17.7390169 C19.3771529,18.2526459 19.0202691,18.7804612 18.7247204,19.0933951 C18.492732,19.3390135 18.1194366,19.3732276 17.7984359,19.2367884 C17.3763227,19.0569557 16.1881473,18.6429093 14.7312659,17.3441639 C13.5977496,16.3335958 12.8322436,15.085198 12.6097128,14.7032795 C12.387182,14.3219173 12.5901023,14.0942404 12.7615901,13.8867305 C12.957139,13.6498742 13.1375281,13.4797772 13.3282092,13.2573855 C13.5188902,13.0345765 13.6254269,12.9159398 13.7525476,12.661142 C13.8796683,12.4069006 13.794133,12.1444533 13.6987229,11.9534941 C13.6031738,11.7625348 12.8396149,9.88660011 12.5227867,9.122624 L12.5227867,9.122624 Z" id="whatsup" sketch:type="MSShapeGroup"/>
    </g>
</symbol><symbol id="icon-youtube" viewBox="0 0 32 31">
    <!-- Generator: Sketch 3.4.2 (15855) - http://www.bohemiancoding.com/sketch -->
    <title>1449088535_18-youtube</title>
    <desc>Created with Sketch.</desc>
    
    <g id="Page-1" stroke="none" stroke-width="1" sketch:type="MSPage">
        <g id="1449088535_18-youtube" sketch:type="MSLayerGroup">
            <g id="Group" sketch:type="MSShapeGroup">
                <path d="M26.18304,14.8544 L6.26048,14.8544 C3.09376,14.8544 0.52672,17.424 0.52672,20.59008 L0.52672,25.19872 C0.52672,28.3648 3.09376,30.93376 6.26048,30.93376 L26.18304,30.93376 C29.34912,30.93376 31.9168,28.3648 31.9168,25.19872 L31.9168,20.59008 C31.9168,17.424 29.34912,14.8544 26.18304,14.8544 L26.18304,14.8544 Z M10.44608,18.44224 L8.59392,18.44224 L8.59392,27.64544 L6.80448,27.64544 L6.80448,18.44224 L4.9536,18.44224 L4.9536,16.8768 L10.44608,16.8768 L10.44608,18.44224 L10.44608,18.44224 Z M15.67808,27.64544 L14.09088,27.64544 L14.09088,26.77504 C13.79584,27.09696 13.49184,27.34272 13.1744,27.50848 C12.85696,27.68128 12.5504,27.76192 12.25216,27.76192 C11.88352,27.76192 11.6096,27.6448 11.42208,27.40672 C11.23776,27.16928 11.14368,26.81728 11.14368,26.34176 L11.14368,19.70048 L12.73088,19.70048 L12.73088,25.7952 C12.73088,25.98336 12.76608,26.1184 12.82944,26.20224 C12.89792,26.28864 13.00672,26.32832 13.15584,26.32832 C13.27104,26.32832 13.41952,26.27328 13.59808,26.16192 C13.77792,26.04928 13.94176,25.90848 14.09088,25.7344 L14.09088,19.69984 L15.67808,19.69984 L15.67808,27.64544 L15.67808,27.64544 Z M21.44064,26.00512 C21.44064,26.5664 21.31584,26.99776 21.06688,27.29856 C20.8192,27.59936 20.45696,27.7472 19.98784,27.7472 C19.67552,27.7472 19.39776,27.69088 19.15648,27.5744 C18.91392,27.4592 18.68544,27.28192 18.47744,27.03616 L18.47744,27.6448 L16.87104,27.6448 L16.87104,16.8768 L18.47744,16.8768 L18.47744,20.34496 C18.69248,20.10496 18.91968,19.91872 19.15712,19.79392 C19.39968,19.66656 19.64352,19.60512 19.89056,19.60512 C20.39296,19.60512 20.77568,19.7728 21.04064,20.11136 C21.30688,20.44992 21.43936,20.94592 21.43936,21.59616 L21.43936,26.00512 L21.44064,26.00512 Z M26.94656,23.86432 L23.90912,23.86432 L23.90912,25.36128 C23.90912,25.77856 23.96032,26.06912 24.064,26.23104 C24.17024,26.3936 24.3488,26.47296 24.60288,26.47296 C24.86656,26.47296 25.04896,26.40448 25.1552,26.26752 C25.2576,26.12928 25.31264,25.82848 25.31264,25.36128 L25.31264,24.99968 L26.94656,24.99968 L26.94656,25.40736 C26.94656,26.22144 26.7488,26.8352 26.34752,27.24928 C25.95264,27.65952 25.35744,27.86304 24.5664,27.86304 C23.85408,27.86304 23.2928,27.64608 22.88512,27.2096 C22.47872,26.77568 22.27136,26.17344 22.27136,25.408 L22.27136,21.83936 C22.27136,21.15264 22.49792,20.58752 22.94784,20.15424 C23.39648,19.72096 23.9744,19.50464 24.68544,19.50464 C25.41312,19.50464 25.97184,19.70496 26.3616,20.10688 C26.75136,20.50944 26.94656,21.08544 26.94656,21.83872 L26.94656,23.86432 L26.94656,23.86432 Z" id="Shape"/>
                <path d="M24.61824,20.89344 C24.3648,20.89344 24.18432,20.96448 24.07424,21.11296 C23.9616,21.25248 23.90912,21.4912 23.90912,21.82464 L23.90912,22.62784 L25.31264,22.62784 L25.31264,21.82464 C25.31264,21.4912 25.25632,21.25184 25.14496,21.11296 C25.03808,20.96512 24.85952,20.89344 24.61824,20.89344 L24.61824,20.89344 Z" id="Shape"/>
                <path d="M19.14176,20.86656 C19.02912,20.86656 18.9152,20.89152 18.80576,20.94336 C18.6944,20.99392 18.5856,21.07776 18.47808,21.18656 L18.47808,26.13568 C18.60544,26.26368 18.73152,26.36224 18.8544,26.41856 C18.97664,26.47296 19.10336,26.50368 19.2384,26.50368 C19.4336,26.50368 19.57568,26.44736 19.6672,26.33344 C19.75744,26.2208 19.80352,26.04096 19.80352,25.78688 L19.80352,21.68384 C19.80352,21.41376 19.74976,21.21152 19.63712,21.07264 C19.52064,20.93568 19.35552,20.86656 19.14176,20.86656 L19.14176,20.86656 Z" id="Shape"/>
                <path d="M8.86912,12.09472 L10.88128,12.09472 L10.88128,7.17312 L13.22432,0.2304 L11.17888,0.2304 L9.93344,4.9728 L9.80672,4.9728 L8.4992,0.2304 L6.47232,0.2304 L8.86912,7.39456 L8.86912,12.09472 Z" id="Shape"/>
                <path d="M15.95072,12.31552 C16.76352,12.31552 17.40096,12.1024 17.8656,11.67616 C18.32704,11.248 18.55808,10.66368 18.55808,9.91488 L18.55808,5.39392 C18.55808,4.72768 18.32192,4.1792 17.85152,3.75616 C17.37792,3.3344 16.7712,3.12192 16.03136,3.12192 C15.21856,3.12192 14.57152,3.32288 14.09024,3.72416 C13.61024,4.12544 13.36896,4.66368 13.36896,5.344 L13.36896,9.88032 C13.36896,10.62464 13.60384,11.21344 14.07296,11.65504 C14.54208,12.09472 15.16928,12.31552 15.95072,12.31552 L15.95072,12.31552 Z M15.2096,5.27744 C15.2096,5.08736 15.27808,4.93376 15.41184,4.81344 C15.55072,4.69568 15.72672,4.63872 15.9456,4.63872 C16.18176,4.63872 16.37312,4.69568 16.51904,4.81344 C16.66432,4.93376 16.73664,5.08736 16.73664,5.27744 L16.73664,10.04608 C16.73664,10.27968 16.6656,10.46528 16.5216,10.59904 C16.37888,10.73344 16.18688,10.79936 15.9456,10.79936 C15.70944,10.79936 15.52704,10.73536 15.39904,10.60096 C15.27296,10.46976 15.20896,10.28544 15.20896,10.04544 L15.20896,5.27744 L15.2096,5.27744 Z" id="Shape"/>
                <path d="M21.25696,12.22272 C21.59296,12.22272 21.93792,12.12672 22.29312,11.9424 C22.65216,11.75552 22.99584,11.48224 23.32288,11.12576 L23.32288,12.09536 L25.1104,12.09536 L25.1104,3.34336 L23.32288,3.34336 L23.32288,9.98656 C23.15648,10.17664 22.97152,10.3328 22.77312,10.45696 C22.57088,10.57984 22.40448,10.64128 22.27328,10.64128 C22.1056,10.64128 21.98208,10.5952 21.90976,10.49984 C21.83616,10.40832 21.79456,10.25856 21.79456,10.05312 L21.79456,3.34336 L20.0096,3.34336 L20.0096,10.65792 C20.0096,11.17952 20.11456,11.56928 20.32192,11.82784 C20.53312,12.09024 20.8416,12.22272 21.25696,12.22272 L21.25696,12.22272 Z" id="Shape"/>
            </g>
        </g>
    </g>
</symbol><symbol id="plain-logo-accent" viewBox="0 0 27 46">
    <!-- Generator: Sketch 3.4 (15575) - http://www.bohemiancoding.com/sketch -->
    <title>Oval 1 Copy 2</title>
    <desc>Created with Sketch.</desc>
    
    <g id="Page-1" stroke="none" stroke-width="1" sketch:type="MSPage">
        <g id="Artboard-6" sketch:type="MSArtboardGroup" transform="translate(-262.000000, -176.000000)">
            <path d="M274.528971,199.281492 C273.563471,199.008529 272.856,198.120884 272.856,197.068 C272.856,196.882227 272.878025,196.701598 272.919606,196.528582 L271.3167,195.603144 C270.90379,195.997684 270.344193,196.24 269.728,196.24 C269.088967,196.24 268.510804,195.979388 268.093995,195.55865 L266.520685,196.467001 C266.572408,196.658582 266.6,196.860069 266.6,197.068 C266.6,198.338255 265.570255,199.368 264.3,199.368 C263.029745,199.368 262,198.338255 262,197.068 C262,195.797745 263.029745,194.768 264.3,194.768 C264.896579,194.768 265.440107,194.995135 265.848826,195.367644 L267.479483,194.426184 C267.445757,194.269462 267.428,194.106804 267.428,193.94 C267.428,192.669745 268.457745,191.64 269.728,191.64 C270.34081,191.64 270.897644,191.879662 271.309886,192.270371 L274.512,190.421629 L274.512,186.672623 C274.149591,186.567129 273.824141,186.374855 273.559646,186.119797 L271.95843,187.120348 C272.003866,187.300708 272.028,187.489535 272.028,187.684 C272.028,188.954255 270.998255,189.984 269.728,189.984 C268.457745,189.984 267.428,188.954255 267.428,187.684 C267.428,187.500464 267.449498,187.321949 267.490112,187.150836 L265.822461,186.188018 C265.57217,186.409215 265.273347,186.576753 264.944,186.672623 L264.944,188.603377 C265.900807,188.881895 266.6,189.765295 266.6,190.812 C266.6,192.082255 265.570255,193.112 264.3,193.112 C263.029745,193.112 262,192.082255 262,190.812 C262,189.765295 262.699193,188.881895 263.656,188.603377 L263.656,186.672623 C262.699193,186.394105 262,185.510705 262,184.464 C262,183.193745 263.029745,182.164 264.3,182.164 C264.943429,182.164 265.525148,182.42821 265.942584,182.854056 L267.475664,181.896082 C267.444418,181.744948 267.428,181.588391 267.428,181.428 C267.428,180.157745 268.457745,179.128 269.728,179.128 C270.998255,179.128 272.028,180.157745 272.028,181.428 C272.028,182.698255 270.998255,183.728 269.728,183.728 C269.083292,183.728 268.500539,183.462739 268.082928,183.035403 L266.551583,183.992293 C266.583319,184.144548 266.6,184.302326 266.6,184.464 C266.6,184.684089 266.569087,184.896958 266.511365,185.098502 L268.127909,186.031814 C268.541889,185.630807 269.106122,185.384 269.728,185.384 C270.338431,185.384 270.893319,185.621805 271.305077,186.009827 L272.919093,185.001278 C272.877844,184.828913 272.856,184.649007 272.856,184.464 C272.856,183.384026 273.600345,182.477904 274.604,182.230667 L274.604,180.533333 C273.600345,180.286096 272.856,179.379974 272.856,178.3 C272.856,177.029745 273.885745,176 275.156,176 C276.426255,176 277.456,177.029745 277.456,178.3 C277.456,179.346705 276.756807,180.230105 275.8,180.508623 L275.8,182.255377 C276.756807,182.533895 277.456,183.417295 277.456,184.464 C277.456,185.510705 276.756807,186.394105 275.8,186.672623 L275.8,190.474746 L278.851125,192.236314 C279.144859,191.937294 279.519691,191.718205 279.94,191.614667 L279.94,189.917333 C278.936345,189.670096 278.192,188.763974 278.192,187.684 C278.192,186.413745 279.221745,185.384 280.492,185.384 C281.101759,185.384 281.656098,185.621282 282.067718,186.008547 L283.664902,185.010516 C283.635451,184.863586 283.62,184.711598 283.62,184.556 C283.62,184.360252 283.644454,184.170216 283.690472,183.988779 L282.040826,183.036356 C281.632107,183.408865 281.088579,183.636 280.492,183.636 C279.221745,183.636 278.192,182.606255 278.192,181.336 C278.192,180.065745 279.221745,179.036 280.492,179.036 C281.762255,179.036 282.792,180.065745 282.792,181.336 C282.792,181.543931 282.764408,181.745418 282.712685,181.936999 L284.3453,182.87959 C284.756815,182.492891 285.310743,182.256 285.92,182.256 C287.190255,182.256 288.22,183.285745 288.22,184.556 C288.22,185.602705 287.520807,186.486105 286.564,186.764623 L286.564,188.511377 C287.520807,188.789895 288.22,189.673295 288.22,190.72 C288.22,191.990255 287.190255,193.02 285.92,193.02 C284.649745,193.02 283.62,191.990255 283.62,190.72 C283.62,189.640026 284.364345,188.733904 285.368,188.486667 L285.368,186.789333 C284.941252,186.684209 284.561385,186.459966 284.265683,186.153888 L282.721966,187.11851 C282.767702,187.299424 282.792,187.488874 282.792,187.684 C282.792,188.730705 282.092807,189.614105 281.136,189.892623 L281.136,191.639377 C282.092807,191.917895 282.792,192.801295 282.792,193.848 C282.792,194.063642 282.762323,194.272353 282.706831,194.470271 L284.329147,195.406915 C284.742264,195.011159 285.302735,194.768 285.92,194.768 C287.190255,194.768 288.22,195.797745 288.22,197.068 C288.22,198.338255 287.190255,199.368 285.92,199.368 C284.649745,199.368 283.62,198.338255 283.62,197.068 C283.62,196.879991 283.642558,196.697251 283.685116,196.522338 L282.024169,195.56339 C281.617395,195.926968 281.08051,196.148 280.492,196.148 C279.221745,196.148 278.192,195.118255 278.192,193.848 C278.192,193.684646 278.20903,193.52527 278.241411,193.371549 L275.11,191.563628 L271.959927,193.382324 C272.004396,193.560877 272.028,193.747682 272.028,193.94 C272.028,194.129047 272.005192,194.312766 271.962178,194.488557 L273.56052,195.41136 C273.974074,195.012981 274.536428,194.768 275.156,194.768 C276.426255,194.768 277.456,195.797745 277.456,197.068 C277.456,198.136129 276.727893,199.034199 275.740929,199.292961 L275.740929,202.305308 L278.361702,200.790993 C278.311019,200.601209 278.284,200.40176 278.284,200.196 C278.284,198.925745 279.313745,197.896 280.584,197.896 C281.854255,197.896 282.884,198.925745 282.884,200.196 C282.884,201.466255 281.854255,202.496 280.584,202.496 C279.957073,202.496 279.388731,202.245169 278.973856,201.838389 L275.740929,203.70603 L275.740929,209.205897 L287.631894,209.205897 C287.855073,209.205897 288.036,209.387358 288.036,209.610389 C288.036,209.834505 287.855073,210.015243 287.631894,210.015243 L275.782459,210.015243 C275.991554,211.548265 277.446913,211.753946 279.716261,211.939383 C281.927828,212.120844 284.434439,212.326524 285.10831,214.817098 C285.152368,214.979763 285.056668,215.146042 284.895604,215.190142 C284.868519,215.19701 284.842156,215.200625 284.815794,215.200625 C284.682175,215.200625 284.560113,215.111702 284.523639,214.976148 C284.015527,213.099361 282.188565,212.771141 280.286126,212.597632 C280.337406,212.654745 280.386159,212.714027 280.4313,212.775478 C280.794598,213.266725 281.36338,213.49554 281.965386,213.737729 C282.719789,214.040647 283.499471,214.35477 283.852657,215.216168 C283.916216,215.371242 283.842184,215.548727 283.686898,215.612347 C283.64934,215.627529 283.610338,215.634758 283.572419,215.634758 C283.452885,215.634758 283.339851,215.56427 283.29182,215.446068 C283.035778,214.822159 282.435217,214.580693 281.739679,214.301271 C281.476414,214.195359 281.209899,214.086554 280.954941,213.954254 C281.030417,214.236928 281.090004,214.525025 281.145979,214.805893 C281.247457,215.312683 281.343518,215.792362 281.526972,216.194686 C281.596671,216.347229 281.529861,216.527244 281.377464,216.597009 C281.336656,216.615444 281.294043,216.624481 281.25179,216.624481 C281.13659,216.624481 281.026806,216.558331 280.975886,216.447358 C280.762458,215.980692 280.655202,215.443537 280.551557,214.92518 C280.303099,213.683869 280.088587,212.61173 278.604338,212.447619 C278.600366,212.447258 278.597477,212.446535 278.594226,212.445812 C277.541529,212.327247 276.560697,212.117591 275.9168,211.553326 C276.218706,212.258567 276.667231,212.774033 277.107811,213.277208 C277.289821,213.48578 277.472914,213.696159 277.645174,213.918467 C277.648063,213.921359 277.651674,213.924251 277.654563,213.927504 C277.83549,214.162103 278.04639,214.360915 278.269931,214.573102 C278.568586,214.854692 278.881687,215.153272 279.137006,215.553426 C279.142785,215.560656 279.148563,215.567162 279.153619,215.575476 C279.490193,216.111908 280.482581,217.207182 281.112033,217.562152 C281.25793,217.643845 281.309571,217.828921 281.227595,217.975319 C281.17198,218.074003 281.069058,218.12967 280.963247,218.12967 C280.912688,218.12967 280.861769,218.117018 280.814822,218.090992 C280.460552,217.891095 280.036584,217.519859 279.648007,217.120789 C279.684481,217.494556 279.684481,217.918568 279.631395,218.417044 C279.614783,218.573202 279.483692,218.688151 279.330573,218.688151 C279.319739,218.688151 279.309266,218.687428 279.298432,218.686705 C279.132312,218.669355 279.011333,218.519342 279.029028,218.353062 C279.176731,216.961378 278.904077,216.224327 278.487332,215.680666 C278.671508,216.625927 278.552335,217.876998 277.852102,219.697755 C277.805516,219.818489 277.690676,219.892591 277.568975,219.892591 C277.532501,219.892591 277.495665,219.885723 277.460275,219.872349 C277.303905,219.811621 277.225901,219.636304 277.286209,219.479785 C278.642979,215.953942 277.720289,214.899154 276.651702,213.677001 C276.228456,213.192622 275.776681,212.673181 275.444079,211.979145 C275.539779,213.167319 275.693621,214.142221 275.826878,214.987354 C276.228817,217.531065 276.470775,219.06734 274.476609,221.873122 C274.417745,221.956261 274.324212,222 274.229595,222 C274.168564,222 274.107533,221.982649 274.054086,221.944333 C273.917578,221.846734 273.885799,221.657682 273.982943,221.521405 C275.448052,219.459904 275.618145,218.1763 275.432162,216.504471 C275.308655,216.717742 275.164203,216.896312 275.021917,217.071989 C274.643091,217.540825 274.28521,217.983633 274.360686,219.227474 C274.370798,219.394838 274.24368,219.539067 274.076476,219.548827 C274.070337,219.54955 274.064197,219.54955 274.058058,219.54955 C273.898799,219.54955 273.765181,219.425202 273.75543,219.264345 C273.66587,217.785183 274.136062,217.20429 274.550641,216.690993 C274.964136,216.179142 275.320934,215.737056 275.106422,214.295488 C275.012167,213.667241 274.920078,212.968145 274.851824,212.173981 C274.526084,212.837652 273.987276,213.561329 273.093838,214.31573 L273.093477,214.31573 C272.027418,215.215446 272.316684,216.196855 272.651091,217.331891 C272.870298,218.076171 273.097088,218.845032 272.956247,219.64498 C272.930607,219.792462 272.802405,219.895483 272.658314,219.895483 C272.640618,219.895483 272.622923,219.894037 272.605228,219.891145 C272.440191,219.862227 272.330407,219.704985 272.359297,219.53979 C272.47522,218.880457 272.269376,218.180638 272.070031,217.504315 C271.979748,217.197783 271.886938,216.880768 271.822656,216.559054 C271.795572,216.677618 271.770292,216.796183 271.744652,216.916916 C271.520751,217.965198 271.289266,219.050351 269.883743,219.972478 C269.832824,220.005734 269.774682,220.022 269.717984,220.022 C269.619395,220.022 269.522251,219.973924 269.464109,219.885 C269.372382,219.744386 269.411745,219.55678 269.551503,219.464965 C270.748291,218.679837 270.934996,217.804341 271.151675,216.789676 C271.24593,216.348675 271.347047,215.87984 271.546391,215.406667 C271.458275,215.459804 271.371242,215.511133 271.289988,215.55921 C270.401605,216.085158 269.911912,216.373978 269.715456,217.491664 C269.689816,217.639146 269.561975,217.74289 269.417523,217.74289 C269.399828,217.74289 269.382854,217.741444 269.364798,217.737829 C269.200122,217.708911 269.089616,217.551669 269.118506,217.386474 C269.363714,215.994066 270.04228,215.592466 270.981582,215.036876 C271.477054,214.743719 272.038974,214.411883 272.702011,213.852679 C272.702372,213.852679 272.702733,213.851956 272.702733,213.851956 C273.749652,212.968145 274.258847,212.149039 274.507305,211.427532 C274.426412,211.526577 274.341546,211.622368 274.24693,211.711291 C273.345908,212.556424 271.877909,212.920069 269.88266,212.797167 C268.996444,212.960916 268.896772,213.443849 268.761348,214.508759 C268.638202,215.477155 268.484721,216.682318 267.426607,217.935557 C267.366659,218.007129 267.281432,218.043639 267.195122,218.043639 C267.125785,218.043639 267.056448,218.019781 266.99975,217.971705 C266.87191,217.863623 266.855659,217.672402 266.963637,217.544439 C267.906189,216.427477 268.046669,215.321358 268.160064,214.432487 C268.238791,213.815447 268.316073,213.220095 268.66637,212.789576 C268.336658,212.810903 268.036919,212.851027 267.764626,212.906694 C266.990361,213.22877 266.956775,213.636154 266.89755,214.371036 C266.857464,214.863006 266.808712,215.474986 266.478999,216.152393 C266.426996,216.260113 266.319018,216.32301 266.206706,216.32301 C266.162287,216.32301 266.117146,216.31325 266.074171,216.292646 C265.923579,216.219266 265.861104,216.037805 265.934413,215.886708 C266.213568,215.31196 266.25582,214.786734 266.293378,214.322237 C266.319379,213.998354 266.346103,213.681339 266.448303,213.388181 C265.282571,214.062335 265.098756,215.056396 265.087922,215.122908 C265.063365,215.271113 264.934441,215.376303 264.789266,215.376303 C264.772654,215.376303 264.755681,215.374857 264.738708,215.371965 C264.574032,215.344493 264.462443,215.188696 264.489889,215.02314 C264.638675,214.131739 265.462054,212.810903 267.543975,212.342068 C267.547225,212.340622 267.549392,212.339176 267.552642,212.33773 C267.588755,212.32291 267.625229,212.316403 267.661703,212.31568 C268.28646,212.188079 269.020279,212.134219 269.879771,212.189525 C271.697344,212.308812 273.063503,211.990351 273.832351,211.268844 C274.260653,210.867605 274.440135,210.409614 274.506583,210.015243 L262.637286,210.015243 C262.414107,210.015243 262.23318,209.834505 262.23318,209.610389 C262.23318,209.387358 262.414107,209.205897 262.637286,209.205897 L274.528612,209.205897 L274.528612,203.70603 L271.287099,201.832497 C271.033087,202.080618 270.720715,202.269466 270.372587,202.375522 C270.141339,202.453646 269.893616,202.496 269.636,202.496 C268.365745,202.496 267.336,201.466255 267.336,200.196 C267.336,198.925745 268.365745,197.896 269.636,197.896 C270.531722,197.896 271.307853,198.408029 271.687665,199.155358 C271.862661,199.474647 271.963859,199.839774 271.963859,200.228987 C271.963859,200.419846 271.937496,200.603838 271.892716,200.7806 L274.528612,202.304586 L274.528971,199.281492 Z M281.674164,200.882236 C281.799485,200.683566 281.872,200.448252 281.872,200.196 C281.872,199.484657 281.295343,198.908 280.584,198.908 C280.09006,198.908 279.66106,199.18604 279.444972,199.594149 L279.480803,199.614838 C279.376075,199.795576 279.315405,200.005233 279.315405,200.228987 C279.315405,200.453464 279.376798,200.663843 279.481887,200.845304 C279.695315,201.213288 280.091476,201.461261 280.546501,201.461261 C281.000804,201.461261 281.397326,201.213288 281.610394,200.845304 L281.674164,200.882236 Z M270.033684,201.421434 C270.550403,201.253864 270.924,200.768561 270.924,200.196 C270.924,199.484657 270.347343,198.908 269.636,198.908 C268.924657,198.908 268.348,199.484657 268.348,200.196 C268.348,200.457724 268.426064,200.701216 268.560177,200.904462 L268.65987,200.84675 C268.872937,201.214011 269.268737,201.461261 269.722679,201.461261 C269.830152,201.461261 269.934372,201.447423 270.033684,201.421434 Z M276.249875,197.748316 C276.372916,197.550899 276.444,197.317751 276.444,197.068 C276.444,196.356657 275.867343,195.78 275.156,195.78 C274.444657,195.78 273.868,196.356657 273.868,197.068 C273.868,197.310087 273.934789,197.536576 274.050946,197.730043 L274.069614,197.719255 C274.282682,198.086876 274.679565,198.335572 275.13459,198.335572 C275.590338,198.335572 275.98686,198.086876 276.199566,197.719255 L276.249875,197.748316 Z M264.3,185.752 C265.011343,185.752 265.588,185.175343 265.588,184.464 C265.588,183.752657 265.011343,183.176 264.3,183.176 C263.588657,183.176 263.012,183.752657 263.012,184.464 C263.012,185.175343 263.588657,185.752 264.3,185.752 Z M264.3,192.1 C265.011343,192.1 265.588,191.523343 265.588,190.812 C265.588,190.100657 265.011343,189.524 264.3,189.524 C263.588657,189.524 263.012,190.100657 263.012,190.812 C263.012,191.523343 263.588657,192.1 264.3,192.1 Z M269.728,182.716 C270.439343,182.716 271.016,182.139343 271.016,181.428 C271.016,180.716657 270.439343,180.14 269.728,180.14 C269.016657,180.14 268.44,180.716657 268.44,181.428 C268.44,182.139343 269.016657,182.716 269.728,182.716 Z M275.156,179.588 C275.867343,179.588 276.444,179.011343 276.444,178.3 C276.444,177.588657 275.867343,177.012 275.156,177.012 C274.444657,177.012 273.868,177.588657 273.868,178.3 C273.868,179.011343 274.444657,179.588 275.156,179.588 Z M275.156,185.752 C275.867343,185.752 276.444,185.175343 276.444,184.464 C276.444,183.752657 275.867343,183.176 275.156,183.176 C274.444657,183.176 273.868,183.752657 273.868,184.464 C273.868,185.175343 274.444657,185.752 275.156,185.752 Z M269.728,188.972 C270.439343,188.972 271.016,188.395343 271.016,187.684 C271.016,186.972657 270.439343,186.396 269.728,186.396 C269.016657,186.396 268.44,186.972657 268.44,187.684 C268.44,188.395343 269.016657,188.972 269.728,188.972 Z M280.492,182.624 C281.203343,182.624 281.78,182.047343 281.78,181.336 C281.78,180.624657 281.203343,180.048 280.492,180.048 C279.780657,180.048 279.204,180.624657 279.204,181.336 C279.204,182.047343 279.780657,182.624 280.492,182.624 Z M285.92,185.844 C286.631343,185.844 287.208,185.267343 287.208,184.556 C287.208,183.844657 286.631343,183.268 285.92,183.268 C285.208657,183.268 284.632,183.844657 284.632,184.556 C284.632,185.267343 285.208657,185.844 285.92,185.844 Z M285.92,192.008 C286.631343,192.008 287.208,191.431343 287.208,190.72 C287.208,190.008657 286.631343,189.432 285.92,189.432 C285.208657,189.432 284.632,190.008657 284.632,190.72 C284.632,191.431343 285.208657,192.008 285.92,192.008 Z M280.492,188.972 C281.203343,188.972 281.78,188.395343 281.78,187.684 C281.78,186.972657 281.203343,186.396 280.492,186.396 C279.780657,186.396 279.204,186.972657 279.204,187.684 C279.204,188.395343 279.780657,188.972 280.492,188.972 Z M280.492,195.136 C281.203343,195.136 281.78,194.559343 281.78,193.848 C281.78,193.136657 281.203343,192.56 280.492,192.56 C279.780657,192.56 279.204,193.136657 279.204,193.848 C279.204,194.559343 279.780657,195.136 280.492,195.136 Z M285.92,198.356 C286.631343,198.356 287.208,197.779343 287.208,197.068 C287.208,196.356657 286.631343,195.78 285.92,195.78 C285.208657,195.78 284.632,196.356657 284.632,197.068 C284.632,197.779343 285.208657,198.356 285.92,198.356 Z M269.728,195.228 C270.439343,195.228 271.016,194.651343 271.016,193.94 C271.016,193.228657 270.439343,192.652 269.728,192.652 C269.016657,192.652 268.44,193.228657 268.44,193.94 C268.44,194.651343 269.016657,195.228 269.728,195.228 Z M264.3,198.356 C265.011343,198.356 265.588,197.779343 265.588,197.068 C265.588,196.356657 265.011343,195.78 264.3,195.78 C263.588657,195.78 263.012,196.356657 263.012,197.068 C263.012,197.779343 263.588657,198.356 264.3,198.356 Z" id="Oval-1-Copy-2" sketch:type="MSShapeGroup"/>
        </g>
    </g>
</symbol><symbol id="plain-logo-small" viewBox="0 0 27 46">
    <!-- Generator: Sketch 3.3.3 (12072) - http://www.bohemiancoding.com/sketch -->
    <title>Oval 1 Copy 2</title>
    <desc>Created with Sketch.</desc>
    
    <g id="Page-1" stroke="none" stroke-width="1" sketch:type="MSPage">
        <g id="Artboard-4" sketch:type="MSArtboardGroup" transform="translate(-56.000000, -2.000000)">
            <path d="M68.5289707,25.2814916 C67.5634714,25.008529 66.856,24.1208839 66.856,23.068 C66.856,22.882227 66.8780249,22.7015982 66.9196058,22.5285824 L65.3167001,21.6031444 C64.9037903,21.9976843 64.3441931,22.24 63.728,22.24 C63.0889673,22.24 62.5108038,21.9793882 62.0939948,21.55865 L62.0939948,21.55865 L60.5206848,22.467001 C60.5724077,22.6585816 60.6,22.8600685 60.6,23.068 C60.6,24.3382549 59.5702549,25.368 58.3,25.368 C57.0297451,25.368 56,24.3382549 56,23.068 C56,21.7977451 57.0297451,20.768 58.3,20.768 C58.8965785,20.768 59.440107,20.9951346 59.8488261,21.3676444 L61.4794831,20.4261842 C61.4457567,20.2694615 61.428,20.1068044 61.428,19.94 C61.428,18.6697451 62.4577451,17.64 63.728,17.64 C64.34081,17.64 64.8976439,17.8796623 65.3098858,18.270371 L68.512,16.4216295 L68.512,16.4216295 L68.512,12.6726227 C68.1495913,12.5671291 67.8241414,12.3748555 67.559646,12.1197974 L65.9584298,13.1203483 C66.003866,13.3007076 66.028,13.4895354 66.028,13.684 C66.028,14.9542549 64.9982549,15.984 63.728,15.984 C62.4577451,15.984 61.428,14.9542549 61.428,13.684 C61.428,13.5004642 61.4494976,13.3219494 61.4901121,13.1508363 L61.4901121,13.1508363 L59.8224613,12.1880176 C59.57217,12.4092151 59.2733465,12.5767532 58.944,12.6726227 L58.944,12.6726227 L58.944,14.6033773 C59.9008075,14.8818946 60.6,15.7652947 60.6,16.812 C60.6,18.0822549 59.5702549,19.112 58.3,19.112 C57.0297451,19.112 56,18.0822549 56,16.812 C56,15.7652947 56.6991925,14.8818946 57.656,14.6033773 L57.656,12.6726227 C56.6991925,12.3941054 56,11.5107053 56,10.464 C56,9.19374508 57.0297451,8.164 58.3,8.164 C58.9434289,8.164 59.5251482,8.42820985 59.9425844,8.85405601 L61.475664,7.89608159 C61.4444176,7.74494815 61.428,7.58839134 61.428,7.428 C61.428,6.15774508 62.4577451,5.128 63.728,5.128 C64.9982549,5.128 66.028,6.15774508 66.028,7.428 C66.028,8.69825492 64.9982549,9.728 63.728,9.728 C63.0832921,9.728 62.5005394,9.46273872 62.0829282,9.0354026 L60.5515834,9.99229301 L60.5515834,9.99229301 C60.5833187,10.1445477 60.6,10.3023258 60.6,10.464 C60.6,10.6840893 60.5690867,10.8969584 60.5113652,11.0985022 L62.1279091,12.0318143 C62.541889,11.6308075 63.106122,11.384 63.728,11.384 C64.3384305,11.384 64.8933188,11.6218047 65.3050772,12.0098265 L66.9190926,11.0012778 L66.9190926,11.0012778 C66.8778437,10.8289126 66.856,10.6490072 66.856,10.464 C66.856,9.38402626 67.6003451,8.47790363 68.604,8.23066747 L68.604,6.53333253 C67.6003451,6.28609637 66.856,5.37997374 66.856,4.3 C66.856,3.02974508 67.8857451,2 69.156,2 C70.4262549,2 71.456,3.02974508 71.456,4.3 C71.456,5.34670529 70.7568075,6.23010541 69.8,6.50862274 L69.8,6.50862274 L69.8,8.25537726 C70.7568075,8.53389459 71.456,9.41729471 71.456,10.464 C71.456,11.5107053 70.7568075,12.3941054 69.8,12.6726227 L69.8,12.6726227 L69.8,16.4747457 L72.8511253,18.2363137 C73.1448585,17.9372943 73.519691,17.7182046 73.94,17.6146675 L73.94,15.9173325 C72.9363451,15.6700964 72.192,14.7639737 72.192,13.684 C72.192,12.4137451 73.2217451,11.384 74.492,11.384 C75.1017593,11.384 75.6560984,11.621282 76.0677183,12.008547 L77.6649021,11.0105158 C77.6354509,10.8635864 77.62,10.7115976 77.62,10.556 C77.62,10.3602523 77.6444535,10.170216 77.6904724,9.98877929 L76.0408261,9.03635555 C75.632107,9.40886545 75.0885785,9.636 74.492,9.636 C73.2217451,9.636 72.192,8.60625492 72.192,7.336 C72.192,6.06574508 73.2217451,5.036 74.492,5.036 C75.7622549,5.036 76.792,6.06574508 76.792,7.336 C76.792,7.54393146 76.7644077,7.74541839 76.7126848,7.93699905 L78.3452997,8.87958976 L78.3452997,8.87958976 C78.7568155,8.49289101 79.3107433,8.256 79.92,8.256 C81.1902549,8.256 82.22,9.28574508 82.22,10.556 C82.22,11.6027053 81.5208075,12.4861054 80.564,12.7646227 L80.564,12.7646227 L80.564,14.5113773 C81.5208075,14.7898946 82.22,15.6732947 82.22,16.72 C82.22,17.9902549 81.1902549,19.02 79.92,19.02 C78.6497451,19.02 77.62,17.9902549 77.62,16.72 C77.62,15.6400263 78.3643451,14.7339036 79.368,14.4866675 L79.368,12.7893325 C78.9412522,12.6842093 78.5613849,12.4599661 78.2656832,12.1538879 L78.2656832,12.1538879 L76.7219658,13.1185096 C76.7677017,13.2994241 76.792,13.4888745 76.792,13.684 C76.792,14.7307053 76.0928075,15.6141054 75.136,15.8926227 L75.136,15.8926227 L75.136,17.6393773 C76.0928075,17.9178946 76.792,18.8012947 76.792,19.848 C76.792,20.0636421 76.7623233,20.2723528 76.7068313,20.4702709 L78.3291471,21.4069153 C78.7422635,21.0111593 79.3027353,20.768 79.92,20.768 C81.1902549,20.768 82.22,21.7977451 82.22,23.068 C82.22,24.3382549 81.1902549,25.368 79.92,25.368 C78.6497451,25.368 77.62,24.3382549 77.62,23.068 C77.62,22.8799909 77.6425583,22.6972506 77.6851158,22.522338 L76.0241689,21.5633898 L76.0241689,21.5633898 C75.6173951,21.9269678 75.08051,22.148 74.492,22.148 C73.2217451,22.148 72.192,21.1182549 72.192,19.848 C72.192,19.684646 72.2090297,19.5252696 72.2414106,19.3715491 L69.11,17.5636283 L65.9599266,19.382324 C66.0043959,19.560877 66.028,19.747682 66.028,19.94 C66.028,20.1290466 66.0051921,20.312766 65.9621779,20.4885569 L65.9621779,20.4885569 L67.5605201,21.4113602 C67.9740738,21.0129807 68.5364278,20.768 69.156,20.768 C70.4262549,20.768 71.456,21.7977451 71.456,23.068 C71.456,24.1361289 70.7278929,25.0341992 69.7409293,25.2929605 L69.7409293,28.3053085 L72.3617025,26.7909929 C72.311019,26.6012088 72.284,26.4017597 72.284,26.196 C72.284,24.9257451 73.3137451,23.896 74.584,23.896 C75.8542549,23.896 76.884,24.9257451 76.884,26.196 C76.884,27.4662549 75.8542549,28.496 74.584,28.496 C73.9570734,28.496 73.3887315,28.2451689 72.9738564,27.8383887 L69.7409293,29.7060303 L69.7409293,35.2058969 L81.6318943,35.2058969 C81.8550733,35.2058969 82.036,35.3873582 82.036,35.6103893 C82.036,35.8345048 81.8550733,36.0152431 81.6318943,36.0152431 L69.7824593,36.0152431 C69.9915543,37.5482654 71.4469128,37.7539455 73.7162608,37.939383 C75.9278279,38.1208443 78.4344392,38.3265245 79.1083099,40.8170983 C79.1523679,40.9797628 79.0566681,41.146042 78.8956036,41.1901422 C78.8685188,41.1970102 78.8421562,41.200625 78.8157936,41.200625 C78.6821751,41.200625 78.5601128,41.1117018 78.5236385,40.976148 C78.015527,39.0993615 76.1885646,38.7711407 74.2861258,38.5976319 C74.3374064,38.6547452 74.3861591,38.7140274 74.4313005,38.7754784 C74.7945984,39.2667251 75.36338,39.4955398 75.9653856,39.7377292 C76.7197885,40.0406466 77.4994706,40.3547697 77.8526569,41.2161685 C77.916216,41.371242 77.8421841,41.548727 77.6868977,41.6123469 C77.6493401,41.6275289 77.6103379,41.6347584 77.5724191,41.6347584 C77.4528847,41.6347584 77.3398507,41.5642705 77.2918202,41.4460676 C77.0357783,40.822159 76.4352172,40.5806926 75.7396786,40.3012712 C75.476414,40.1953586 75.2098992,40.0865541 74.9549406,39.9542537 C75.030417,40.2369284 75.0900037,40.5250252 75.145979,40.8058925 C75.2474569,41.3126827 75.3435177,41.7923622 75.5269724,42.1946857 C75.5966707,42.3472288 75.5298614,42.5272442 75.3774641,42.5970091 C75.3366563,42.6154444 75.2940428,42.6244814 75.2517904,42.6244814 C75.1365896,42.6244814 75.0268057,42.5583311 74.9758862,42.4473578 C74.7624577,41.9806915 74.6552018,41.4435373 74.5515572,40.9251798 C74.3030989,39.6838692 74.088587,38.6117295 72.6043381,38.4476192 C72.6003656,38.4472577 72.5974766,38.4465347 72.5942264,38.4458118 C71.5415291,38.3272474 70.5606969,38.117591 69.9168001,37.553326 C70.2187058,38.2585669 70.6672306,38.7740325 71.1078106,39.277208 C71.2898207,39.48578 71.4729142,39.6961594 71.6451738,39.9184675 C71.6480628,39.9213593 71.6516741,39.9242511 71.6545632,39.9275044 C71.8354899,40.1621027 72.0463905,40.3609148 72.2699306,40.5731016 C72.5685861,40.8546919 72.8816868,41.1532716 73.1370065,41.5534262 C73.1427846,41.5606557 73.1485627,41.5671623 73.1536185,41.5754762 C73.4901927,42.1119075 74.4825811,43.2071817 75.1120327,43.5621517 C75.2579297,43.6438454 75.3095714,43.8289214 75.2275946,43.9753194 C75.1719805,44.0740026 75.0690581,44.12967 74.9632467,44.12967 C74.9126883,44.12967 74.8617688,44.1170183 74.8148218,44.090992 C74.4605521,43.8910954 74.0365842,43.5198589 73.648007,43.1207887 C73.6844813,43.4945556 73.6844813,43.9185676 73.631395,44.4170439 C73.614783,44.5732018 73.4836924,44.6881513 73.3305728,44.6881513 C73.3197388,44.6881513 73.309266,44.6874284 73.2984321,44.6867054 C73.1323118,44.6693545 73.0113329,44.5193417 73.0290283,44.3530625 C73.1767309,42.9613776 72.9040769,42.2243268 72.4873316,41.6806659 C72.6715085,42.6259273 72.5523352,43.8769978 71.8521019,45.6977555 C71.805516,45.8184887 71.6906763,45.8925914 71.5689751,45.8925914 C71.5325008,45.8925914 71.4956655,45.8857233 71.4602746,45.8723487 C71.3039048,45.8116206 71.2259005,45.6363045 71.2862094,45.4797851 C72.6429791,41.9539423 71.720289,40.8991535 70.651702,39.6770011 C70.2284563,39.1926224 69.7766812,38.6731806 69.4440795,37.9791455 C69.5397792,39.1673191 69.6936211,40.1422215 69.8268785,40.9873538 C70.2288174,43.5310647 70.4707753,45.0673403 68.4766091,47.8731217 C68.4177448,47.9562613 68.3242118,48 68.2295954,48 C68.1685643,48 68.1075331,47.9826491 68.0540857,47.9443326 C67.9175781,47.8467339 67.8857986,47.6576817 67.9829429,47.521405 C69.4480519,45.4599039 69.6181447,44.1763004 69.4321621,42.5044711 C69.3086553,42.7177423 69.1642028,42.8963118 69.0219172,43.0719894 C68.6430906,43.5408246 68.2852096,43.9836334 68.3606861,45.2274744 C68.3707977,45.3948381 68.2436796,45.5390673 68.0764758,45.5488271 C68.0703366,45.5495501 68.0641974,45.5495501 68.0580582,45.5495501 C67.8987993,45.5495501 67.7651808,45.4252021 67.7554303,45.264345 C67.6658697,43.7851827 68.1360625,43.2042898 68.550641,42.6909931 C68.9641362,42.1791422 69.3209337,41.7370563 69.1064219,40.2954876 C69.0121666,39.6672412 68.9200782,38.9681455 68.8518244,38.1739814 C68.5260841,38.8376524 67.9872765,39.5613286 67.093838,40.3157303 L67.0934769,40.3157303 C66.0274178,41.2154455 66.3166838,42.1968545 66.6510912,43.3318911 C66.8702978,44.0761714 67.0970882,44.8450322 66.9562471,45.6449799 C66.9306067,45.7924624 66.8024052,45.8954832 66.6583139,45.8954832 C66.6406184,45.8954832 66.622923,45.8940373 66.6052276,45.8911455 C66.4401907,45.8622273 66.3304068,45.704985 66.3592973,45.5397902 C66.4752204,44.8804569 66.2693756,44.1806382 66.0700312,43.5043154 C65.9797485,43.1977833 65.8869378,42.8807683 65.8226564,42.5590541 C65.7955716,42.6776184 65.7702924,42.7961827 65.7446521,42.9169159 C65.5207508,43.9651981 65.2892657,45.0503509 63.8837433,45.9724777 C63.8328238,46.0057336 63.7746817,46.022 63.7179841,46.022 C63.6193953,46.022 63.5222511,45.9739236 63.4641089,45.8850004 C63.3723816,45.744386 63.4117449,45.5567796 63.5515027,45.4649645 C64.7482913,44.6798374 64.9349961,43.804341 65.1516748,42.7896762 C65.24593,42.3486747 65.3470467,41.8798395 65.5463911,41.4066667 C65.4582751,41.4598037 65.3712425,41.5111334 65.289988,41.5592098 C64.4016054,42.0851583 63.9119116,42.3739781 63.7154562,43.4916637 C63.6898159,43.6391462 63.5619755,43.74289 63.417523,43.74289 C63.3998276,43.74289 63.3828544,43.7414441 63.3647979,43.7378293 C63.2001221,43.7089112 63.089616,43.5516689 63.1185064,43.386474 C63.3637145,41.9940662 64.0422799,41.5924656 64.981582,41.0368761 C65.4770539,40.7437186 66.038974,40.411883 66.7020107,39.8526787 C66.7023719,39.8526787 66.702733,39.8519558 66.702733,39.8519558 C67.7496522,38.9681455 68.2588471,38.1490395 68.5073053,37.4275322 C68.4264119,37.5265768 68.3415461,37.6223681 68.2469297,37.7112913 C67.3459076,38.5564236 65.8779095,38.9200691 63.8826599,38.797167 C62.9964441,38.9609159 62.8967719,39.4438487 62.7613478,40.5087588 C62.638202,41.4771546 62.4847213,42.6823176 61.4266071,43.935557 C61.3666593,44.0071294 61.2814323,44.0436385 61.195122,44.0436385 C61.1257848,44.0436385 61.0564476,44.0197811 60.9997501,43.9717047 C60.8719096,43.8636232 60.8556587,43.672402 60.9636369,43.5444393 C61.9061892,42.4274766 62.0466692,41.3213582 62.1600644,40.4324872 C62.238791,39.8154466 62.3160731,39.2200947 62.6663703,38.789576 C62.3366575,38.8109031 62.0369187,38.851027 61.7646258,38.9066944 C60.9903607,39.2287701 60.9567755,39.6361542 60.8975499,40.3710362 C60.8574644,40.8630058 60.8087117,41.4749857 60.478999,42.1523929 C60.4269961,42.2601129 60.3190179,42.3230099 60.2067061,42.3230099 C60.162287,42.3230099 60.1171456,42.31325 60.074171,42.2926458 C59.9235793,42.2192661 59.8611036,42.0378048 59.9344132,41.8867076 C60.2135676,41.3119598 60.2558199,40.7867343 60.2933776,40.3222368 C60.319379,39.9983538 60.3461027,39.6813388 60.4483028,39.3881813 C59.2825715,40.0623352 59.0987557,41.0563958 59.0879218,41.1229075 C59.0633649,41.2711129 58.9344411,41.3763026 58.7892664,41.3763026 C58.7726543,41.3763026 58.7556812,41.3748567 58.738708,41.3719649 C58.5740322,41.3444927 58.4624427,41.1886963 58.4898886,41.02314 C58.6386747,40.1317387 59.4620537,38.8109031 61.5439747,38.342068 C61.5472249,38.3406221 61.5493917,38.3391762 61.5526418,38.3377303 C61.5887549,38.3229097 61.6252292,38.3164031 61.6617034,38.3156802 C62.2864603,38.1880789 63.0202788,38.1342189 63.8797709,38.1895249 C65.6973439,38.3088121 67.063503,37.9903512 67.8323512,37.2688439 C68.2606527,36.8676049 68.4401349,36.409614 68.506583,36.0152431 L56.6372859,36.0152431 C56.4141069,36.0152431 56.2331802,35.8345048 56.2331802,35.6103893 C56.2331802,35.3873582 56.4141069,35.2058969 56.6372859,35.2058969 L68.528612,35.2058969 L68.528612,29.7060303 L65.2870989,27.8324971 C65.0330866,28.0806175 64.7207154,28.2694662 64.372587,28.3755219 C64.1413392,28.4536462 63.8936157,28.496 63.636,28.496 C62.3657451,28.496 61.336,27.4662549 61.336,26.196 C61.336,24.9257451 62.3657451,23.896 63.636,23.896 C64.5317219,23.896 65.307853,24.4080287 65.6876653,25.155358 C65.8626613,25.4746474 65.9638587,25.839774 65.9638587,26.2289868 C65.9638587,26.4198465 65.9374961,26.6038381 65.8927159,26.7806001 L68.528612,28.3045855 L68.5289707,25.2814916 Z M75.6741638,26.8822357 C75.799485,26.6835664 75.872,26.4482516 75.872,26.196 C75.872,25.4846572 75.2953428,24.908 74.584,24.908 C74.0900603,24.908 73.6610605,25.1860403 73.4449724,25.5941489 L73.4808033,25.6148381 C73.3760753,25.7955764 73.3154053,26.0052328 73.3154053,26.2289868 C73.3154053,26.4534638 73.3767976,26.6638432 73.4818867,26.8453045 C73.6953152,27.2132876 74.0914761,27.4612606 74.5465013,27.4612606 C75.0008043,27.4612606 75.3973263,27.2132876 75.6103937,26.8453045 L75.6741638,26.8822357 Z M64.0336836,27.4214335 C64.550403,27.2538636 64.924,26.7685609 64.924,26.196 C64.924,25.4846572 64.3473428,24.908 63.636,24.908 C62.9246572,24.908 62.348,25.4846572 62.348,26.196 C62.348,26.4577245 62.4260636,26.7012162 62.5601772,26.9044616 L62.6598699,26.8467504 C62.8729373,27.2140106 63.268737,27.4612606 63.7226788,27.4612606 C63.8301524,27.4612606 63.9343721,27.4474234 64.0336836,27.4214335 Z M70.2498755,23.7483161 C70.3729157,23.550899 70.444,23.3177508 70.444,23.068 C70.444,22.3566572 69.8673428,21.78 69.156,21.78 C68.4446572,21.78 67.868,22.3566572 67.868,23.068 C67.868,23.3100875 67.9347889,23.5365755 68.0509457,23.7300431 L68.0696144,23.7192548 C68.2826817,24.0868765 68.6795648,24.3355724 69.1345901,24.3355724 C69.5903376,24.3355724 69.9868596,24.0868765 70.1995658,23.7192548 L70.2498755,23.7483161 Z M58.3,11.752 C59.0113428,11.752 59.588,11.1753428 59.588,10.464 C59.588,9.75265724 59.0113428,9.176 58.3,9.176 C57.5886572,9.176 57.012,9.75265724 57.012,10.464 C57.012,11.1753428 57.5886572,11.752 58.3,11.752 Z M58.3,18.1 C59.0113428,18.1 59.588,17.5233428 59.588,16.812 C59.588,16.1006572 59.0113428,15.524 58.3,15.524 C57.5886572,15.524 57.012,16.1006572 57.012,16.812 C57.012,17.5233428 57.5886572,18.1 58.3,18.1 Z M63.728,8.716 C64.4393428,8.716 65.016,8.13934276 65.016,7.428 C65.016,6.71665724 64.4393428,6.14 63.728,6.14 C63.0166572,6.14 62.44,6.71665724 62.44,7.428 C62.44,8.13934276 63.0166572,8.716 63.728,8.716 Z M69.156,5.588 C69.8673428,5.588 70.444,5.01134276 70.444,4.3 C70.444,3.58865724 69.8673428,3.012 69.156,3.012 C68.4446572,3.012 67.868,3.58865724 67.868,4.3 C67.868,5.01134276 68.4446572,5.588 69.156,5.588 Z M69.156,11.752 C69.8673428,11.752 70.444,11.1753428 70.444,10.464 C70.444,9.75265724 69.8673428,9.176 69.156,9.176 C68.4446572,9.176 67.868,9.75265724 67.868,10.464 C67.868,11.1753428 68.4446572,11.752 69.156,11.752 Z M63.728,14.972 C64.4393428,14.972 65.016,14.3953428 65.016,13.684 C65.016,12.9726572 64.4393428,12.396 63.728,12.396 C63.0166572,12.396 62.44,12.9726572 62.44,13.684 C62.44,14.3953428 63.0166572,14.972 63.728,14.972 Z M74.492,8.624 C75.2033428,8.624 75.78,8.04734276 75.78,7.336 C75.78,6.62465724 75.2033428,6.048 74.492,6.048 C73.7806572,6.048 73.204,6.62465724 73.204,7.336 C73.204,8.04734276 73.7806572,8.624 74.492,8.624 Z M79.92,11.844 C80.6313428,11.844 81.208,11.2673428 81.208,10.556 C81.208,9.84465724 80.6313428,9.268 79.92,9.268 C79.2086572,9.268 78.632,9.84465724 78.632,10.556 C78.632,11.2673428 79.2086572,11.844 79.92,11.844 Z M79.92,18.008 C80.6313428,18.008 81.208,17.4313428 81.208,16.72 C81.208,16.0086572 80.6313428,15.432 79.92,15.432 C79.2086572,15.432 78.632,16.0086572 78.632,16.72 C78.632,17.4313428 79.2086572,18.008 79.92,18.008 Z M74.492,14.972 C75.2033428,14.972 75.78,14.3953428 75.78,13.684 C75.78,12.9726572 75.2033428,12.396 74.492,12.396 C73.7806572,12.396 73.204,12.9726572 73.204,13.684 C73.204,14.3953428 73.7806572,14.972 74.492,14.972 Z M74.492,21.136 C75.2033428,21.136 75.78,20.5593428 75.78,19.848 C75.78,19.1366572 75.2033428,18.56 74.492,18.56 C73.7806572,18.56 73.204,19.1366572 73.204,19.848 C73.204,20.5593428 73.7806572,21.136 74.492,21.136 Z M79.92,24.356 C80.6313428,24.356 81.208,23.7793428 81.208,23.068 C81.208,22.3566572 80.6313428,21.78 79.92,21.78 C79.2086572,21.78 78.632,22.3566572 78.632,23.068 C78.632,23.7793428 79.2086572,24.356 79.92,24.356 Z M63.728,21.228 C64.4393428,21.228 65.016,20.6513428 65.016,19.94 C65.016,19.2286572 64.4393428,18.652 63.728,18.652 C63.0166572,18.652 62.44,19.2286572 62.44,19.94 C62.44,20.6513428 63.0166572,21.228 63.728,21.228 Z M58.3,24.356 C59.0113428,24.356 59.588,23.7793428 59.588,23.068 C59.588,22.3566572 59.0113428,21.78 58.3,21.78 C57.5886572,21.78 57.012,22.3566572 57.012,23.068 C57.012,23.7793428 57.5886572,24.356 58.3,24.356 Z" id="Oval-1-Copy-2" sketch:type="MSShapeGroup"/>
        </g>
    </g>
</symbol></svg>