<?xml version="1.0" encoding="UTF-8" standalone="no"?>
<svg width="87px" height="40px" viewBox="0 0 87 40" version="1.1" xmlns="http://www.w3.org/2000/svg" xmlns:xlink="http://www.w3.org/1999/xlink" xmlns:sketch="http://www.bohemiancoding.com/sketch/ns">
    <!-- Generator: Sketch 3.3.3 (12072) - http://www.bohemiancoding.com/sketch -->
    <title>Теплица + Group Copy</title>
    <desc>Created with Sketch.</desc>
    <defs>
        <path id="path-1" d="M3.05140111,7.42721491 C3.05140111,7.62241228 2.9980165,7.80472222 2.90726268,7.96251462 L5.76082672,9.61147661 C5.94578867,9.29086257 6.2905904,9.07554825 6.68657855,9.07554825 C7.08288072,9.07554825 7.42736842,9.29086257 7.6126444,9.61084795 L10.4665225,7.96062865 C10.3751406,7.80346491 10.322384,7.62052632 10.322384,7.42532895 C10.322384,7.23044591 10.3751406,7.04782164 10.4665225,6.89065789 L9.70689097,6.4515424 C9.54045662,6.73820906 9.44373628,7.07045322 9.44373628,7.42532895 C9.44373628,7.59160819 9.46697429,7.75254386 9.50622767,7.90656433 L8.04600176,8.75116228 C7.69460546,8.40823099 7.21540014,8.19574561 6.68657855,8.19574561 C6.158385,8.19574561 5.67949371,8.40823099 5.32841144,8.75053363 L3.86755748,7.90593567 C3.90649684,7.75254386 3.92973484,7.59223684 3.92973484,7.42721491 C3.92973484,7.25936404 3.90649684,7.09874269 3.8666154,6.94315058 L5.32652728,6.09980994 C5.67760955,6.44368421 6.15744292,6.65648392 6.68657855,6.65648392 C7.40664263,6.65648392 8.03501081,6.26231725 8.3722759,5.68049708 L7.6126444,5.24138158 C7.42736842,5.56136696 7.08288072,5.77699561 6.68657855,5.77699561 C6.29090443,5.77699561 5.9461027,5.56136696 5.76082672,5.24138158 L2.90663462,6.89160088 C2.9980165,7.04876462 3.05140111,7.23170322 3.05140111,7.42721491"></path>
        <path d="M9.70657694,2.96030702 L10.4655804,2.52119152 C10.6505423,2.84180556 10.9962861,3.05774854 11.3922743,3.05774854 C11.7888905,3.05774854 12.1346343,2.84180556 12.3195963,2.52056287 L13.0785997,2.95967836 C12.827064,3.39407895 12.4128623,3.72317982 11.9195258,3.86274123 L11.9195258,5.54973684 C12.4122342,5.68835526 12.8258079,6.01745614 13.0779716,6.45091374 L12.3183401,6.88971491 C12.1333782,6.57004386 11.7885765,6.3544152 11.3922743,6.3544152 C10.9966002,6.3544152 10.6514844,6.57004386 10.4665225,6.89065789 L9.70689097,6.4515424 C9.95905471,6.01745614 10.3723143,5.68835526 10.8653369,5.54973684 L10.8653369,3.86274123 C10.3720003,3.72317982 9.95842666,3.39407895 9.70657694,2.96030702 L9.70657694,2.96030702 Z M14.4132148,3.73072368 C14.2464664,4.01801901 14.1497461,4.35057749 14.1497461,4.70608187 C14.1497461,5.06032895 14.2461524,5.3925731 14.4119587,5.67923977 L15.1719042,5.2404386 C15.0808363,5.08327485 15.0280798,4.90065058 15.0280798,4.70608187 C15.0280798,4.51025585 15.0814644,4.32794591 15.1728463,4.16952485 L14.4132148,3.73072368 L14.4132148,3.73072368 Z M7.75678282,4.70608187 C7.75678282,4.90127924 7.70371225,5.08358918 7.6126444,5.24138158 L8.3722759,5.67986842 C8.53839622,5.39320175 8.63543059,5.0609576 8.63543059,4.70608187 C8.63543059,4.35057749 8.53839622,4.01864766 8.3722759,3.73135234 L7.61233037,4.17078216 C7.70371225,4.32857456 7.75678282,4.5108845 7.75678282,4.70608187 L7.75678282,4.70608187 Z" id="path-3"></path>
        <path d="M14.1497461,10.1430044 C14.1497461,9.78875731 14.2461524,9.45714181 14.4119587,9.17047515 L15.1712761,9.60959064 C15.0808363,9.76675439 15.0280798,9.94843567 15.0280798,10.1430044 C15.0280798,10.3388304 15.0814644,10.521769 15.1728463,10.6795614 L14.4135288,11.1186769 C14.2467804,10.8320102 14.1497461,10.4991374 14.1497461,10.1430044 L14.1497461,10.1430044 Z M11.3922743,8.49655702 C10.9966002,8.49655702 10.6514844,8.28092836 10.4665225,7.96062865 L7.6126444,9.61084795 C7.70371225,9.76864035 7.75678282,9.95095029 7.75678282,10.1461477 C7.75678282,10.341345 7.70402628,10.5242836 7.6126444,10.6814474 L8.3722759,11.1202485 C8.53871025,10.8335819 8.63543059,10.501652 8.63543059,10.1461477 C8.63543059,9.97986842 8.61250661,9.8195614 8.5729392,9.66491228 L10.0334791,8.82062865 C10.263347,9.04474415 10.5478555,9.21165205 10.8653369,9.30123538 L10.8656509,12.5604971 L10.8647088,12.5604971 L11.3922743,12.8657091 L11.9201538,12.5604971 L11.9198398,12.5601827 L11.9195258,9.30123538 C12.4125483,9.16261696 12.8261219,8.83351608 13.0782857,8.39942982 L12.3183401,7.96062865 C12.1333782,8.28092836 11.7885765,8.49655702 11.3922743,8.49655702 L11.3922743,8.49655702 Z" id="path-5"></path>
        <path id="path-7" d="M0.294557398,11.8928655 L1.05387487,12.3316667 C1.23915085,12.011367 1.58458063,11.794481 1.9808828,11.794481 C2.37718497,11.794481 2.72261476,12.011367 2.9075767,12.3316667 L3.66689418,11.8928655 C3.41504446,11.4581506 3.0014708,11.1290497 2.50782024,10.9894883 L2.50782024,9.30312135 C2.82592966,9.21353801 3.1116943,9.04600146 3.34187615,8.82062865 L4.80084595,9.66491228 C4.76159257,9.81893275 4.73835456,9.97986842 4.73835456,10.1461477 C4.73835456,10.501652 4.8350749,10.8335819 5.00150925,11.1208772 L5.76082672,10.6814474 C5.66975887,10.5242836 5.6166883,10.3419737 5.6166883,10.1461477 C5.6166883,9.95157895 5.66975887,9.76926901 5.76082672,9.61147661 L2.90726268,7.96251462 C2.7219867,8.28218567 2.37687094,8.49844298 1.9808828,8.49844298 C1.58520868,8.49844298 1.24009293,8.28218567 1.05481695,7.96251462 L0.295499479,8.40131579 C0.547349195,8.83540205 0.960922855,9.16387427 1.45394537,9.30312135 L1.45394537,10.9894883 C0.960294801,11.1290497 0.546407114,11.4587792 0.294557398,11.8928655"></path>
        <path d="M3.92973484,12.8657091 C3.92973484,13.2212135 3.83270047,13.5540863 3.66595209,13.8413816 L2.9063206,13.4022661 C2.9980165,13.2444737 3.05140111,13.0615351 3.05140111,12.8657091 C3.05140111,12.6711404 2.99833053,12.4888304 2.9075767,12.3316667 L3.66689418,11.8928655 C3.8330145,12.1795322 3.92973484,12.5108333 3.92973484,12.8657091 L3.92973484,12.8657091 Z M6.68657855,14.5140424 C7.08319474,14.5140424 7.4283105,14.7302997 7.61327245,15.0505994 L11.3922743,12.8657091 L10.8647088,12.5604971 L8.04600176,14.1905994 C7.69460546,13.8473538 7.21540014,13.6351827 6.68657855,13.6351827 C5.96620043,13.6351827 5.33751822,14.0290351 5.00025314,14.6124269 L5.76019867,15.0512281 C5.94516062,14.7309284 6.29027638,14.5140424 6.68657855,14.5140424 L6.68657855,14.5140424 Z M6.68657855,12.0971784 C7.40664263,12.0971784 8.03501081,11.7030117 8.3722759,11.1202485 L7.6126444,10.6814474 C7.42768245,11.0020614 7.08288072,11.2173757 6.68657855,11.2173757 C6.29090443,11.2173757 5.9461027,11.0020614 5.76082672,10.6814474 L5.00150925,11.1208772 C5.33877433,11.7030117 5.96714251,12.0971784 6.68657855,12.0971784 L6.68657855,12.0971784 Z" id="path-9"></path>
        <path id="path-11" d="M21.3315453,10.9885453 L21.3315453,9.30123538 C21.8248818,9.1619883 22.2384555,8.83288743 22.4903052,8.39817251 L21.7309877,7.95937135 C21.5457118,8.28029971 21.20091,8.49655702 20.8042938,8.49655702 C20.4079917,8.49655702 20.0625619,8.28029971 19.8775999,7.95937135 L17.024978,9.60896199 C17.1157318,9.76612573 17.1684883,9.94843567 17.1684883,10.1430044 C17.1684883,10.3388304 17.1151037,10.521769 17.0237219,10.6795614 L17.7830393,11.1186769 C17.9497877,10.8313816 18.0471361,10.4991374 18.0471361,10.1430044 C18.0471361,9.97672515 18.0238981,9.81641813 17.9846447,9.66239766 L19.4436145,8.81937135 C19.6734823,9.0441155 19.959247,9.21165205 20.2770424,9.30123538 L20.2770424,10.9885453 C19.7840199,11.1271637 19.3707602,11.4562646 19.1185965,11.8903509 L19.878228,12.329152 C20.0631899,12.0088523 20.4083057,11.792595 20.8042938,11.792595 C21.199968,11.792595 21.5447697,12.0088523 21.7300457,12.3285234 L22.4893631,11.8897222 C22.2375134,11.4562646 21.8242538,11.1271637 21.3315453,10.9885453"></path>
        <path d="M19.878228,13.3997515 L19.1189105,13.838867 C18.9524762,13.5515716 18.8554418,13.2193275 18.8554418,12.8644518 C18.8554418,12.5089474 18.9521621,12.1770175 19.1185965,11.8903509 L19.878228,12.329152 C19.7871601,12.4869444 19.7340896,12.6692544 19.7340896,12.8644518 C19.7340896,13.0596491 19.7871601,13.2419591 19.878228,13.3997515 L19.878228,13.3997515 Z M14.7394889,14.1880848 L11.9201538,12.5604971 L11.3922743,12.8657091 L15.1719042,15.0496564 C15.3562381,14.7290424 15.7019819,14.5124708 16.0982841,14.5124708 C16.4945862,14.5124708 16.840016,14.7290424 17.024978,15.0496564 L17.7842954,14.6105409 C17.5321317,14.175826 17.1188721,13.8467251 16.6252215,13.7074781 L16.6252215,12.0192251 C17.118244,11.8806067 17.5311896,11.5521345 17.7830393,11.1186769 L17.0237219,10.6795614 C16.8384459,10.9989181 16.4936442,11.2142325 16.0982841,11.2142325 C15.702924,11.2142325 15.3584363,10.9989181 15.1731603,10.6795614 L14.4138428,11.1186769 C14.6656925,11.5521345 15.0789522,11.8806067 15.5713466,12.0192251 L15.5713466,13.7074781 C15.2538653,13.7970614 14.9693567,13.9639693 14.7394889,14.1880848 L14.7394889,14.1880848 Z" id="path-13"></path>
        <path d="M5.76145478,16.1221418 L2.90820476,17.7717325 C2.72355684,17.4504898 2.37781303,17.2332895 1.9808828,17.2332895 C1.58395258,17.2332895 1.23820876,17.4504898 1.05324682,17.7717325 L0.293615317,17.332617 C0.630880397,16.7489108 1.26019066,16.3541155 1.9808828,16.3541155 C2.50939037,16.3541155 2.98890972,16.5666009 3.34030602,16.9095322 L4.80053192,16.0661915 C4.76127854,15.9121711 4.73835456,15.7512354 4.73835456,15.5855848 C4.73835456,15.2307091 4.83476087,14.8990936 5.00025314,14.6124269 L5.76019867,15.0512281 C5.66944484,15.2083918 5.6166883,15.3900731 5.6166883,15.5855848 C5.6166883,15.7814108 5.6700729,15.9637208 5.76145478,16.1221418 L5.76145478,16.1221418 Z M1.9808828,14.8161111 C2.70031883,14.8161111 3.32837299,14.4232018 3.66595209,13.8413816 L2.9063206,13.4016374 C2.72104462,13.7216228 2.37655692,13.9369371 1.9808828,13.9369371 C1.58552271,13.9369371 1.24103501,13.7216228 1.05575903,13.4022661 L0.296127533,13.8413816 C0.634020668,14.4232018 1.26176079,14.8161111 1.9808828,14.8161111 L1.9808828,14.8161111 Z" id="path-15"></path>
        <path d="M22.4896772,17.3301023 L21.7300457,17.7692178 C21.5447697,17.4492325 21.199968,17.2332895 20.8039798,17.2332895 C20.4079917,17.2332895 20.0631899,17.4492325 19.878228,17.7698465 L17.0237219,16.1202558 C17.1151037,15.9624635 17.1684883,15.7795249 17.1684883,15.5836988 C17.1684883,15.3891301 17.1157318,15.2068202 17.0246639,15.0496564 L17.7842954,14.6105409 C17.9504158,14.8965789 18.0471361,15.2288231 18.0471361,15.5836988 C18.0471361,15.7493494 18.0238981,15.9096564 17.9846447,16.0636769 L19.4461267,16.9085892 C19.797523,16.5666009 20.2761003,16.3541155 20.8039798,16.3541155 C21.5237299,16.3541155 22.1520981,16.7476535 22.4896772,17.3301023 L22.4896772,17.3301023 Z M20.8042938,14.8142251 C21.5240439,14.8142251 22.1524121,14.4206871 22.4896772,13.838867 L21.7300457,13.3997515 C21.5450837,13.7191082 21.200282,13.9353655 20.8042938,13.9353655 C20.4083057,13.9353655 20.063504,13.7191082 19.878228,13.3997515 L19.1189105,13.838867 C19.4561756,14.4213158 20.0845438,14.8142251 20.8042938,14.8142251 L20.8042938,14.8142251 Z" id="path-16"></path>
        <path id="path-18" d="M11.3925883,16.3560015 C10.8647088,16.3560015 10.3855035,16.5678582 10.0341072,16.9101608 L8.5729392,16.0661915 C8.61250661,15.9121711 8.63543059,15.7512354 8.63543059,15.5855848 C8.63543059,15.4189912 8.61250661,15.2583699 8.5729392,15.1040351 L11.3925883,13.4742471 L14.2122374,15.1021491 C14.1729841,15.2564839 14.1497461,15.4171053 14.1497461,15.5836988 C14.1497461,15.9395175 14.2467804,16.2717617 14.4135288,16.559057 L15.1728463,16.1202558 C15.0814644,15.9624635 15.0280798,15.7795249 15.0280798,15.5836988 C15.0280798,15.3891301 15.0808363,15.2071345 15.1719042,15.0496564 L11.3922743,12.8657091 L7.61327245,15.0505994 C7.70402628,15.2083918 7.75678282,15.3900731 7.75678282,15.5855848 C7.75678282,15.7807822 7.70371225,15.9637208 7.61201634,16.1215132 L10.4665225,17.7711038 C10.6517984,17.4511184 10.9969142,17.2351754 11.3925883,17.2351754 C11.7885765,17.2351754 12.1333782,17.4504898 12.3183401,17.7711038 L13.0782857,17.3313596 C12.7403925,16.7495395 12.1123384,16.3560015 11.3925883,16.3560015"></path>
        <path d="M17.7842954,20.0506067 L17.0246639,20.4900365 C16.839702,20.1691082 16.4945862,19.9528509 16.0985981,19.9528509 C15.7019819,19.9528509 15.3562381,20.1697368 15.1719042,20.4900365 L14.4119587,20.0512354 C14.7492237,19.4678436 15.377906,19.0736769 16.0985981,19.0736769 C16.8186622,19.0736769 17.4470304,19.4672149 17.7842954,20.0506067 L17.7842954,20.0506067 Z M19.7340896,18.3045175 C19.7340896,18.1093202 19.7868461,17.9270102 19.878228,17.7698465 L17.0237219,16.1202558 C16.8384459,16.4392982 16.4936442,16.6549269 16.0982841,16.6549269 C15.702924,16.6549269 15.3584363,16.4392982 15.1728463,16.1202558 L14.4135288,16.559057 C14.7514219,17.1411915 15.3791621,17.5341009 16.0982841,17.5341009 C16.6271057,17.5341009 17.106939,17.3216155 17.4586494,16.9777412 L18.9182472,17.8220249 C18.8786798,17.976674 18.8554418,18.1376096 18.8554418,18.3045175 C18.8554418,18.6600219 18.9524762,18.9919518 19.1189105,19.2792471 L19.878228,18.8398173 C19.7871601,18.6820249 19.7340896,18.4997149 19.7340896,18.3045175 L19.7340896,18.3045175 Z M12.4627926,18.3064035 C12.4627926,18.5016009 12.410036,18.6839108 12.3183401,18.8417032 L13.0782857,19.2805044 C13.245034,18.9938377 13.3414404,18.6619079 13.3414404,18.3064035 C13.3414404,17.9508991 13.24472,17.618655 13.0782857,17.3313596 L12.3183401,17.7711038 C12.410036,17.9282675 12.4627926,18.1112061 12.4627926,18.3064035 L12.4627926,18.3064035 Z" id="path-20"></path>
        <path id="path-22" d="M6.68657855,19.0736769 C5.96588641,19.0736769 5.33657614,19.4684722 4.99962509,20.0524927 L5.75925659,20.4912939 C5.94421854,20.1697368 6.28964832,19.9528509 6.68657855,19.9528509 C7.08350877,19.9528509 7.42925258,20.1697368 7.6139005,20.4906652 L8.373532,20.051864 C8.03626692,19.4678436 7.40727069,19.0736769 6.68657855,19.0736769"></path>
        <path id="path-24" d="M3.66501001,19.281133 C3.83207242,18.9932091 3.92973484,18.6606506 3.92973484,18.3045175 C3.92973484,18.1382383 3.90649684,17.9779313 3.86724345,17.8239108 L5.32746936,16.9802558 C5.67886566,17.3235015 6.15807098,17.5359868 6.68657855,17.5359868 C7.21571417,17.5359868 7.69491949,17.3235015 8.04631579,16.9802558 L9.5065417,17.8239108 C9.46728831,17.9785599 9.44373628,18.1394956 9.44373628,18.3064035 C9.44373628,18.6619079 9.54077065,18.9938377 9.707205,19.2805044 L10.4665225,18.8417032 C10.3757686,18.6839108 10.322384,18.5016009 10.322384,18.3064035 C10.322384,18.1112061 10.3757686,17.9288962 10.4665225,17.7711038 L7.61201634,16.1215132 C7.42674037,16.4411842 7.08256669,16.6561842 6.68657855,16.6561842 C6.29121846,16.6561842 5.94704478,16.4411842 5.76145478,16.1221418 L2.90820476,17.7717325 C2.99864456,17.9288962 3.05140111,18.1105775 3.05140111,18.3045175 C3.05140111,18.5003436 2.99738845,18.6839108 2.90569254,18.8423319 L3.66501001,19.281133"></path>
        <path d="M14.4119587,5.67923977 L15.1719042,5.2404386 C15.3565521,5.5607383 15.7019819,5.77699561 16.0985981,5.77699561 C16.4945862,5.77699561 16.840016,5.5607383 17.025292,5.2404386 L19.878856,6.88940058 C19.7871601,7.04719298 19.7340896,7.23013158 19.7340896,7.42532895 C19.7340896,7.62052632 19.7868461,7.8022076 19.8775999,7.95937135 L17.024978,9.60896199 C16.840016,9.28834795 16.4945862,9.07177632 16.0982841,9.07177632 C15.7016679,9.07177632 15.3562381,9.28834795 15.1712761,9.60896199 L14.4119587,9.17047515 C14.7492237,8.58676901 15.377906,8.19260234 16.0982841,8.19260234 C16.6267916,8.19260234 17.106625,8.40508772 17.4580213,8.74833333 L18.9176192,7.90467836 C18.8783658,7.75128655 18.8554418,7.59097953 18.8554418,7.42532895 C18.8554418,7.25873538 18.8786798,7.09748538 18.9182472,6.94315058 L17.4589634,6.09980994 C17.1075671,6.44368421 16.6274197,6.65648392 16.0985981,6.65648392 C15.37822,6.65648392 14.7495378,6.26231725 14.4119587,5.67923977 L14.4119587,5.67923977 Z M12.4624786,7.42532895 C12.4624786,7.62052632 12.409722,7.80283626 12.3183401,7.96062865 L13.0782857,8.39942982 C13.24472,8.11276316 13.3408123,7.78083333 13.3408123,7.42532895 C13.3408123,7.07045322 13.24472,6.73820906 13.0779716,6.45091374 L12.3183401,6.88971491 C12.409722,7.04782164 12.4624786,7.23013158 12.4624786,7.42532895 L12.4624786,7.42532895 Z" id="path-26"></path>
        <path d="M5.00119523,3.73198099 C5.33846031,3.14921784 5.96682849,2.75505117 6.68657855,2.75505117 C7.40632861,2.75505117 8.03469679,3.14921784 8.3722759,3.73135234 L7.6126444,4.17078216 C7.42736842,3.85048246 7.08288072,3.6348538 6.68657855,3.6348538 C6.29090443,3.6348538 5.94578867,3.85079678 5.76082672,4.17078216 L5.00119523,3.73198099 L5.00119523,3.73198099 Z M9.70751903,1.01147661 C9.54077065,1.29877193 9.44342225,1.63101608 9.44342225,1.98714912 C9.44342225,2.3413962 9.54014259,2.67332602 9.70657694,2.96030702 L10.4658944,2.52119152 C10.3748266,2.36339912 10.32207,2.18171784 10.32207,1.98714912 C10.32207,1.7913231 10.3757686,1.6083845 10.4671505,1.45059211 L9.70751903,1.01147661 L9.70751903,1.01147661 Z" id="path-28"></path>
        <path id="path-30" d="M1.05481695,6.89160088 C1.2397789,6.57192982 1.58489466,6.35567251 1.9808828,6.35567251 C2.37687094,6.35567251 2.72167267,6.57192982 2.90694865,6.89160088 L5.76114075,5.24138158 C5.66975887,5.08358918 5.6166883,4.90127924 5.6166883,4.70608187 C5.6166883,4.5108845 5.66975887,4.32857456 5.76082672,4.17078216 L5.00119523,3.73198099 C4.8350749,4.01927632 4.73835456,4.35120614 4.73835456,4.70608187 C4.73835456,4.87204678 4.76127854,5.03141082 4.8002179,5.18574561 L3.33842185,6.03034357 C2.98702555,5.68835526 2.50844829,5.47649854 1.9808828,5.47649854 C1.26113274,5.47649854 0.63276456,5.87003655 0.295185452,6.45279971 L1.05481695,6.89160088"></path>
        <path id="path-32" d="M20.8042938,5.4749269 C20.2761003,5.4749269 19.797209,5.6864693 19.4458127,6.02971491 L17.9846447,5.18574561 C18.0242121,5.03141082 18.0471361,4.87204678 18.0471361,4.70608187 C18.0471361,4.34994883 17.9497877,4.01801901 17.7830393,3.73072368 L17.0237219,4.16952485 C17.1151037,4.32731725 17.1684883,4.51025585 17.1684883,4.70608187 C17.1684883,4.90065058 17.1157318,5.0826462 17.025292,5.2404386 L19.878856,6.88940058 C20.064446,6.5694152 20.4086197,6.35378655 20.8042938,6.35378655 C21.1996539,6.35378655 21.5441416,6.5694152 21.7294176,6.88877193 L22.4887351,6.44965643 C22.151156,5.86783626 21.5234158,5.4749269 20.8042938,5.4749269"></path>
        <path d="M17.7830393,3.73072368 L17.0237219,4.16952485 C16.8384459,3.85048246 16.4936442,3.6348538 16.0985981,3.6348538 C15.702924,3.6348538 15.3584363,3.85048246 15.1728463,4.16952485 L14.4132148,3.73072368 C14.7511079,3.14858918 15.3791621,2.75505117 16.0985981,2.75505117 C16.8177201,2.75505117 17.4454602,3.14858918 17.7830393,3.73072368 L17.7830393,3.73072368 Z M12.4624786,1.98714912 C12.4624786,2.18108918 12.410036,2.36339912 12.3195963,2.52056287 L13.0785997,2.95967836 C13.245034,2.6730117 13.3408123,2.3413962 13.3408123,1.98714912 C13.3408123,1.63101608 13.244092,1.29814327 13.0773436,1.01084795 L12.3177121,1.45059211 C12.409408,1.6083845 12.4624786,1.7913231 12.4624786,1.98714912 L12.4624786,1.98714912 Z" id="path-34"></path>
        <path d="M17.0237219,21.5600073 C17.1151037,21.4022149 17.1684883,21.2192763 17.1684883,21.0240789 C17.1684883,20.8295102 17.1157318,20.6472003 17.0246639,20.4900365 L17.7842954,20.0506067 C17.9501017,20.3372734 18.0471361,20.6692032 18.0471361,21.0240789 C18.0471361,21.3795833 17.9497877,21.7124561 17.7830393,21.9997515 L17.0237219,21.5600073 L17.0237219,21.5600073 Z M22.4896772,19.2789327 L21.7300457,18.8398173 C21.5447697,19.1598026 21.199968,19.3757456 20.8039798,19.3757456 C20.4079917,19.3757456 20.063504,19.1598026 19.878228,18.8398173 L19.1189105,19.2792471 C19.4561756,19.8613816 20.0845438,20.2549196 20.8039798,20.2549196 C21.5240439,20.2549196 22.1524121,19.8613816 22.4896772,19.2789327 L22.4896772,19.2789327 Z" id="path-36"></path>
        <path d="M0.296755588,19.281133 L1.05638709,18.8423319 C1.24197709,19.1610599 1.58583674,19.3757456 1.9808828,19.3757456 C2.37561484,19.3757456 2.72010254,19.1610599 2.90569254,18.8423319 L3.66501001,19.281133 C3.32743091,19.8626389 2.70000481,20.2549196 1.9808828,20.2549196 C1.26238885,20.2549196 0.634648722,19.8626389 0.296755588,19.281133 L0.296755588,19.281133 Z M5.6166883,21.0240789 C5.6166883,20.8295102 5.66913082,20.6484576 5.75925659,20.4912939 L4.99962509,20.0524927 C4.83413282,20.3391594 4.73835456,20.6698319 4.73835456,21.0240789 C4.73835456,21.380212 4.83538893,21.7130848 5.00276536,22.0010088 L5.76239686,21.5612646 C5.67038693,21.4034722 5.6166883,21.219905 5.6166883,21.0240789 L5.6166883,21.0240789 Z" id="path-38"></path>
        <path id="path-40" d="M0.910678523,18.3045175 C0.910678523,18.1105775 0.962807018,17.9288962 1.05324682,17.7717325 L0.293615317,17.332617 C0.128437074,17.6192836 0.0323447889,17.9502705 0.0323447889,18.3045175 C0.0323447889,18.6606506 0.129693183,18.9938377 0.296755588,19.281133 L1.05638709,18.8423319 C0.964377153,18.6839108 0.910678523,18.5009722 0.910678523,18.3045175"></path>
    </defs>
    <g id="Page-1" stroke="none" stroke-width="1" fill="none" fill-rule="evenodd" sketch:type="MSPage">
        <g id="Artboard-2" sketch:type="MSArtboardGroup" transform="translate(-7.000000, -5.000000)">
            <g id="Теплица-+-Group-Copy" sketch:type="MSLayerGroup" transform="translate(7.000000, 5.000000)">
                <path d="M37.18,6.56 L37.18,5.88 L32.3,5.88 L32.3,6.56 L34.36,6.56 L34.36,13 L35.12,13 L35.12,6.56 L37.18,6.56 Z M41.39,10.73 L41.39,10.4 C41.39,8.93 40.62,8.02 39.37,8.02 C38.12,8.02 37.35,8.96 37.35,10.51 C37.35,12.18 38.1,13.06 39.52,13.06 C39.88,13.06 40.2,13 40.47,12.89 C40.77,12.77 40.94,12.65 41.3,12.3 L40.81,11.87 C40.54,12.13 40.41,12.22 40.19,12.31 C40.01,12.38 39.79,12.43 39.56,12.43 C38.89,12.43 38.45,12.17 38.22,11.62 C38.12,11.38 38.09,11.18 38.07,10.73 L41.39,10.73 Z M40.67,10.19 L38.07,10.19 C38.09,9.75 38.12,9.59 38.22,9.37 C38.42,8.91 38.85,8.63 39.37,8.63 C39.95,8.63 40.41,8.97 40.58,9.54 C40.64,9.72 40.65,9.81 40.67,10.19 L40.67,10.19 Z M46.74,13 L46.74,8.08 L42.93,8.08 L42.93,13 L43.64,13 L43.64,8.7 L46.02,8.7 L46.02,13 L46.74,13 Z M52.2,13 L52.2,8.08 L49.05,8.08 L49.05,10.19 C49.05,12.24 48.45,12.38 48.01,12.38 L47.85,12.38 L47.85,13 L48.18,13 C49.08,13 49.74,12.46 49.74,10.4 L49.74,8.7 L51.48,8.7 L51.48,13 L52.2,13 Z M57.97,13 L57.97,8.08 L57.25,8.08 L54.72,11.87 L54.72,8.08 L54.01,8.08 L54.01,13 L54.72,13 L57.25,9.19 L57.25,13 L57.97,13 Z M64.33,14.47 L64.33,12.38 L63.59,12.38 L63.59,8.08 L62.87,8.08 L62.87,12.38 L60.49,12.38 L60.49,8.08 L59.78,8.08 L59.78,13 L63.63,13 L63.63,14.47 L64.33,14.47 Z M69.07,13 L69.07,9.66 C69.07,8.57 68.4,8.02 67.08,8.02 C66.61,8.02 66.26,8.08 65.98,8.22 C65.74,8.34 65.62,8.45 65.36,8.75 L65.85,9.2 C66.03,8.96 66.13,8.87 66.3,8.79 C66.5,8.69 66.74,8.64 67.06,8.64 C67.96,8.64 68.35,8.97 68.35,9.72 L68.35,10.19 L66.87,10.19 C65.81,10.19 65.17,10.72 65.17,11.61 C65.17,12.55 65.78,13.06 66.92,13.06 C67.3,13.06 67.56,13.03 67.79,12.93 C67.99,12.85 68.11,12.76 68.35,12.53 L68.35,13 L69.07,13 Z M68.35,11.26 C68.35,12.1 67.98,12.44 67.06,12.44 C66.23,12.44 65.87,12.19 65.87,11.6 C65.87,11.02 66.24,10.73 66.97,10.73 L68.35,10.73 L68.35,11.26 Z M36.43,23.33 L35.94,22.86 C35.68,23.13 35.56,23.23 35.36,23.32 C35.2,23.39 35.03,23.42 34.82,23.42 C33.85,23.42 33.35,22.78 33.35,21.54 C33.35,20.3 33.86,19.66 34.83,19.66 C35.04,19.66 35.22,19.7 35.38,19.77 C35.57,19.85 35.69,19.95 35.94,20.21 L36.43,19.75 C36.1,19.41 35.94,19.29 35.67,19.17 C35.43,19.07 35.16,19.02 34.84,19.02 C33.46,19.02 32.63,19.97 32.63,21.54 C32.63,23.11 33.46,24.06 34.84,24.06 C35.16,24.06 35.43,24.01 35.67,23.91 C35.94,23.79 36.1,23.67 36.43,23.33 L36.43,23.33 Z M41.56,21.51 C41.56,20.59 41.38,20 40.96,19.58 C40.6,19.22 40.1,19.02 39.55,19.02 C38.99,19.02 38.5,19.22 38.14,19.58 C37.72,20.01 37.54,20.59 37.54,21.54 C37.54,22.49 37.72,23.07 38.14,23.5 C38.5,23.86 38.99,24.06 39.55,24.06 C40.11,24.06 40.6,23.86 40.96,23.5 C41.39,23.06 41.56,22.49 41.56,21.51 L41.56,21.51 Z M40.84,21.57 C40.84,22.35 40.73,22.77 40.45,23.06 C40.23,23.29 39.9,23.42 39.55,23.42 C39.2,23.42 38.88,23.29 38.66,23.06 C38.37,22.76 38.26,22.34 38.26,21.54 C38.26,20.74 38.37,20.31 38.66,20.02 C38.88,19.79 39.21,19.66 39.55,19.66 C39.9,19.66 40.23,19.79 40.45,20.02 C40.74,20.31 40.84,20.73 40.84,21.57 L40.84,21.57 Z M47.66,25.47 L47.66,23.38 L46.92,23.38 L46.92,19.08 L46.2,19.08 L46.2,23.38 L43.82,23.38 L43.82,19.08 L43.11,19.08 L43.11,24 L46.96,24 L46.96,25.47 L47.66,25.47 Z M52.86,24 L52.86,19.08 L52.14,19.08 L49.61,22.87 L49.61,19.08 L48.9,19.08 L48.9,24 L49.61,24 L52.14,20.19 L52.14,24 L52.86,24 Z M58.17,24 L58.17,20.66 C58.17,19.57 57.5,19.02 56.18,19.02 C55.71,19.02 55.36,19.08 55.08,19.22 C54.84,19.34 54.72,19.45 54.46,19.75 L54.95,20.2 C55.13,19.96 55.23,19.87 55.4,19.79 C55.6,19.69 55.84,19.64 56.16,19.64 C57.06,19.64 57.45,19.97 57.45,20.72 L57.45,21.19 L55.97,21.19 C54.91,21.19 54.27,21.72 54.27,22.61 C54.27,23.55 54.88,24.06 56.02,24.06 C56.4,24.06 56.66,24.03 56.89,23.93 C57.09,23.85 57.21,23.76 57.45,23.53 L57.45,24 L58.17,24 Z M57.45,22.26 C57.45,23.1 57.08,23.44 56.16,23.44 C55.33,23.44 54.97,23.19 54.97,22.6 C54.97,22.02 55.34,21.73 56.07,21.73 L57.45,21.73 L57.45,22.26 Z M63.58,24 L63.58,19.08 L60.43,19.08 L60.43,21.19 C60.43,23.24 59.83,23.38 59.39,23.38 L59.23,23.38 L59.23,24 L59.56,24 C60.46,24 61.12,23.46 61.12,21.4 L61.12,19.7 L62.86,19.7 L62.86,24 L63.58,24 Z M69.14,22.52 C69.14,21.62 68.52,21.03 67.58,21.03 L66.1,21.03 L66.1,19.08 L65.39,19.08 L65.39,24 L67.58,24 C68.52,24 69.14,23.41 69.14,22.52 L69.14,22.52 Z M68.42,22.52 C68.42,23.07 68.1,23.38 67.5,23.38 L66.1,23.38 L66.1,21.66 L67.5,21.66 C68.1,21.66 68.42,21.97 68.42,22.52 L68.42,22.52 Z M74.26,24 L74.26,19.08 L73.54,19.08 L73.54,21.15 L71.16,21.15 L71.16,19.08 L70.45,19.08 L70.45,24 L71.16,24 L71.16,21.77 L73.54,21.77 L73.54,24 L74.26,24 Z M81.33,24 L81.33,19.08 L80.61,19.08 L80.61,24 L81.33,24 Z M79.82,22.52 C79.82,21.62 79.2,21.03 78.26,21.03 L76.78,21.03 L76.78,19.08 L76.07,19.08 L76.07,24 L78.26,24 C79.2,24 79.82,23.41 79.82,22.52 L79.82,22.52 Z M79.1,22.52 C79.1,23.07 78.78,23.38 78.18,23.38 L76.78,23.38 L76.78,21.66 L78.18,21.66 C78.78,21.66 79.1,21.97 79.1,22.52 L79.1,22.52 Z M86.79,24 L85.12,21.49 L86.72,19.08 L85.85,19.08 L84.74,20.9 L83.61,19.08 L82.74,19.08 L84.34,21.49 L82.67,24 L83.54,24 L84.74,22.09 L85.92,24 L86.79,24 Z M36.13,30.7 L36.13,30.08 L32.11,30.08 L32.11,30.7 L33.8,30.7 L33.8,35 L34.52,35 L34.52,30.7 L36.13,30.7 Z M40.8,32.73 L40.8,32.4 C40.8,30.93 40.03,30.02 38.78,30.02 C37.53,30.02 36.76,30.96 36.76,32.51 C36.76,34.18 37.51,35.06 38.93,35.06 C39.29,35.06 39.61,35 39.88,34.89 C40.18,34.77 40.35,34.65 40.71,34.3 L40.22,33.87 C39.95,34.13 39.82,34.22 39.6,34.31 C39.42,34.38 39.2,34.43 38.97,34.43 C38.3,34.43 37.86,34.17 37.63,33.62 C37.53,33.38 37.5,33.18 37.48,32.73 L40.8,32.73 Z M40.08,32.19 L37.48,32.19 C37.5,31.75 37.53,31.59 37.63,31.37 C37.83,30.91 38.26,30.63 38.78,30.63 C39.36,30.63 39.82,30.97 39.99,31.54 C40.05,31.72 40.06,31.81 40.08,32.19 L40.08,32.19 Z M45.78,35 L44.11,32.49 L45.71,30.08 L44.84,30.08 L43.73,31.9 L42.6,30.08 L41.73,30.08 L43.33,32.49 L41.66,35 L42.53,35 L43.73,33.09 L44.91,35 L45.78,35 Z M50.83,35 L50.83,30.08 L50.11,30.08 L50.11,32.15 L47.73,32.15 L47.73,30.08 L47.02,30.08 L47.02,35 L47.73,35 L47.73,32.77 L50.11,32.77 L50.11,35 L50.83,35 Z M56.39,32.51 C56.39,31.59 56.21,31 55.79,30.58 C55.43,30.22 54.93,30.02 54.38,30.02 C53.82,30.02 53.33,30.22 52.97,30.58 C52.55,31.01 52.37,31.59 52.37,32.54 C52.37,33.49 52.55,34.07 52.97,34.5 C53.33,34.86 53.82,35.06 54.38,35.06 C54.94,35.06 55.43,34.86 55.79,34.5 C56.22,34.06 56.39,33.49 56.39,32.51 L56.39,32.51 Z M55.67,32.57 C55.67,33.35 55.56,33.77 55.28,34.06 C55.06,34.29 54.73,34.42 54.38,34.42 C54.03,34.42 53.71,34.29 53.49,34.06 C53.2,33.76 53.09,33.34 53.09,32.54 C53.09,31.74 53.2,31.31 53.49,31.02 C53.71,30.79 54.04,30.66 54.38,30.66 C54.73,30.66 55.06,30.79 55.28,31.02 C55.57,31.31 55.67,31.73 55.67,32.57 L55.67,32.57 Z M61.49,35 L61.49,30.08 L58.34,30.08 L58.34,32.19 C58.34,34.24 57.74,34.38 57.3,34.38 L57.14,34.38 L57.14,35 L57.47,35 C58.37,35 59.03,34.46 59.03,32.4 L59.03,30.7 L60.77,30.7 L60.77,35 L61.49,35 Z M67.05,32.51 C67.05,31.59 66.87,31 66.45,30.58 C66.09,30.22 65.59,30.02 65.04,30.02 C64.48,30.02 63.99,30.22 63.63,30.58 C63.21,31.01 63.03,31.59 63.03,32.54 C63.03,33.49 63.21,34.07 63.63,34.5 C63.99,34.86 64.48,35.06 65.04,35.06 C65.6,35.06 66.09,34.86 66.45,34.5 C66.88,34.06 67.05,33.49 67.05,32.51 L67.05,32.51 Z M66.33,32.57 C66.33,33.35 66.22,33.77 65.94,34.06 C65.72,34.29 65.39,34.42 65.04,34.42 C64.69,34.42 64.37,34.29 64.15,34.06 C63.86,33.76 63.75,33.34 63.75,32.54 C63.75,31.74 63.86,31.31 64.15,31.02 C64.37,30.79 64.7,30.66 65.04,30.66 C65.39,30.66 65.72,30.79 65.94,31.02 C66.23,31.31 66.33,31.73 66.33,32.57 L66.33,32.57 Z M71.75,30.7 L71.75,30.08 L68.63,30.08 L68.63,35 L69.35,35 L69.35,30.7 L71.75,30.7 Z M76.73,35 L76.73,30.08 L76.01,30.08 L73.48,33.87 L73.48,30.08 L72.77,30.08 L72.77,35 L73.48,35 L76.01,31.19 L76.01,35 L76.73,35 Z M81.98,27.96 L81.34,27.96 C81.3,28.46 81.01,28.71 80.52,28.71 C80.03,28.71 79.74,28.46 79.7,27.96 L79.06,27.96 C79.12,28.86 79.69,29.22 80.52,29.22 C81.35,29.22 81.92,28.86 81.98,27.96 L81.98,27.96 Z M82.5,35 L82.5,30.08 L81.78,30.08 L79.25,33.87 L79.25,30.08 L78.54,30.08 L78.54,35 L79.25,35 L81.78,31.19 L81.78,35 L82.5,35 Z" id="Теплица" fill="#111111" sketch:type="MSShapeGroup"></path>
                <g id="Group-Copy">
                    <mask id="mask-2" sketch:name="Clip 2" fill="white">
                        <use xlink:href="#path-1"></use>
                    </mask>
                    <use id="Clip-2" fill="#F38D06" sketch:type="MSShapeGroup" xlink:href="#path-1"></use>
                    <mask id="mask-4" sketch:name="Clip 5" fill="white">
                        <use xlink:href="#path-3"></use>
                    </mask>
                    <use id="Clip-5" fill="#DEDE02" sketch:type="MSShapeGroup" xlink:href="#path-3"></use>
                    <mask id="mask-6" sketch:name="Clip 8" fill="white">
                        <use xlink:href="#path-5"></use>
                    </mask>
                    <use id="Clip-8" fill="#DB9906" sketch:type="MSShapeGroup" xlink:href="#path-5"></use>
                    <mask id="mask-8" sketch:name="Clip 11" fill="white">
                        <use xlink:href="#path-7"></use>
                    </mask>
                    <use id="Clip-11" fill="#E6201E" sketch:type="MSShapeGroup" xlink:href="#path-7"></use>
                    <mask id="mask-10" sketch:name="Clip 14" fill="white">
                        <use xlink:href="#path-9"></use>
                    </mask>
                    <use id="Clip-14" fill="#BE0C39" sketch:type="MSShapeGroup" xlink:href="#path-9"></use>
                    <path d="M0.910678523,12.8657091 C0.910678523,12.6711404 0.963121045,12.4888304 1.05387487,12.3316667 L0.294557398,11.8928655 C0.128751101,12.1795322 0.0323447889,12.5108333 0.0323447889,12.8657091 C0.0323447889,13.2212135 0.129379156,13.5540863 0.296127533,13.8420102 L1.05575903,13.4022661 C0.964063126,13.2444737 0.910678523,13.0615351 0.910678523,12.8657091" id="Fill-16" fill="#B70E0B" sketch:type="MSShapeGroup"></path>
                    <mask id="mask-12" sketch:name="Clip 19" fill="white">
                        <use xlink:href="#path-11"></use>
                    </mask>
                    <use id="Clip-19" fill="#A9CA0F" sketch:type="MSShapeGroup" xlink:href="#path-11"></use>
                    <path d="M21.8741841,12.8644518 C21.8741841,13.0596491 21.8211135,13.2419591 21.7300457,13.3997515 L22.4896772,13.838867 C22.6561115,13.5515716 22.7528319,13.2193275 22.7528319,12.8644518 C22.7528319,12.5089474 22.6561115,12.1763889 22.4893631,11.8897222 L21.7300457,12.3285234 C21.8211135,12.4863158 21.8741841,12.6686257 21.8741841,12.8644518" id="Fill-21" fill="#00A8B0" sketch:type="MSShapeGroup"></path>
                    <mask id="mask-14" sketch:name="Clip 23" fill="white">
                        <use xlink:href="#path-13"></use>
                    </mask>
                    <use id="Clip-23" fill="#419F62" sketch:type="MSShapeGroup" xlink:href="#path-13"></use>
                    <g id="Fill-17">
                        <use fill="#E6005B" fill-rule="evenodd" sketch:type="MSShapeGroup" xlink:href="#path-15"></use>
                        <use fill="none" xlink:href="#path-15"></use>
                    </g>
                    <mask id="mask-17" sketch:name="Clip 26" fill="white">
                        <use xlink:href="#path-16"></use>
                    </mask>
                    <use id="Clip-26" fill="#168B8F" sketch:type="MSShapeGroup" xlink:href="#path-16"></use>
                    <mask id="mask-19" sketch:name="Clip 29" fill="white">
                        <use xlink:href="#path-18"></use>
                    </mask>
                    <use id="Clip-29" fill="#AF0E79" sketch:type="MSShapeGroup" xlink:href="#path-18"></use>
                    <mask id="mask-21" sketch:name="Clip 32" fill="white">
                        <use xlink:href="#path-20"></use>
                    </mask>
                    <use id="Clip-32" fill="#1269B6" sketch:type="MSShapeGroup" xlink:href="#path-20"></use>
                    <mask id="mask-23" sketch:name="Clip 35" fill="white">
                        <use xlink:href="#path-22"></use>
                    </mask>
                    <use id="Clip-35" fill="#702282" sketch:type="MSShapeGroup" xlink:href="#path-22"></use>
                    <mask id="mask-25" sketch:name="Clip 38" fill="white">
                        <use xlink:href="#path-24"></use>
                    </mask>
                    <use id="Clip-38" fill="#7F1F82" sketch:type="MSShapeGroup" xlink:href="#path-24"></use>
                    <mask id="mask-27" sketch:name="Clip 41" fill="white">
                        <use xlink:href="#path-26"></use>
                    </mask>
                    <use id="Clip-41" fill="#6EB62A" sketch:type="MSShapeGroup" xlink:href="#path-26"></use>
                    <mask id="mask-29" sketch:name="Clip 44" fill="white">
                        <use xlink:href="#path-28"></use>
                    </mask>
                    <use id="Clip-44" fill="#FFD102" sketch:type="MSShapeGroup" xlink:href="#path-28"></use>
                    <path d="M10.4671505,1.45059211 C10.6527405,1.13060673 10.9969142,0.915292398 11.3922743,0.915292398 C11.7876344,0.915292398 12.1324361,1.13060673 12.3177121,1.45059211 L13.0773436,1.01084795 C12.7394505,0.429027778 12.1117103,0.0361184211 11.3922743,0.0361184211 C10.6731523,0.0361184211 10.0450981,0.429027778 9.70751903,1.01147661 L10.4671505,1.45059211" id="Fill-46" fill="#DEDC00" sketch:type="MSShapeGroup"></path>
                    <mask id="mask-31" sketch:name="Clip 48" fill="white">
                        <use xlink:href="#path-30"></use>
                    </mask>
                    <use id="Clip-48" fill="#F7AB02" sketch:type="MSShapeGroup" xlink:href="#path-30"></use>
                    <path d="M0.910678523,7.42721491 C0.910678523,7.23170322 0.963749099,7.04939327 1.05481695,6.89160088 L0.295185452,6.45279971 C0.129065129,6.74009503 0.0323447889,7.07233918 0.0323447889,7.42721491 C0.0323447889,7.78240497 0.129065129,8.11464912 0.295499479,8.40194444 L1.05481695,7.96251462 C0.963749099,7.80472222 0.910678523,7.62241228 0.910678523,7.42721491" id="Fill-50" fill="#ED6607" sketch:type="MSShapeGroup"></path>
                    <mask id="mask-33" sketch:name="Clip 52" fill="white">
                        <use xlink:href="#path-32"></use>
                    </mask>
                    <use id="Clip-52" fill="#DCDD02" sketch:type="MSShapeGroup" xlink:href="#path-32"></use>
                    <path d="M21.8741841,7.42532895 C21.8741841,7.62052632 21.8214275,7.8022076 21.7309877,7.95937135 L22.4903052,8.39817251 C22.6561115,8.1121345 22.7528319,7.78020468 22.7528319,7.42532895 C22.7528319,7.06982456 22.6554835,6.73695175 22.4887351,6.44965643 L21.7291036,6.88877193 C21.8207995,7.04719298 21.8741841,7.22950292 21.8741841,7.42532895" id="Fill-54" fill="#76B82A" sketch:type="MSShapeGroup"></path>
                    <mask id="mask-35" sketch:name="Clip 56" fill="white">
                        <use xlink:href="#path-34"></use>
                    </mask>
                    <use id="Clip-56" fill="#B8CF09" sketch:type="MSShapeGroup" xlink:href="#path-34"></use>
                    <mask id="mask-37" sketch:name="Clip 59" fill="white">
                        <use xlink:href="#path-36"></use>
                    </mask>
                    <use id="Clip-59" fill="#0E70BC" sketch:type="MSShapeGroup" xlink:href="#path-36"></use>
                    <mask id="mask-39" sketch:name="Clip 63" fill="white">
                        <use xlink:href="#path-38"></use>
                    </mask>
                    <use id="Clip-63" fill="#B80D79" sketch:type="MSShapeGroup" xlink:href="#path-38"></use>
                    <path d="M21.8741841,18.3045175 C21.8741841,18.4997149 21.8211135,18.6820249 21.7300457,18.8398173 L22.4896772,19.2789327 C22.6561115,18.9919518 22.7528319,18.6593933 22.7528319,18.3045175 C22.7528319,17.9496418 22.6561115,17.616769 22.4893631,17.3301023 L21.7297316,17.7692178 C21.8211135,17.9270102 21.8741841,18.1093202 21.8741841,18.3045175" id="Path" fill="#0090D7" sketch:type="MSShapeGroup"></path>
                    <mask id="mask-41" sketch:name="Clip 66" fill="white">
                        <use xlink:href="#path-40"></use>
                    </mask>
                    <use id="Clip-66" fill="#C52987" sketch:type="MSShapeGroup" xlink:href="#path-40"></use>
                    <path d="M22.2598093,28.8300877 L11.9198398,28.8300877 L11.9198398,24.047595 L14.7388609,22.4190643 C15.0905712,22.7623099 15.5697765,22.974481 16.0985981,22.974481 C16.8177201,22.974481 17.4457743,22.5815716 17.7830393,21.9997515 L17.0237219,21.5600073 C16.8384459,21.8799927 16.4936442,22.0956213 16.0985981,22.0956213 C15.702924,22.0956213 15.3584363,21.8799927 15.1728463,21.5600073 C15.0814644,21.4022149 15.0280798,21.2192763 15.0280798,21.0240789 C15.0280798,20.8295102 15.0808363,20.6472003 15.1719042,20.4900365 L14.4119587,20.0512354 C14.2461524,20.337902 14.1497461,20.6692032 14.1497461,21.0240789 C14.1497461,21.1906725 14.1729841,21.3506652 14.2122374,21.505 L11.9198398,22.829576 L11.9198398,20.1819956 C12.4128623,20.0430629 12.826436,19.713962 13.0782857,19.2805044 L12.3186542,18.8417032 C12.1336922,19.1613743 11.7888905,19.3776316 11.3925883,19.3776316 C10.9969142,19.3776316 10.6517984,19.1613743 10.4665225,18.8417032 L9.707205,19.2805044 C9.95936874,19.713962 10.3726284,20.0430629 10.8659649,20.1819956 L10.8656509,22.8289474 L8.57356725,21.5037427 C8.61250661,21.3500365 8.63543059,21.1900439 8.63543059,21.0240789 C8.63543059,20.6698319 8.53902427,20.3385307 8.373532,20.051864 L7.6139005,20.4906652 C7.7043403,20.6478289 7.75678282,20.8295102 7.75678282,21.0240789 C7.75678282,21.219905 7.70339822,21.4034722 7.61138829,21.5612646 C7.42611231,21.8806213 7.08162461,22.0956213 6.68657855,22.0956213 C6.29184651,22.0956213 5.94767284,21.8806213 5.76239686,21.5612646 L5.00276536,22.0010088 C5.34034447,22.5815716 5.9680846,22.974481 6.68657855,22.974481 C7.21571417,22.974481 7.69554754,22.7616813 8.04694384,22.4184357 L10.8656509,24.047595 L10.8656509,28.8300877 L0.5253673,28.8300877 C0.331298566,28.8300877 0.173971001,28.9878801 0.173971001,29.1818202 C0.173971001,29.3767032 0.331298566,29.533867 0.5253673,29.533867 L10.8464952,29.533867 C10.7887143,29.8767982 10.6326428,30.2750512 10.2602067,30.6239547 C9.59164303,31.2513523 8.4036786,31.5282749 6.82318033,31.4245468 C6.07579588,31.3764547 5.43769286,31.4232895 4.89442602,31.5342471 C4.86270928,31.5348757 4.83099255,31.5405336 4.79958984,31.5534211 C4.7967636,31.5546784 4.79487944,31.5559357 4.79205319,31.557193 C2.98168709,31.9648757 2.26570536,33.1134284 2.1363262,33.8885599 C2.11246015,34.0325219 2.20949451,34.1679971 2.35269086,34.191886 C2.36745013,34.1944006 2.3822094,34.1956579 2.39665465,34.1956579 C2.52289354,34.1956579 2.6350012,34.1041886 2.65635504,33.9753143 C2.66577586,33.9174781 2.82561564,33.0530775 3.83929504,32.4668567 C3.75042538,32.7217763 3.72718737,32.9974415 3.70457743,33.2790789 C3.67191861,33.6829898 3.63517744,34.1397076 3.39243451,34.6394883 C3.32868701,34.7708772 3.3830137,34.9286696 3.51396299,34.9924781 C3.55133221,35.0103947 3.5905856,35.0188816 3.62921093,35.0188816 C3.72687335,35.0188816 3.82076744,34.9641886 3.86598734,34.870519 C4.15269406,34.2814693 4.19508772,33.7493129 4.22994472,33.3215132 C4.28144517,32.6824854 4.31064968,32.3282383 4.98392374,32.0481725 C5.22070015,31.9997661 5.48134263,31.9648757 5.76804935,31.9463304 C5.46344308,32.3206944 5.39624129,32.8383918 5.32778339,33.3749488 C5.22917888,34.1478801 5.10702235,35.1097222 4.28741168,36.0809942 C4.19351758,36.1922661 4.2076488,36.3585453 4.31881439,36.4525292 C4.36811664,36.4943348 4.42840984,36.5150804 4.48870304,36.5150804 C4.56375551,36.5150804 4.6378659,36.4833333 4.68999439,36.4210965 C5.61009373,35.3313231 5.74355524,34.2833553 5.85063847,33.4412719 C5.96839862,32.5152632 6.0550701,32.0953216 6.82569254,31.9529313 C8.56069214,32.0598026 9.83721221,31.7435892 10.6207098,31.0086915 C10.7029849,30.931367 10.7767812,30.8480702 10.8471233,30.7619444 C10.6310727,31.3893421 10.1882945,32.1016082 9.27792998,32.8701389 C9.27792998,32.8701389 9.27761596,32.8707675 9.27730193,32.8707675 C8.70074822,33.3570322 8.21212209,33.6455848 7.78127694,33.9005044 C6.96449251,34.3836257 6.37443563,34.7328436 6.16121125,35.943633 C6.13608908,36.0872807 6.23218137,36.2240132 6.37537771,36.2491594 C6.39107907,36.2523026 6.40583834,36.2535599 6.42122567,36.2535599 C6.5468365,36.2535599 6.65800208,36.163348 6.68029801,36.0351023 C6.85112874,35.0632018 7.27694945,34.8120541 8.04945606,34.3547076 C8.12011215,34.312902 8.19579268,34.2682675 8.27241528,34.2220614 C8.09907234,34.6335161 8.01114476,35.0411988 7.92918369,35.4246784 C7.74076744,36.3069956 7.57841545,37.0682968 6.53772971,37.7510161 C6.41620123,37.8308553 6.38197228,37.9939912 6.46173516,38.1162646 C6.51229352,38.1935892 6.5967668,38.2353947 6.68249619,38.2353947 C6.73179845,38.2353947 6.78235681,38.22125 6.82663462,38.1923319 C8.04882801,37.3904825 8.25011936,36.4468713 8.44481615,35.5353216 C8.46711207,35.4303363 8.48909397,35.3272368 8.512646,35.2241374 C8.56854282,35.5038889 8.64924778,35.7795541 8.72775455,36.0461038 C8.90109749,36.6342105 9.08009293,37.2427485 8.97929023,37.8160819 C8.95416807,37.9597295 9.0496323,38.096462 9.19314267,38.1216082 C9.20853,38.1241228 9.22391733,38.1253801 9.23930465,38.1253801 C9.36460146,38.1253801 9.47608107,38.0357968 9.49837699,37.9075512 C9.62084755,37.2119444 9.42363855,36.5433699 9.23302411,35.8961696 C8.94223504,34.9091813 8.69069935,34.0557822 9.61770728,33.2734211 L9.61802131,33.2734211 C10.3949243,32.6174196 10.8634527,31.988136 11.1467051,31.4110307 C11.2060562,32.1016082 11.2861331,32.7095175 11.3680942,33.2558187 C11.5546263,34.5093567 11.2443675,34.8937792 10.8848065,35.338867 C10.5243035,35.785212 10.1154402,36.2903363 10.1933189,37.5765643 C10.2017976,37.7164401 10.3179877,37.8245687 10.4564736,37.8245687 C10.4618121,37.8245687 10.4671505,37.8245687 10.472489,37.8239401 C10.6178835,37.8154532 10.7284211,37.6900365 10.7196283,37.5445029 C10.6539966,36.462902 10.9651975,36.0778509 11.2946119,35.6701681 C11.4183385,35.517405 11.5439494,35.3621272 11.6513466,35.176674 C11.8130706,36.6304386 11.6651638,37.7466155 10.391156,39.5392251 C10.3066827,39.6577266 10.3343171,39.8221199 10.4530193,39.9069883 C10.4994953,39.940307 10.5525659,39.9553947 10.6056365,39.9553947 C10.6879116,39.9553947 10.7692446,39.9173611 10.820431,39.8450658 C12.5544885,37.4052558 12.3440904,36.069364 11.9945782,33.8574415 C11.8787022,33.1225439 11.7449267,32.2748026 11.6617095,31.2416082 C11.9509285,31.845117 12.3437763,32.2968056 12.7118161,32.7180044 C13.6410222,33.7807456 14.4433614,34.6979532 13.2635616,37.7639035 C13.2111191,37.9000073 13.278949,38.0524561 13.4149227,38.1052632 C13.4456973,38.1168933 13.4777281,38.1228655 13.5094448,38.1228655 C13.615272,38.1228655 13.7151326,38.0584284 13.7556421,37.953443 C14.3645406,36.3701754 14.4681695,35.282288 14.3080157,34.4603216 C14.6704029,34.9330702 14.9074934,35.5739839 14.7790563,36.7841447 C14.763669,36.9287354 14.8688681,37.0591813 15.0133205,37.074269 C15.0227413,37.0748977 15.0318481,37.0755263 15.0412689,37.0755263 C15.1744164,37.0755263 15.2884082,36.9755702 15.3028535,36.8397807 C15.3490155,36.4063231 15.3490155,36.037617 15.3172987,35.7126023 C15.6551919,36.0596199 16.0238596,36.3824342 16.3319202,36.5562573 C16.3727437,36.5788889 16.4170215,36.5898904 16.4609853,36.5898904 C16.5529953,36.5898904 16.642493,36.5414839 16.6908532,36.4556725 C16.7621373,36.3283699 16.7172314,36.1674342 16.5903645,36.0963962 C16.0430153,35.7877266 15.1800689,34.8353143 14.8873957,34.3688523 C14.8829993,34.3616228 14.8779748,34.3559649 14.8729504,34.3496784 C14.6509333,34.0017178 14.3786718,33.7420833 14.1189714,33.4972222 C13.9245886,33.312712 13.7411968,33.1398319 13.5838693,32.9358333 C13.581357,32.9330044 13.5782168,32.9304898 13.5757046,32.9279751 C13.4259136,32.7346637 13.2667019,32.5517251 13.1084323,32.3703582 C12.7253192,31.9328143 12.3352976,31.4845833 12.072771,30.8713304 C12.6326812,31.3619956 13.4855788,31.5443056 14.4009677,31.647405 C14.403794,31.6480336 14.4063062,31.6486623 14.4097605,31.6489766 C15.7004118,31.7916813 15.8869438,32.7239766 16.1029945,33.8033772 C16.1931202,34.2541228 16.2863863,34.7212135 16.4719763,35.1270102 C16.5162541,35.2235088 16.6117183,35.2810307 16.711893,35.2810307 C16.7486341,35.2810307 16.7856893,35.2731725 16.8211744,35.2571418 C16.9536938,35.1964766 17.0117888,35.0399415 16.9511816,34.9072953 C16.7916559,34.5574488 16.7081246,34.1403363 16.619883,33.6996491 C16.5712088,33.4554167 16.5193944,33.2048977 16.4537627,32.9590936 C16.6754658,33.0741374 16.9072178,33.16875 17.1361436,33.260848 C17.7409597,33.5038231 18.2631867,33.7137939 18.4858319,34.2563231 C18.5275975,34.3591082 18.625888,34.420402 18.729831,34.420402 C18.7628038,34.420402 18.7967187,34.4141155 18.8293776,34.4009137 C18.9644092,34.3455921 19.0287847,34.1912573 18.973516,34.0564108 C18.6663975,33.3073684 17.988413,33.0342178 17.3324105,32.7708114 C16.8089273,32.560212 16.3143347,32.3612427 15.9984235,31.9340716 C15.9591701,31.880636 15.9167764,31.8290863 15.8721846,31.7794225 C17.5264792,31.9302997 19.1151422,32.2157091 19.5569783,33.8476974 C19.588695,33.9655702 19.6948362,34.0428947 19.8110262,34.0428947 C19.8339502,34.0428947 19.8568741,34.0397515 19.8804262,34.0337792 C20.0204823,33.9954313 20.1036994,33.8508406 20.0653881,33.7093933 C19.4794136,31.5436769 17.2997517,31.3648246 15.3766498,31.2070322 C13.4033037,31.0457822 12.1377746,30.8669298 11.9559529,29.533867 L22.2598093,29.533867 C22.4538781,29.533867 22.6112056,29.3767032 22.6112056,29.1818202 C22.6112056,28.9878801 22.4538781,28.8300877 22.2598093,28.8300877" id="Fill-68" fill="#213A8F" sketch:type="MSShapeGroup"></path>
                </g>
            </g>
        </g>
    </g>
</svg>