<?xml version="1.0" encoding="UTF-8" standalone="no"?>
<svg width="280px" height="85px" viewBox="0 0 280 85" version="1.1" xmlns="http://www.w3.org/2000/svg" xmlns:xlink="http://www.w3.org/1999/xlink" xmlns:sketch="http://www.bohemiancoding.com/sketch/ns">
    <!-- Generator: Sketch 3.3.3 (12072) - http://www.bohemiancoding.com/sketch -->
    <title>Oval 1 + Теплица предупреждае + СМЕНИ ЛОГО</title>
    <desc>Created with Sketch.</desc>
    <defs></defs>
    <g id="Page-1" stroke="none" stroke-width="1" fill="none" fill-rule="evenodd" sketch:type="MSPage">
        <g id="Artboard-1" sketch:type="MSArtboardGroup" transform="translate(-171.000000, -151.000000)" fill="#FFFFFF">
            <g id="Oval-1-+-Теплица-предупреждае-+-СМЕНИ-ЛОГО" sketch:type="MSLayerGroup" transform="translate(171.000000, 151.000000)">
                <path d="M23.1513589,43.0201475 C21.3672842,42.5157601 20.06,40.8755463 20.06,38.93 C20.06,38.5867239 20.1006981,38.2529533 20.1775324,37.9332501 L17.2156415,36.2232016 C16.4526561,36.9522427 15.4186177,37.4 14.28,37.4 C13.0991787,37.4 12.0308331,36.9184347 11.2606426,36.1409836 L11.2606426,36.1409836 L8.35343921,37.8194583 C8.44901417,38.173466 8.5,38.5457788 8.5,38.93 C8.5,41.2772102 6.59721019,43.18 4.25,43.18 C1.90278981,43.18 0,41.2772102 0,38.93 C0,36.5827898 1.90278981,34.68 4.25,34.68 C5.35237339,34.68 6.3567194,35.0997052 7.11196121,35.7880387 L10.1251317,34.0483838 C10.0628114,33.7587876 10.03,33.4582255 10.03,33.15 C10.03,30.8027898 11.9327898,28.9 14.28,28.9 C15.4123663,28.9 16.4412985,29.3428542 17.2030499,30.0648159 L23.12,26.6486632 L23.12,26.6486632 L23.12,19.7211507 C22.4503317,19.5262168 21.848957,19.1709286 21.3602155,18.6996256 L18.4014464,20.5484697 C18.4854046,20.8817423 18.53,21.2306632 18.53,21.59 C18.53,23.9372102 16.6272102,25.84 14.28,25.84 C11.9327898,25.84 10.03,23.9372102 10.03,21.59 C10.03,21.2508577 10.0697238,20.9209934 10.1447724,20.6048061 L10.1447724,20.6048061 L7.06324375,18.8256848 C6.60074898,19.2344192 6.04857515,19.5440004 5.44,19.7211507 L5.44,19.7211507 L5.44,23.2888493 C7.20801378,23.8035009 8.5,25.4358707 8.5,27.37 C8.5,29.7172102 6.59721019,31.62 4.25,31.62 C1.90278981,31.62 0,29.7172102 0,27.37 C0,25.4358707 1.29198622,23.8035009 3.06,23.2888493 L3.06,19.7211507 C1.29198622,19.2064991 0,17.5741293 0,15.64 C0,13.2927898 1.90278981,11.39 4.25,11.39 C5.43894462,11.39 6.51386078,11.8782139 7.28521039,12.6651035 L10.1180748,10.8949334 C10.0603369,10.6156651 10.03,10.3263753 10.03,10.03 C10.03,7.68278981 11.9327898,5.78 14.28,5.78 C16.6272102,5.78 18.53,7.68278981 18.53,10.03 C18.53,12.3772102 16.6272102,14.28 14.28,14.28 C13.088692,14.28 12.0118663,13.7898433 11.2401934,13.0002005 L8.41053456,14.7683675 L8.41053456,14.7683675 C8.46917589,15.0497077 8.5,15.3412542 8.5,15.64 C8.5,16.0466868 8.44287754,16.4400318 8.33621824,16.8124496 L11.3233104,18.5370481 C12.0882732,17.7960573 13.1308776,17.34 14.28,17.34 C15.4079695,17.34 16.4333065,17.7794217 17.1941644,18.4964186 L20.1765842,16.6327959 C20.1003633,16.3142951 20.06,15.9818612 20.06,15.64 C20.06,13.6443963 21.4354203,11.9700393 23.29,11.5131899 L23.29,8.37681011 C21.4354203,7.91996068 20.06,6.24560366 20.06,4.25 C20.06,1.90278981 21.9627898,0 24.31,0 C26.6572102,0 28.56,1.90278981 28.56,4.25 C28.56,6.18412934 27.2680138,7.81649913 25.5,8.33115072 L25.5,8.33115072 L25.5,11.5588493 C27.2680138,12.0735009 28.56,13.7058707 28.56,15.64 C28.56,17.5741293 27.2680138,19.2064991 25.5,19.7211507 L25.5,19.7211507 L25.5,26.7468127 L31.1379488,30.001884 C31.6807168,29.4493481 32.373342,29.0445086 33.15,28.8531899 L33.15,25.7168101 C31.2954203,25.2599607 29.92,23.5856037 29.92,21.59 C29.92,19.2427898 31.8227898,17.34 34.17,17.34 C35.2967291,17.34 36.3210513,17.7784559 37.0816534,18.4940543 L40.0329713,16.6498662 C39.9785506,16.3783661 39.95,16.0975172 39.95,15.81 C39.95,15.4482923 39.9951859,15.0971382 40.0802207,14.7618748 L37.0319612,13.0019613 C36.2767194,13.6902948 35.2723734,14.11 34.17,14.11 C31.8227898,14.11 29.92,12.2072102 29.92,9.86 C29.92,7.51278981 31.8227898,5.61 34.17,5.61 C36.5172102,5.61 38.42,7.51278981 38.42,9.86 C38.42,10.2442212 38.3690142,10.616534 38.2734392,10.9705417 L41.2902278,12.7122854 L41.2902278,12.7122854 C42.0506373,11.9977334 43.0741996,11.56 44.2,11.56 C46.5472102,11.56 48.45,13.4627898 48.45,15.81 C48.45,17.7441293 47.1580138,19.3764991 45.39,19.8911507 L45.39,19.8911507 L45.39,23.1188493 C47.1580138,23.6335009 48.45,25.2658707 48.45,27.2 C48.45,29.5472102 46.5472102,31.45 44.2,31.45 C41.8527898,31.45 39.95,29.5472102 39.95,27.2 C39.95,25.2043963 41.3254203,23.5300393 43.18,23.0731899 L43.18,19.9368101 C42.3914443,19.7425606 41.6895156,19.3281981 41.1431103,18.762619 L41.1431103,18.762619 L38.2905889,20.5450721 C38.3751009,20.8793706 38.42,21.2294419 38.42,21.59 C38.42,23.5241293 37.1280138,25.1564991 35.36,25.6711507 L35.36,25.6711507 L35.36,28.8988493 C37.1280138,29.4135009 38.42,31.0458707 38.42,32.98 C38.42,33.3784691 38.3651627,33.7641302 38.2626231,34.1298484 L41.2603804,35.8606044 C42.0237478,35.129316 43.0594022,34.68 44.2,34.68 C46.5472102,34.68 48.45,36.5827898 48.45,38.93 C48.45,41.2772102 46.5472102,43.18 44.2,43.18 C41.8527898,43.18 39.95,41.2772102 39.95,38.93 C39.95,38.5825919 39.9916838,38.2449195 40.0703227,37.9217115 L37.0011816,36.1497421 L37.0011816,36.1497421 C36.2495345,36.8215709 35.2574641,37.23 34.17,37.23 C31.8227898,37.23 29.92,35.3272102 29.92,32.98 C29.92,32.6781503 29.951468,32.3836503 30.0113023,32.0996016 L24.225,28.7588784 L18.4042122,32.1195118 C18.4863837,32.4494466 18.53,32.7946297 18.53,33.15 C18.53,33.4993252 18.4878549,33.8388068 18.4083721,34.1636377 L18.4083721,34.1636377 L21.3618306,35.8688177 C22.126006,35.1326817 23.1651382,34.68 24.31,34.68 C26.6572102,34.68 28.56,36.5827898 28.56,38.93 C28.56,40.9037164 27.2145847,42.5631942 25.3908476,43.0413401 L25.3908476,48.6076352 L30.2335807,45.8094435 C30.1399264,45.4587555 30.09,45.0902082 30.09,44.71 C30.09,42.3627898 31.9927898,40.46 34.34,40.46 C36.6872102,40.46 38.59,42.3627898 38.59,44.71 C38.59,47.0572102 36.6872102,48.96 34.34,48.96 C33.1815486,48.96 32.1313517,48.4965078 31.3647346,47.7448487 L25.3908476,51.1959256 L25.3908476,61.3587226 L47.3632829,61.3587226 C47.7756789,61.3587226 48.11,61.6940314 48.11,62.1061541 C48.11,62.5202805 47.7756789,62.8542535 47.3632829,62.8542535 L25.4675879,62.8542535 C25.853959,65.6870121 28.5432084,66.0670733 32.7365689,66.4097295 C36.8231603,66.7450384 41.4549419,67.1250996 42.7001378,71.7272469 C42.7815493,72.0278226 42.6047128,72.3350777 42.3070936,72.4165671 C42.2570456,72.429258 42.2083321,72.4359375 42.1596187,72.4359375 C41.9127149,72.4359375 41.6871649,72.2716228 41.6197669,72.0211431 C40.6808652,68.5531679 37.3049563,67.9466731 33.7895802,67.626059 C33.8843379,67.7315945 33.9744244,67.8411376 34.0578379,67.9546884 C34.7291492,68.8624269 35.7801586,69.2852367 36.8925603,69.7327604 C38.2865657,70.2924991 39.7272827,70.8729441 40.3799095,72.4646592 C40.4973556,72.751208 40.3605576,73.0791694 40.0736153,73.1967279 C40.0042153,73.2247816 39.9321461,73.2381405 39.8620788,73.2381405 C39.6412,73.2381405 39.4323328,73.1078911 39.3435809,72.8894728 C38.8704598,71.7365981 37.7607274,71.2904103 36.4754931,70.7740881 C35.9890259,70.5783799 35.4965529,70.3773282 35.0254338,70.13286 C35.1649011,70.6551937 35.2750068,71.1875466 35.3784395,71.7065406 C35.5659529,72.6430007 35.7434567,73.5293649 36.0824489,74.2727887 C36.2112393,74.5546619 36.0877874,74.887299 35.8061836,75.0162125 C35.7307779,75.0502778 35.6520356,75.0669764 35.5739606,75.0669764 C35.3610895,75.0669764 35.158228,74.9447423 35.0641376,74.7396829 C34.6697589,73.8773648 34.4715685,72.8847971 34.2800513,71.9269627 C33.8209437,69.6332365 33.424563,67.6521089 30.681929,67.3488615 C30.6745886,67.3481935 30.6692502,67.3468576 30.6632444,67.3455217 C28.7180429,67.1264355 26.9056357,66.7390269 25.7158263,65.6963633 C26.2736954,66.9995258 27.1024914,67.9520166 27.9166066,68.8817973 C28.2529296,69.2672021 28.5912545,69.6559466 28.9095602,70.0667334 C28.9148987,70.0720769 28.9215717,70.0774205 28.9269102,70.083432 C29.2612313,70.5169289 29.6509389,70.8842992 30.0640022,71.2763834 C30.6158656,71.7967133 31.1944212,72.3484366 31.6662076,73.0878527 C31.6768846,73.1012116 31.6875615,73.1132346 31.6969038,73.1285974 C32.3188344,74.1198291 34.1525955,76.1437052 35.3157126,76.7996281 C35.5853048,76.9505839 35.6807298,77.2925722 35.529251,77.5630903 C35.4264856,77.7454395 35.236303,77.8483032 35.0407819,77.8483032 C34.9473588,77.8483032 34.8532684,77.8249251 34.7665185,77.776833 C34.1118898,77.4074589 33.3284707,76.7214784 32.6104478,75.9840662 C32.6778459,76.6747222 32.6778459,77.4582228 32.5797517,78.3793202 C32.5490555,78.6678728 32.3068229,78.8802796 32.0238845,78.8802796 C32.0038653,78.8802796 31.9845133,78.8789437 31.9644941,78.8776078 C31.6575326,78.8455464 31.4339846,78.5683489 31.4666827,78.2610938 C31.7396115,75.689502 31.2357943,74.3275603 30.4657214,73.3229697 C30.8060482,75.0696482 30.5858367,77.381409 29.2919274,80.7458525 C29.2058447,80.9689465 28.993641,81.1058754 28.7687583,81.1058754 C28.7013602,81.1058754 28.6332949,81.0931844 28.5678987,81.0684704 C28.2789546,80.9562555 28.1348161,80.6323017 28.2462565,80.3430811 C30.7533309,73.8279368 29.0483602,71.8788706 27.0737972,69.6205455 C26.2917127,68.725498 25.456911,67.7656597 24.8423208,66.4832036 C25.0191573,68.6787418 25.3034303,70.4801919 25.5496667,72.0418494 C26.29238,76.7421848 26.7394761,79.5809549 23.0546039,84.765551 C22.9458327,84.9191785 22.7730001,85 22.5981655,85 C22.4853905,85 22.3726156,84.9679386 22.273854,84.8971363 C22.0216118,84.7167909 21.9628887,84.3674552 22.1423945,84.1156396 C24.8496611,80.3063441 25.163963,77.9344682 24.8202996,74.8452184 C24.5920804,75.2393065 24.3251574,75.5692717 24.0622382,75.8938935 C23.3622326,76.7602193 22.7009309,77.578453 22.8403981,79.8768549 C22.8590828,80.1861139 22.6241905,80.4526243 22.3152271,80.4706588 C22.3038829,80.4719947 22.2925387,80.4719947 22.2811944,80.4719947 C21.9869118,80.4719947 21.740008,80.2422213 21.7219907,79.9449854 C21.5564984,77.2117507 22.4253329,76.1383617 23.1914019,75.1898785 C23.955469,74.2440671 24.6147689,73.4271692 24.2183882,70.763401 C24.0442209,69.602511 23.8740575,68.3107036 23.7479364,66.8432264 C23.146025,68.0695751 22.1504021,69.4068028 20.4994833,70.8008059 L20.498816,70.8008059 C18.5289241,72.4633233 19.0634375,74.2767964 19.6813643,76.3741466 C20.0864199,77.7494472 20.5054891,79.1701681 20.2452391,80.6483324 C20.1978603,80.9208543 19.9609661,81.1112189 19.6947104,81.1112189 C19.6620123,81.1112189 19.6293143,81.1085471 19.5966162,81.1032036 C19.2916567,81.0497679 19.0887952,80.7592114 19.1421798,80.4539602 C19.3563855,79.2356268 18.9760202,77.9424836 18.6076664,76.6927568 C18.4408395,76.1263386 18.2693415,75.5405501 18.1505608,74.9460782 C18.1005127,75.1651645 18.0538012,75.3842507 18.0064223,75.6073447 C17.5926917,77.5443878 17.1649475,79.5495614 14.5677866,81.2534914 C14.4736962,81.3149424 14.3662597,81.345 14.2614924,81.345 C14.0793175,81.345 13.8998117,81.2561632 13.7923752,81.0918485 C13.6228791,80.8320175 13.6956156,80.4853536 13.9538637,80.3156954 C16.1653208,78.8649168 16.5103188,77.2471519 16.9107034,75.3722277 C17.0848706,74.5573337 17.2717167,73.6910079 17.6400705,72.8166667 C17.4772475,72.9148547 17.3164263,73.009703 17.1662821,73.0985398 C15.5247056,74.0704011 14.6198366,74.6040899 14.2568213,76.6693787 C14.2094424,76.9419006 13.9732156,77.1336011 13.7062926,77.1336011 C13.6735945,77.1336011 13.642231,77.1309293 13.6088657,77.1242498 C13.3045734,77.0708141 13.1003773,76.7802577 13.1537619,76.4750064 C13.6068637,73.9020788 14.8607346,73.1599909 16.5964015,72.133358 C17.5119474,71.5916539 18.550278,70.9784795 19.7754546,69.9451672 C19.7761219,69.9451672 19.7767892,69.9438313 19.7767892,69.9438313 C21.7113138,68.3107036 22.6522174,66.7971382 23.111325,65.4639181 C22.9618481,65.6469353 22.8050308,65.823941 22.6301963,65.9882557 C20.965264,67.5499132 18.2526588,68.2218668 14.5657847,67.9947652 C12.928212,68.2973447 12.7440351,69.1897204 12.4937948,71.157489 C12.2662429,72.9469161 11.9826372,75.1738478 10.0274261,77.4896162 C9.91665305,77.6218695 9.75916847,77.6893321 9.59968197,77.6893321 C9.47155892,77.6893321 9.34343587,77.6452476 9.23866859,77.5564108 C9.00244172,77.356695 8.97241288,77.0033516 9.17193784,76.7668988 C10.9136105,74.7029459 11.1731931,72.6590314 11.3827277,71.0165524 C11.5282008,69.8763688 11.6710046,68.7762619 12.3182929,67.9807383 C11.7090411,68.0201471 11.1551758,68.0942891 10.652026,68.1971528 C9.22131859,68.7922926 9.15925899,69.5450676 9.04982056,70.9030016 C8.97574942,71.812076 8.8856629,72.9429084 8.27641112,74.1946391 C8.18031883,74.393687 7.98079388,74.5099095 7.77326124,74.5099095 C7.69118241,74.5099095 7.60776897,74.491875 7.52835937,74.4538021 C7.25009213,74.3182091 7.13464792,73.9829002 7.27011135,73.7036988 C7.78594008,72.6416648 7.86401506,71.6711394 7.93341504,70.8128289 C7.98146119,70.2143494 8.03084195,69.6285609 8.21968998,69.0868567 C6.06562124,70.3325758 5.72596171,72.1694271 5.70594248,72.2923291 C5.66056557,72.566187 5.42233678,72.7605592 5.15407915,72.7605592 C5.123383,72.7605592 5.09201955,72.7578874 5.06065609,72.7525439 C4.75636385,72.70178 4.55016583,72.4138953 4.6008812,72.1079761 C4.8758119,70.4608215 6.39727309,68.0201471 10.244301,67.1538213 C10.2503068,67.1511495 10.2543107,67.1484777 10.2603164,67.1458059 C10.3270472,67.1184201 10.3944452,67.1063971 10.4618433,67.1050612 C11.6162853,66.8692763 12.9722543,66.7697524 14.5604462,66.8719481 C17.919005,67.0923702 20.4434295,66.5039099 21.8641272,65.1706899 C22.655554,64.4292699 22.9872058,63.5829825 23.1099904,62.8542535 L1.17759353,62.8542535 C0.765197469,62.8542535 0.430876392,62.5202805 0.430876392,62.1061541 C0.430876392,61.6940314 0.765197469,61.3587226 1.17759353,61.3587226 L23.1506961,61.3587226 L23.1506961,51.1959256 L17.1609437,47.733962 C16.6915731,48.1924454 16.1143653,48.541405 15.4710846,48.7373775 C15.0437789,48.8817375 14.5860291,48.96 14.11,48.96 C11.7627898,48.96 9.86,47.0572102 9.86,44.71 C9.86,42.3627898 11.7627898,40.46 14.11,40.46 C15.7651383,40.46 17.1992937,41.40614 17.9011207,42.7870745 C18.2244828,43.3770658 18.411478,44.0517563 18.411478,44.7709539 C18.411478,45.1236294 18.3627646,45.4636139 18.2800184,45.7902394 L23.1506961,48.6062993 L23.1513589,43.0201475 Z M36.3544331,45.9780442 C36.5860049,45.610938 36.72,45.1761171 36.72,44.71 C36.72,43.3955623 35.6544377,42.33 34.34,42.33 C33.4272854,42.33 32.6345683,42.8437701 32.235275,43.5978838 L32.3014844,43.6361139 C32.1079652,43.9700868 31.9958576,44.3574954 31.9958576,44.7709539 C31.9958576,45.1857484 32.1092998,45.5744929 32.3034863,45.9098017 C32.6978651,46.5897707 33.4299015,47.0479815 34.270709,47.0479815 C35.1101818,47.0479815 35.8428855,46.5897707 36.236597,45.9098017 L36.3544331,45.9780442 Z M14.8448502,46.9743881 C15.7996578,46.664748 16.49,45.767993 16.49,44.71 C16.49,43.3955623 15.4244377,42.33 14.11,42.33 C12.7955623,42.33 11.73,43.3955623 11.73,44.71 C11.73,45.1936213 11.8742479,45.6435517 12.1220666,46.0191138 L12.3062813,45.9124735 C12.6999928,46.5911065 13.4313619,47.0479815 14.2701674,47.0479815 C14.4687599,47.0479815 14.6613398,47.0224128 14.8448502,46.9743881 Z M26.3312916,40.1871059 C26.5586486,39.8223133 26.69,39.3914961 26.69,38.93 C26.69,37.6155623 25.6244377,36.55 24.31,36.55 C22.9955623,36.55 21.93,37.6155623 21.93,38.93 C21.93,39.3773355 22.0534143,39.7958461 22.2680519,40.1533406 L22.3025483,40.1334055 C22.6962597,40.8127065 23.4296307,41.2722533 24.2704382,41.2722533 C25.1125803,41.2722533 25.845284,40.8127065 26.2383281,40.1334055 L26.3312916,40.1871059 Z M4.25,18.02 C5.5644377,18.02 6.63,16.9544377 6.63,15.64 C6.63,14.3255623 5.5644377,13.26 4.25,13.26 C2.9355623,13.26 1.87,14.3255623 1.87,15.64 C1.87,16.9544377 2.9355623,18.02 4.25,18.02 Z M4.25,29.75 C5.5644377,29.75 6.63,28.6844377 6.63,27.37 C6.63,26.0555623 5.5644377,24.99 4.25,24.99 C2.9355623,24.99 1.87,26.0555623 1.87,27.37 C1.87,28.6844377 2.9355623,29.75 4.25,29.75 Z M14.28,12.41 C15.5944377,12.41 16.66,11.3444377 16.66,10.03 C16.66,8.7155623 15.5944377,7.65 14.28,7.65 C12.9655623,7.65 11.9,8.7155623 11.9,10.03 C11.9,11.3444377 12.9655623,12.41 14.28,12.41 Z M24.31,6.63 C25.6244377,6.63 26.69,5.5644377 26.69,4.25 C26.69,2.9355623 25.6244377,1.87 24.31,1.87 C22.9955623,1.87 21.93,2.9355623 21.93,4.25 C21.93,5.5644377 22.9955623,6.63 24.31,6.63 Z M24.31,18.02 C25.6244377,18.02 26.69,16.9544377 26.69,15.64 C26.69,14.3255623 25.6244377,13.26 24.31,13.26 C22.9955623,13.26 21.93,14.3255623 21.93,15.64 C21.93,16.9544377 22.9955623,18.02 24.31,18.02 Z M14.28,23.97 C15.5944377,23.97 16.66,22.9044377 16.66,21.59 C16.66,20.2755623 15.5944377,19.21 14.28,19.21 C12.9655623,19.21 11.9,20.2755623 11.9,21.59 C11.9,22.9044377 12.9655623,23.97 14.28,23.97 Z M34.17,12.24 C35.4844377,12.24 36.55,11.1744377 36.55,9.86 C36.55,8.5455623 35.4844377,7.48 34.17,7.48 C32.8555623,7.48 31.79,8.5455623 31.79,9.86 C31.79,11.1744377 32.8555623,12.24 34.17,12.24 Z M44.2,18.19 C45.5144377,18.19 46.58,17.1244377 46.58,15.81 C46.58,14.4955623 45.5144377,13.43 44.2,13.43 C42.8855623,13.43 41.82,14.4955623 41.82,15.81 C41.82,17.1244377 42.8855623,18.19 44.2,18.19 Z M44.2,29.58 C45.5144377,29.58 46.58,28.5144377 46.58,27.2 C46.58,25.8855623 45.5144377,24.82 44.2,24.82 C42.8855623,24.82 41.82,25.8855623 41.82,27.2 C41.82,28.5144377 42.8855623,29.58 44.2,29.58 Z M34.17,23.97 C35.4844377,23.97 36.55,22.9044377 36.55,21.59 C36.55,20.2755623 35.4844377,19.21 34.17,19.21 C32.8555623,19.21 31.79,20.2755623 31.79,21.59 C31.79,22.9044377 32.8555623,23.97 34.17,23.97 Z M34.17,35.36 C35.4844377,35.36 36.55,34.2944377 36.55,32.98 C36.55,31.6655623 35.4844377,30.6 34.17,30.6 C32.8555623,30.6 31.79,31.6655623 31.79,32.98 C31.79,34.2944377 32.8555623,35.36 34.17,35.36 Z M44.2,41.31 C45.5144377,41.31 46.58,40.2444377 46.58,38.93 C46.58,37.6155623 45.5144377,36.55 44.2,36.55 C42.8855623,36.55 41.82,37.6155623 41.82,38.93 C41.82,40.2444377 42.8855623,41.31 44.2,41.31 Z M14.28,35.53 C15.5944377,35.53 16.66,34.4644377 16.66,33.15 C16.66,31.8355623 15.5944377,30.77 14.28,30.77 C12.9655623,30.77 11.9,31.8355623 11.9,33.15 C11.9,34.4644377 12.9655623,35.53 14.28,35.53 Z M4.25,41.31 C5.5644377,41.31 6.63,40.2444377 6.63,38.93 C6.63,37.6155623 5.5644377,36.55 4.25,36.55 C2.9355623,36.55 1.87,37.6155623 1.87,38.93 C1.87,40.2444377 2.9355623,41.31 4.25,41.31 Z" id="Oval-1" sketch:type="MSShapeGroup"></path>
                <g id="Теплица-предупреждае-+-СМЕНИ-ЛОГО" transform="translate(66.000000, 16.000000)" sketch:type="MSShapeGroup">
                    <path d="M10.07,2.315 L10.07,0.472 L0.57,0.472 L0.57,2.315 L4.294,2.315 L4.294,14 L6.346,14 L6.346,2.315 L10.07,2.315 Z M18.506,9.763 L18.506,8.889 C18.506,6.058 16.929,4.253 14.44,4.253 C11.913,4.253 10.355,6.115 10.355,9.136 C10.355,12.404 11.837,14.114 14.725,14.114 C16.264,14.114 17.195,13.677 18.278,12.613 L17.062,11.454 C16.378,12.119 15.77,12.461 14.801,12.461 C12.996,12.461 12.312,11.378 12.274,9.763 L18.506,9.763 Z M16.606,8.395 L12.274,8.395 C12.312,7.065 12.882,5.868 14.44,5.868 C16.017,5.868 16.511,7.084 16.606,8.395 L16.606,8.395 Z M28.804,14 L28.804,4.367 L21.09,4.367 L21.09,14 L23.028,14 L23.028,6.058 L26.866,6.058 L26.866,14 L28.804,14 Z M39.349,14 L39.349,4.367 L32.756,4.367 L32.756,8.376 C32.756,12.1 31.768,12.29 30.932,12.29 L30.628,12.29 L30.628,14 L31.54,14 C33.421,14 34.618,12.936 34.618,8.851 L34.618,6.058 L37.411,6.058 L37.411,14 L39.349,14 Z M50.445,14 L50.445,4.367 L48.507,4.367 L44.384,10.903 L44.384,4.367 L42.446,4.367 L42.446,14 L44.384,14 L48.507,7.369 L48.507,14 L50.445,14 Z M62.605,16.47 L62.605,12.309 L61.237,12.309 L61.237,4.367 L59.299,4.367 L59.299,12.309 L55.461,12.309 L55.461,4.367 L53.523,4.367 L53.523,14 L60.743,14 L60.743,16.47 L62.605,16.47 Z M71.763,14 L71.763,7.559 C71.763,5.374 70.414,4.253 67.735,4.253 C66.823,4.253 66.139,4.367 65.588,4.633 C65.113,4.842 64.866,5.07 64.334,5.64 L65.607,6.837 C65.892,6.476 66.101,6.286 66.386,6.153 C66.728,5.982 67.127,5.906 67.678,5.906 C69.198,5.906 69.844,6.438 69.844,7.692 L69.844,8.395 L67.26,8.395 C65.208,8.395 63.954,9.44 63.954,11.188 C63.954,13.05 65.151,14.095 67.298,14.095 C68.438,14.095 69.065,13.924 69.863,13.126 L69.863,14 L71.763,14 Z M69.844,10.523 C69.844,11.929 69.236,12.499 67.735,12.499 C66.424,12.499 65.835,12.062 65.835,11.131 C65.835,10.219 66.424,9.763 67.564,9.763 L69.844,9.763 L69.844,10.523 Z M87.02,14 L87.02,4.367 L79.306,4.367 L79.306,14 L81.244,14 L81.244,6.058 L85.082,6.058 L85.082,14 L87.02,14 Z M97.964,9.212 C97.964,8.072 97.907,7.426 97.755,6.742 C97.375,5.07 96.197,4.253 94.487,4.253 C93.328,4.253 92.777,4.576 91.998,5.374 L91.998,4.367 L90.098,4.367 L90.098,17.895 L92.036,17.895 L92.036,13.012 C92.758,13.81 93.404,14.114 94.506,14.114 C95.494,14.114 96.33,13.81 96.9,13.24 C97.66,12.48 97.964,11.302 97.964,9.212 L97.964,9.212 Z M96.045,9.174 C96.045,11.473 95.475,12.385 94.05,12.385 C92.625,12.385 92.036,11.473 92.036,9.25 C92.036,8.148 92.15,7.426 92.397,6.913 C92.701,6.286 93.233,5.982 94.031,5.982 C95.475,5.982 96.045,6.875 96.045,9.174 L96.045,9.174 Z M108.262,9.763 L108.262,8.889 C108.262,6.058 106.685,4.253 104.196,4.253 C101.669,4.253 100.111,6.115 100.111,9.136 C100.111,12.404 101.593,14.114 104.481,14.114 C106.02,14.114 106.951,13.677 108.034,12.613 L106.818,11.454 C106.134,12.119 105.526,12.461 104.557,12.461 C102.752,12.461 102.068,11.378 102.03,9.763 L108.262,9.763 Z M106.362,8.395 L102.03,8.395 C102.068,7.065 102.638,5.868 104.196,5.868 C105.773,5.868 106.267,7.084 106.362,8.395 L106.362,8.395 Z M113.563,6.058 L116.28,6.058 L116.28,12.309 L112.651,12.309 C113.202,11.131 113.563,9.82 113.563,7.597 L113.563,6.058 Z M111.72,4.367 L111.72,6.818 C111.72,9.782 111.226,11.093 110.618,12.309 L109.592,12.309 L109.592,16.47 L111.435,16.47 L111.435,14 L117.686,14 L117.686,16.47 L119.548,16.47 L119.548,12.309 L118.218,12.309 L118.218,4.367 L111.72,4.367 Z M128.915,4.367 L126.844,4.367 L124.602,11.169 L122.303,4.367 L120.232,4.367 L123.614,13.544 L123.082,15.064 C122.797,15.881 122.493,16.071 121.695,16.071 L121.201,16.071 L121.201,17.819 L121.98,17.819 C123.367,17.819 124.184,17.23 124.659,15.919 L128.915,4.367 Z M138.301,14 L138.301,4.367 L130.587,4.367 L130.587,14 L132.525,14 L132.525,6.058 L136.363,6.058 L136.363,14 L138.301,14 Z M149.245,9.212 C149.245,8.072 149.188,7.426 149.036,6.742 C148.656,5.07 147.478,4.253 145.768,4.253 C144.609,4.253 144.058,4.576 143.279,5.374 L143.279,4.367 L141.379,4.367 L141.379,17.895 L143.317,17.895 L143.317,13.012 C144.039,13.81 144.685,14.114 145.787,14.114 C146.775,14.114 147.611,13.81 148.181,13.24 C148.941,12.48 149.245,11.302 149.245,9.212 L149.245,9.212 Z M147.326,9.174 C147.326,11.473 146.756,12.385 145.331,12.385 C143.906,12.385 143.317,11.473 143.317,9.25 C143.317,8.148 143.431,7.426 143.678,6.913 C143.982,6.286 144.514,5.982 145.312,5.982 C146.756,5.982 147.326,6.875 147.326,9.174 L147.326,9.174 Z M159.543,9.763 L159.543,8.889 C159.543,6.058 157.966,4.253 155.477,4.253 C152.95,4.253 151.392,6.115 151.392,9.136 C151.392,12.404 152.874,14.114 155.762,14.114 C157.301,14.114 158.232,13.677 159.315,12.613 L158.099,11.454 C157.415,12.119 156.807,12.461 155.838,12.461 C154.033,12.461 153.349,11.378 153.311,9.763 L159.543,9.763 Z M157.643,8.395 L153.311,8.395 C153.349,7.065 153.919,5.868 155.477,5.868 C157.054,5.868 157.548,7.084 157.643,8.395 L157.643,8.395 Z M162.545,14 L166.25,9.003 L166.25,14 L168.207,14 L168.207,9.003 L171.912,14 L174.249,14 L170.354,8.889 L173.964,4.367 L171.703,4.367 L168.207,8.965 L168.207,4.367 L166.25,4.367 L166.25,8.965 L162.773,4.367 L160.512,4.367 L164.122,8.889 L160.208,14 L162.545,14 Z M178.505,6.058 L181.222,6.058 L181.222,12.309 L177.593,12.309 C178.144,11.131 178.505,9.82 178.505,7.597 L178.505,6.058 Z M176.662,4.367 L176.662,6.818 C176.662,9.782 176.168,11.093 175.56,12.309 L174.534,12.309 L174.534,16.47 L176.377,16.47 L176.377,14 L182.628,14 L182.628,16.47 L184.49,16.47 L184.49,12.309 L183.16,12.309 L183.16,4.367 L176.662,4.367 Z M193.667,14 L193.667,7.559 C193.667,5.374 192.318,4.253 189.639,4.253 C188.727,4.253 188.043,4.367 187.492,4.633 C187.017,4.842 186.77,5.07 186.238,5.64 L187.511,6.837 C187.796,6.476 188.005,6.286 188.29,6.153 C188.632,5.982 189.031,5.906 189.582,5.906 C191.102,5.906 191.748,6.438 191.748,7.692 L191.748,8.395 L189.164,8.395 C187.112,8.395 185.858,9.44 185.858,11.188 C185.858,13.05 187.055,14.095 189.202,14.095 C190.342,14.095 190.969,13.924 191.767,13.126 L191.767,14 L193.667,14 Z M191.748,10.523 C191.748,11.929 191.14,12.499 189.639,12.499 C188.328,12.499 187.739,12.062 187.739,11.131 C187.739,10.219 188.328,9.763 189.468,9.763 L191.748,9.763 L191.748,10.523 Z M204.307,9.763 L204.307,8.889 C204.307,6.058 202.73,4.253 200.241,4.253 C197.714,4.253 196.156,6.115 196.156,9.136 C196.156,12.404 197.638,14.114 200.526,14.114 C202.065,14.114 202.996,13.677 204.079,12.613 L202.863,11.454 C202.179,12.119 201.571,12.461 200.602,12.461 C198.797,12.461 198.113,11.378 198.075,9.763 L204.307,9.763 Z M202.407,8.395 L198.075,8.395 C198.113,7.065 198.683,5.868 200.241,5.868 C201.818,5.868 202.312,7.084 202.407,8.395 L202.407,8.395 Z M213.503,6.058 L213.503,4.367 L205.561,4.367 L205.561,6.058 L208.62,6.058 L208.62,14 L210.558,14 L210.558,6.058 L213.503,6.058 Z" id="Теплица-предупреждае"></path>
                    <path d="M21.448,50.996 L18.864,50.996 C18.218,53.954 16.076,55.892 13.05,55.892 C11.452,55.892 9.922,55.28 8.868,54.192 C7.338,52.628 7.168,50.962 7.168,45.896 C7.168,40.83 7.338,39.164 8.868,37.6 C9.922,36.512 11.452,35.9 13.05,35.9 C16.076,35.9 18.15,37.838 18.796,40.796 L21.448,40.796 C20.632,36.24 17.402,33.588 13.05,33.588 C10.67,33.588 8.494,34.472 6.862,36.104 C4.584,38.382 4.584,40.762 4.584,45.896 C4.584,51.03 4.584,53.41 6.862,55.688 C8.494,57.32 10.67,58.204 13.05,58.204 C17.368,58.204 20.666,55.552 21.448,50.996 L21.448,50.996 Z M47.6,58 L47.6,33.792 L45.016,33.792 L37.332,50.962 L29.444,33.792 L26.86,33.792 L26.86,58 L29.444,58 L29.444,39.606 L36.176,54.192 L38.386,54.192 L45.016,39.606 L45.016,58 L47.6,58 Z M69.332,58 L69.332,55.688 L56.888,55.688 L56.888,46.95 L67.496,46.95 L67.496,44.638 L56.888,44.638 L56.888,36.104 L69.332,36.104 L69.332,33.792 L54.304,33.792 L54.304,58 L69.332,58 Z M91.064,58 L91.064,33.792 L88.48,33.792 L88.48,44.638 L76.988,44.638 L76.988,33.792 L74.404,33.792 L74.404,58 L76.988,58 L76.988,46.95 L88.48,46.95 L88.48,58 L91.064,58 Z M115.108,58 L115.108,33.792 L112.66,33.792 L100.352,53.512 L100.352,33.792 L97.768,33.792 L97.768,58 L100.216,58 L112.524,38.246 L112.524,58 L115.108,58 Z M145.992,58 L145.992,33.792 L132.664,33.792 L132.664,43.618 C132.664,53.682 130.522,55.688 127.53,55.688 L126.884,55.688 L126.884,58 L128.108,58 C132.732,58 135.18,54.6 135.18,44.4 L135.18,36.104 L143.408,36.104 L143.408,58 L145.992,58 Z M168.71,44.23 C168.71,41.272 168.54,38.212 166.432,36.104 C164.8,34.472 162.624,33.588 160.244,33.588 C157.864,33.588 155.688,34.472 154.056,36.104 C151.982,38.178 151.778,41.136 151.778,44.026 L151.778,45.896 C151.778,50.724 151.846,53.478 154.056,55.688 C155.688,57.32 157.83,58.204 160.244,58.204 C162.658,58.204 164.8,57.32 166.432,55.688 C168.642,53.478 168.71,50.724 168.71,45.896 L168.71,44.23 Z M166.126,47.086 C166.126,49.874 166.092,52.492 164.426,54.158 C163.304,55.28 161.842,55.892 160.244,55.892 C158.646,55.892 157.184,55.28 156.062,54.158 C154.498,52.594 154.362,50.214 154.362,47.596 L154.362,45.182 C154.362,41.85 154.362,39.334 156.062,37.634 C157.184,36.512 158.68,35.9 160.244,35.9 C161.808,35.9 163.304,36.512 164.426,37.634 C166.024,39.232 166.126,41.748 166.126,44.604 L166.126,47.086 Z M189.286,36.104 L189.286,33.792 L174.734,33.792 L174.734,58 L177.318,58 L177.318,36.104 L189.286,36.104 Z M208.536,44.23 C208.536,41.272 208.366,38.212 206.258,36.104 C204.626,34.472 202.45,33.588 200.07,33.588 C197.69,33.588 195.514,34.472 193.882,36.104 C191.808,38.178 191.604,41.136 191.604,44.026 L191.604,45.896 C191.604,50.724 191.672,53.478 193.882,55.688 C195.514,57.32 197.656,58.204 200.07,58.204 C202.484,58.204 204.626,57.32 206.258,55.688 C208.468,53.478 208.536,50.724 208.536,45.896 L208.536,44.23 Z M205.952,47.086 C205.952,49.874 205.918,52.492 204.252,54.158 C203.13,55.28 201.668,55.892 200.07,55.892 C198.472,55.892 197.01,55.28 195.888,54.158 C194.324,52.594 194.188,50.214 194.188,47.596 L194.188,45.182 C194.188,41.85 194.188,39.334 195.888,37.634 C197.01,36.512 198.506,35.9 200.07,35.9 C201.634,35.9 203.13,36.512 204.252,37.634 C205.85,39.232 205.952,41.748 205.952,44.604 L205.952,47.086 Z" id="СМЕНИ-ЛОГО"></path>
                </g>
            </g>
        </g>
    </g>
</svg>