<?xml version="1.0" encoding="UTF-8" standalone="no"?>
<svg width="272px" height="125px" viewBox="0 0 272 125" version="1.1" xmlns="http://www.w3.org/2000/svg" xmlns:xlink="http://www.w3.org/1999/xlink" xmlns:sketch="http://www.bohemiancoding.com/sketch/ns">
    <!-- Generator: Sketch 3.4.2 (15855) - http://www.bohemiancoding.com/sketch -->
    <title>Group</title>
    <desc>Created with Sketch.</desc>
    <defs></defs>
    <g id="Page-1" stroke="none" stroke-width="1" fill="none" fill-rule="evenodd" sketch:type="MSPage">
        <g id="Artboard-1" sketch:type="MSArtboardGroup" transform="translate(-139.000000, -62.000000)" fill="#FFFFFF">
            <g id="Group" sketch:type="MSLayerGroup" transform="translate(139.000000, 62.000000)">
                <path d="M120.193408,60.9273239 L120.193408,92.7267606 L112.676225,92.7267606 L112.676225,54.2214085 L136.904958,54.2214085 L136.904958,60.9273239 L120.193408,60.9273239 Z" id="Fill-8" sketch:type="MSShapeGroup"></path>
                <path d="M164.541127,92.7266479 L164.541127,68.0117183 L149.560845,92.7266479 L142.855493,92.7266479 L142.855493,54.2212958 L150.372113,54.2212958 L150.372113,78.8821408 L165.352394,54.2212958 L172.058873,54.2212958 L172.058873,92.7266479 L164.541127,92.7266479 Z" id="Fill-10" sketch:type="MSShapeGroup"></path>
                <path d="M188.718085,60.9273239 L188.718085,92.7267606 L181.200338,92.7267606 L181.200338,54.2214085 L205.42907,54.2214085 L205.42907,60.9273239 L188.718085,60.9273239 Z" id="Fill-12" sketch:type="MSShapeGroup"></path>
                <path d="M211.378761,92.7266479 L211.378761,54.2212958 L236.742704,54.2212958 L236.742704,60.9272113 L218.896507,60.9272113 L218.896507,69.9587606 L234.092,69.9587606 L234.092,76.6646761 L218.896507,76.6646761 L218.896507,86.0207324 L236.742704,86.0207324 L236.742704,92.7266479 L211.378761,92.7266479 Z" id="Fill-14" sketch:type="MSShapeGroup"></path>
                <path d="M258.646592,71.4727887 C262.000394,71.4727887 264.217859,69.4181408 264.217859,66.2271549 C264.217859,63.036169 262.000394,60.9274366 258.646592,60.9274366 L251.616169,60.9274366 L251.616169,71.4727887 L258.646592,71.4727887 Z M259.02631,54.2209577 C266.434761,54.2209577 271.733915,59.1967324 271.733915,66.2271549 C271.733915,73.2575775 266.488845,78.2327887 259.02631,78.2327887 L251.616169,78.2327887 L251.616169,92.7268732 L244.100113,92.7268732 L244.100113,54.2209577 L259.02631,54.2209577 Z" id="Fill-16" sketch:type="MSShapeGroup"></path>
                <path d="M90.5505762,73.5723431 C90.5505762,107.528809 67.9129321,124.507042 45.2752881,124.507042 C22.637644,124.507042 0,107.528809 0,73.5723431 C0,33.9564661 22.637644,0 45.2752881,0 C67.9129321,0 90.5505762,33.9564661 90.5505762,73.5723431 L90.5505762,73.5723431 Z M20.7700384,65.0832266 L20.7700384,93.3802817 L45.2752881,107.528809 L69.7805378,93.3802817 L69.7805378,65.0832266 L45.2752881,50.9346991 L20.7700384,65.0832266 L20.7700384,65.0832266 Z M43.2944942,47.5028323 L45.2752881,46.3596312 L45.2752881,33.9564661 C33.1822586,33.9564661 21.8136338,38.665096 13.2611319,47.2153342 L24.435073,58.3915391 L43.2944942,47.5028323 L43.2944942,47.5028323 Z M45.2752881,65.0832266 C42.1490294,65.0832266 39.6158771,71.4172394 39.6158771,79.2317542 C39.6158771,87.0462689 42.1490294,93.3802817 45.2752881,93.3802817 C48.4015467,93.3802817 50.9346991,87.0462689 50.9346991,79.2317542 C50.9346991,71.4172394 48.4015467,65.0832266 45.2752881,65.0832266 L45.2752881,65.0832266 Z M72.488,106.444466 L68.4856645,102.442131 C62.2852138,108.642581 54.0428476,112.056338 45.2752881,112.056338 L45.2752881,117.715749 C55.5550423,117.715749 65.2190525,113.71115 72.488,106.444466 L72.488,106.444466 Z" id="Shape" sketch:type="MSShapeGroup"></path>
            </g>
        </g>
    </g>
</svg>