<?xml version="1.0" encoding="UTF-8" standalone="no"?>
<svg width="27px" height="46px" viewBox="0 0 27 46" version="1.1" xmlns="http://www.w3.org/2000/svg" xmlns:xlink="http://www.w3.org/1999/xlink" xmlns:sketch="http://www.bohemiancoding.com/sketch/ns">
    <!-- Generator: Sketch 3.3.3 (12072) - http://www.bohemiancoding.com/sketch -->
    <title>Oval 1 Copy 2</title>
    <desc>Created with Sketch.</desc>
    <defs></defs>
    <g id="Page-1" stroke="none" stroke-width="1" fill="none" fill-rule="evenodd" sketch:type="MSPage">
        <g id="Artboard-4" sketch:type="MSArtboardGroup" transform="translate(-56.000000, -2.000000)" fill="#FFFFFF">
            <path d="M68.5289707,25.2814916 C67.5634714,25.008529 66.856,24.1208839 66.856,23.068 C66.856,22.882227 66.8780249,22.7015982 66.9196058,22.5285824 L65.3167001,21.6031444 C64.9037903,21.9976843 64.3441931,22.24 63.728,22.24 C63.0889673,22.24 62.5108038,21.9793882 62.0939948,21.55865 L62.0939948,21.55865 L60.5206848,22.467001 C60.5724077,22.6585816 60.6,22.8600685 60.6,23.068 C60.6,24.3382549 59.5702549,25.368 58.3,25.368 C57.0297451,25.368 56,24.3382549 56,23.068 C56,21.7977451 57.0297451,20.768 58.3,20.768 C58.8965785,20.768 59.440107,20.9951346 59.8488261,21.3676444 L61.4794831,20.4261842 C61.4457567,20.2694615 61.428,20.1068044 61.428,19.94 C61.428,18.6697451 62.4577451,17.64 63.728,17.64 C64.34081,17.64 64.8976439,17.8796623 65.3098858,18.270371 L68.512,16.4216295 L68.512,16.4216295 L68.512,12.6726227 C68.1495913,12.5671291 67.8241414,12.3748555 67.559646,12.1197974 L65.9584298,13.1203483 C66.003866,13.3007076 66.028,13.4895354 66.028,13.684 C66.028,14.9542549 64.9982549,15.984 63.728,15.984 C62.4577451,15.984 61.428,14.9542549 61.428,13.684 C61.428,13.5004642 61.4494976,13.3219494 61.4901121,13.1508363 L61.4901121,13.1508363 L59.8224613,12.1880176 C59.57217,12.4092151 59.2733465,12.5767532 58.944,12.6726227 L58.944,12.6726227 L58.944,14.6033773 C59.9008075,14.8818946 60.6,15.7652947 60.6,16.812 C60.6,18.0822549 59.5702549,19.112 58.3,19.112 C57.0297451,19.112 56,18.0822549 56,16.812 C56,15.7652947 56.6991925,14.8818946 57.656,14.6033773 L57.656,12.6726227 C56.6991925,12.3941054 56,11.5107053 56,10.464 C56,9.19374508 57.0297451,8.164 58.3,8.164 C58.9434289,8.164 59.5251482,8.42820985 59.9425844,8.85405601 L61.475664,7.89608159 C61.4444176,7.74494815 61.428,7.58839134 61.428,7.428 C61.428,6.15774508 62.4577451,5.128 63.728,5.128 C64.9982549,5.128 66.028,6.15774508 66.028,7.428 C66.028,8.69825492 64.9982549,9.728 63.728,9.728 C63.0832921,9.728 62.5005394,9.46273872 62.0829282,9.0354026 L60.5515834,9.99229301 L60.5515834,9.99229301 C60.5833187,10.1445477 60.6,10.3023258 60.6,10.464 C60.6,10.6840893 60.5690867,10.8969584 60.5113652,11.0985022 L62.1279091,12.0318143 C62.541889,11.6308075 63.106122,11.384 63.728,11.384 C64.3384305,11.384 64.8933188,11.6218047 65.3050772,12.0098265 L66.9190926,11.0012778 L66.9190926,11.0012778 C66.8778437,10.8289126 66.856,10.6490072 66.856,10.464 C66.856,9.38402626 67.6003451,8.47790363 68.604,8.23066747 L68.604,6.53333253 C67.6003451,6.28609637 66.856,5.37997374 66.856,4.3 C66.856,3.02974508 67.8857451,2 69.156,2 C70.4262549,2 71.456,3.02974508 71.456,4.3 C71.456,5.34670529 70.7568075,6.23010541 69.8,6.50862274 L69.8,6.50862274 L69.8,8.25537726 C70.7568075,8.53389459 71.456,9.41729471 71.456,10.464 C71.456,11.5107053 70.7568075,12.3941054 69.8,12.6726227 L69.8,12.6726227 L69.8,16.4747457 L72.8511253,18.2363137 C73.1448585,17.9372943 73.519691,17.7182046 73.94,17.6146675 L73.94,15.9173325 C72.9363451,15.6700964 72.192,14.7639737 72.192,13.684 C72.192,12.4137451 73.2217451,11.384 74.492,11.384 C75.1017593,11.384 75.6560984,11.621282 76.0677183,12.008547 L77.6649021,11.0105158 C77.6354509,10.8635864 77.62,10.7115976 77.62,10.556 C77.62,10.3602523 77.6444535,10.170216 77.6904724,9.98877929 L76.0408261,9.03635555 C75.632107,9.40886545 75.0885785,9.636 74.492,9.636 C73.2217451,9.636 72.192,8.60625492 72.192,7.336 C72.192,6.06574508 73.2217451,5.036 74.492,5.036 C75.7622549,5.036 76.792,6.06574508 76.792,7.336 C76.792,7.54393146 76.7644077,7.74541839 76.7126848,7.93699905 L78.3452997,8.87958976 L78.3452997,8.87958976 C78.7568155,8.49289101 79.3107433,8.256 79.92,8.256 C81.1902549,8.256 82.22,9.28574508 82.22,10.556 C82.22,11.6027053 81.5208075,12.4861054 80.564,12.7646227 L80.564,12.7646227 L80.564,14.5113773 C81.5208075,14.7898946 82.22,15.6732947 82.22,16.72 C82.22,17.9902549 81.1902549,19.02 79.92,19.02 C78.6497451,19.02 77.62,17.9902549 77.62,16.72 C77.62,15.6400263 78.3643451,14.7339036 79.368,14.4866675 L79.368,12.7893325 C78.9412522,12.6842093 78.5613849,12.4599661 78.2656832,12.1538879 L78.2656832,12.1538879 L76.7219658,13.1185096 C76.7677017,13.2994241 76.792,13.4888745 76.792,13.684 C76.792,14.7307053 76.0928075,15.6141054 75.136,15.8926227 L75.136,15.8926227 L75.136,17.6393773 C76.0928075,17.9178946 76.792,18.8012947 76.792,19.848 C76.792,20.0636421 76.7623233,20.2723528 76.7068313,20.4702709 L78.3291471,21.4069153 C78.7422635,21.0111593 79.3027353,20.768 79.92,20.768 C81.1902549,20.768 82.22,21.7977451 82.22,23.068 C82.22,24.3382549 81.1902549,25.368 79.92,25.368 C78.6497451,25.368 77.62,24.3382549 77.62,23.068 C77.62,22.8799909 77.6425583,22.6972506 77.6851158,22.522338 L76.0241689,21.5633898 L76.0241689,21.5633898 C75.6173951,21.9269678 75.08051,22.148 74.492,22.148 C73.2217451,22.148 72.192,21.1182549 72.192,19.848 C72.192,19.684646 72.2090297,19.5252696 72.2414106,19.3715491 L69.11,17.5636283 L65.9599266,19.382324 C66.0043959,19.560877 66.028,19.747682 66.028,19.94 C66.028,20.1290466 66.0051921,20.312766 65.9621779,20.4885569 L65.9621779,20.4885569 L67.5605201,21.4113602 C67.9740738,21.0129807 68.5364278,20.768 69.156,20.768 C70.4262549,20.768 71.456,21.7977451 71.456,23.068 C71.456,24.1361289 70.7278929,25.0341992 69.7409293,25.2929605 L69.7409293,28.3053085 L72.3617025,26.7909929 C72.311019,26.6012088 72.284,26.4017597 72.284,26.196 C72.284,24.9257451 73.3137451,23.896 74.584,23.896 C75.8542549,23.896 76.884,24.9257451 76.884,26.196 C76.884,27.4662549 75.8542549,28.496 74.584,28.496 C73.9570734,28.496 73.3887315,28.2451689 72.9738564,27.8383887 L69.7409293,29.7060303 L69.7409293,35.2058969 L81.6318943,35.2058969 C81.8550733,35.2058969 82.036,35.3873582 82.036,35.6103893 C82.036,35.8345048 81.8550733,36.0152431 81.6318943,36.0152431 L69.7824593,36.0152431 C69.9915543,37.5482654 71.4469128,37.7539455 73.7162608,37.939383 C75.9278279,38.1208443 78.4344392,38.3265245 79.1083099,40.8170983 C79.1523679,40.9797628 79.0566681,41.146042 78.8956036,41.1901422 C78.8685188,41.1970102 78.8421562,41.200625 78.8157936,41.200625 C78.6821751,41.200625 78.5601128,41.1117018 78.5236385,40.976148 C78.015527,39.0993615 76.1885646,38.7711407 74.2861258,38.5976319 C74.3374064,38.6547452 74.3861591,38.7140274 74.4313005,38.7754784 C74.7945984,39.2667251 75.36338,39.4955398 75.9653856,39.7377292 C76.7197885,40.0406466 77.4994706,40.3547697 77.8526569,41.2161685 C77.916216,41.371242 77.8421841,41.548727 77.6868977,41.6123469 C77.6493401,41.6275289 77.6103379,41.6347584 77.5724191,41.6347584 C77.4528847,41.6347584 77.3398507,41.5642705 77.2918202,41.4460676 C77.0357783,40.822159 76.4352172,40.5806926 75.7396786,40.3012712 C75.476414,40.1953586 75.2098992,40.0865541 74.9549406,39.9542537 C75.030417,40.2369284 75.0900037,40.5250252 75.145979,40.8058925 C75.2474569,41.3126827 75.3435177,41.7923622 75.5269724,42.1946857 C75.5966707,42.3472288 75.5298614,42.5272442 75.3774641,42.5970091 C75.3366563,42.6154444 75.2940428,42.6244814 75.2517904,42.6244814 C75.1365896,42.6244814 75.0268057,42.5583311 74.9758862,42.4473578 C74.7624577,41.9806915 74.6552018,41.4435373 74.5515572,40.9251798 C74.3030989,39.6838692 74.088587,38.6117295 72.6043381,38.4476192 C72.6003656,38.4472577 72.5974766,38.4465347 72.5942264,38.4458118 C71.5415291,38.3272474 70.5606969,38.117591 69.9168001,37.553326 C70.2187058,38.2585669 70.6672306,38.7740325 71.1078106,39.277208 C71.2898207,39.48578 71.4729142,39.6961594 71.6451738,39.9184675 C71.6480628,39.9213593 71.6516741,39.9242511 71.6545632,39.9275044 C71.8354899,40.1621027 72.0463905,40.3609148 72.2699306,40.5731016 C72.5685861,40.8546919 72.8816868,41.1532716 73.1370065,41.5534262 C73.1427846,41.5606557 73.1485627,41.5671623 73.1536185,41.5754762 C73.4901927,42.1119075 74.4825811,43.2071817 75.1120327,43.5621517 C75.2579297,43.6438454 75.3095714,43.8289214 75.2275946,43.9753194 C75.1719805,44.0740026 75.0690581,44.12967 74.9632467,44.12967 C74.9126883,44.12967 74.8617688,44.1170183 74.8148218,44.090992 C74.4605521,43.8910954 74.0365842,43.5198589 73.648007,43.1207887 C73.6844813,43.4945556 73.6844813,43.9185676 73.631395,44.4170439 C73.614783,44.5732018 73.4836924,44.6881513 73.3305728,44.6881513 C73.3197388,44.6881513 73.309266,44.6874284 73.2984321,44.6867054 C73.1323118,44.6693545 73.0113329,44.5193417 73.0290283,44.3530625 C73.1767309,42.9613776 72.9040769,42.2243268 72.4873316,41.6806659 C72.6715085,42.6259273 72.5523352,43.8769978 71.8521019,45.6977555 C71.805516,45.8184887 71.6906763,45.8925914 71.5689751,45.8925914 C71.5325008,45.8925914 71.4956655,45.8857233 71.4602746,45.8723487 C71.3039048,45.8116206 71.2259005,45.6363045 71.2862094,45.4797851 C72.6429791,41.9539423 71.720289,40.8991535 70.651702,39.6770011 C70.2284563,39.1926224 69.7766812,38.6731806 69.4440795,37.9791455 C69.5397792,39.1673191 69.6936211,40.1422215 69.8268785,40.9873538 C70.2288174,43.5310647 70.4707753,45.0673403 68.4766091,47.8731217 C68.4177448,47.9562613 68.3242118,48 68.2295954,48 C68.1685643,48 68.1075331,47.9826491 68.0540857,47.9443326 C67.9175781,47.8467339 67.8857986,47.6576817 67.9829429,47.521405 C69.4480519,45.4599039 69.6181447,44.1763004 69.4321621,42.5044711 C69.3086553,42.7177423 69.1642028,42.8963118 69.0219172,43.0719894 C68.6430906,43.5408246 68.2852096,43.9836334 68.3606861,45.2274744 C68.3707977,45.3948381 68.2436796,45.5390673 68.0764758,45.5488271 C68.0703366,45.5495501 68.0641974,45.5495501 68.0580582,45.5495501 C67.8987993,45.5495501 67.7651808,45.4252021 67.7554303,45.264345 C67.6658697,43.7851827 68.1360625,43.2042898 68.550641,42.6909931 C68.9641362,42.1791422 69.3209337,41.7370563 69.1064219,40.2954876 C69.0121666,39.6672412 68.9200782,38.9681455 68.8518244,38.1739814 C68.5260841,38.8376524 67.9872765,39.5613286 67.093838,40.3157303 L67.0934769,40.3157303 C66.0274178,41.2154455 66.3166838,42.1968545 66.6510912,43.3318911 C66.8702978,44.0761714 67.0970882,44.8450322 66.9562471,45.6449799 C66.9306067,45.7924624 66.8024052,45.8954832 66.6583139,45.8954832 C66.6406184,45.8954832 66.622923,45.8940373 66.6052276,45.8911455 C66.4401907,45.8622273 66.3304068,45.704985 66.3592973,45.5397902 C66.4752204,44.8804569 66.2693756,44.1806382 66.0700312,43.5043154 C65.9797485,43.1977833 65.8869378,42.8807683 65.8226564,42.5590541 C65.7955716,42.6776184 65.7702924,42.7961827 65.7446521,42.9169159 C65.5207508,43.9651981 65.2892657,45.0503509 63.8837433,45.9724777 C63.8328238,46.0057336 63.7746817,46.022 63.7179841,46.022 C63.6193953,46.022 63.5222511,45.9739236 63.4641089,45.8850004 C63.3723816,45.744386 63.4117449,45.5567796 63.5515027,45.4649645 C64.7482913,44.6798374 64.9349961,43.804341 65.1516748,42.7896762 C65.24593,42.3486747 65.3470467,41.8798395 65.5463911,41.4066667 C65.4582751,41.4598037 65.3712425,41.5111334 65.289988,41.5592098 C64.4016054,42.0851583 63.9119116,42.3739781 63.7154562,43.4916637 C63.6898159,43.6391462 63.5619755,43.74289 63.417523,43.74289 C63.3998276,43.74289 63.3828544,43.7414441 63.3647979,43.7378293 C63.2001221,43.7089112 63.089616,43.5516689 63.1185064,43.386474 C63.3637145,41.9940662 64.0422799,41.5924656 64.981582,41.0368761 C65.4770539,40.7437186 66.038974,40.411883 66.7020107,39.8526787 C66.7023719,39.8526787 66.702733,39.8519558 66.702733,39.8519558 C67.7496522,38.9681455 68.2588471,38.1490395 68.5073053,37.4275322 C68.4264119,37.5265768 68.3415461,37.6223681 68.2469297,37.7112913 C67.3459076,38.5564236 65.8779095,38.9200691 63.8826599,38.797167 C62.9964441,38.9609159 62.8967719,39.4438487 62.7613478,40.5087588 C62.638202,41.4771546 62.4847213,42.6823176 61.4266071,43.935557 C61.3666593,44.0071294 61.2814323,44.0436385 61.195122,44.0436385 C61.1257848,44.0436385 61.0564476,44.0197811 60.9997501,43.9717047 C60.8719096,43.8636232 60.8556587,43.672402 60.9636369,43.5444393 C61.9061892,42.4274766 62.0466692,41.3213582 62.1600644,40.4324872 C62.238791,39.8154466 62.3160731,39.2200947 62.6663703,38.789576 C62.3366575,38.8109031 62.0369187,38.851027 61.7646258,38.9066944 C60.9903607,39.2287701 60.9567755,39.6361542 60.8975499,40.3710362 C60.8574644,40.8630058 60.8087117,41.4749857 60.478999,42.1523929 C60.4269961,42.2601129 60.3190179,42.3230099 60.2067061,42.3230099 C60.162287,42.3230099 60.1171456,42.31325 60.074171,42.2926458 C59.9235793,42.2192661 59.8611036,42.0378048 59.9344132,41.8867076 C60.2135676,41.3119598 60.2558199,40.7867343 60.2933776,40.3222368 C60.319379,39.9983538 60.3461027,39.6813388 60.4483028,39.3881813 C59.2825715,40.0623352 59.0987557,41.0563958 59.0879218,41.1229075 C59.0633649,41.2711129 58.9344411,41.3763026 58.7892664,41.3763026 C58.7726543,41.3763026 58.7556812,41.3748567 58.738708,41.3719649 C58.5740322,41.3444927 58.4624427,41.1886963 58.4898886,41.02314 C58.6386747,40.1317387 59.4620537,38.8109031 61.5439747,38.342068 C61.5472249,38.3406221 61.5493917,38.3391762 61.5526418,38.3377303 C61.5887549,38.3229097 61.6252292,38.3164031 61.6617034,38.3156802 C62.2864603,38.1880789 63.0202788,38.1342189 63.8797709,38.1895249 C65.6973439,38.3088121 67.063503,37.9903512 67.8323512,37.2688439 C68.2606527,36.8676049 68.4401349,36.409614 68.506583,36.0152431 L56.6372859,36.0152431 C56.4141069,36.0152431 56.2331802,35.8345048 56.2331802,35.6103893 C56.2331802,35.3873582 56.4141069,35.2058969 56.6372859,35.2058969 L68.528612,35.2058969 L68.528612,29.7060303 L65.2870989,27.8324971 C65.0330866,28.0806175 64.7207154,28.2694662 64.372587,28.3755219 C64.1413392,28.4536462 63.8936157,28.496 63.636,28.496 C62.3657451,28.496 61.336,27.4662549 61.336,26.196 C61.336,24.9257451 62.3657451,23.896 63.636,23.896 C64.5317219,23.896 65.307853,24.4080287 65.6876653,25.155358 C65.8626613,25.4746474 65.9638587,25.839774 65.9638587,26.2289868 C65.9638587,26.4198465 65.9374961,26.6038381 65.8927159,26.7806001 L68.528612,28.3045855 L68.5289707,25.2814916 Z M75.6741638,26.8822357 C75.799485,26.6835664 75.872,26.4482516 75.872,26.196 C75.872,25.4846572 75.2953428,24.908 74.584,24.908 C74.0900603,24.908 73.6610605,25.1860403 73.4449724,25.5941489 L73.4808033,25.6148381 C73.3760753,25.7955764 73.3154053,26.0052328 73.3154053,26.2289868 C73.3154053,26.4534638 73.3767976,26.6638432 73.4818867,26.8453045 C73.6953152,27.2132876 74.0914761,27.4612606 74.5465013,27.4612606 C75.0008043,27.4612606 75.3973263,27.2132876 75.6103937,26.8453045 L75.6741638,26.8822357 Z M64.0336836,27.4214335 C64.550403,27.2538636 64.924,26.7685609 64.924,26.196 C64.924,25.4846572 64.3473428,24.908 63.636,24.908 C62.9246572,24.908 62.348,25.4846572 62.348,26.196 C62.348,26.4577245 62.4260636,26.7012162 62.5601772,26.9044616 L62.6598699,26.8467504 C62.8729373,27.2140106 63.268737,27.4612606 63.7226788,27.4612606 C63.8301524,27.4612606 63.9343721,27.4474234 64.0336836,27.4214335 Z M70.2498755,23.7483161 C70.3729157,23.550899 70.444,23.3177508 70.444,23.068 C70.444,22.3566572 69.8673428,21.78 69.156,21.78 C68.4446572,21.78 67.868,22.3566572 67.868,23.068 C67.868,23.3100875 67.9347889,23.5365755 68.0509457,23.7300431 L68.0696144,23.7192548 C68.2826817,24.0868765 68.6795648,24.3355724 69.1345901,24.3355724 C69.5903376,24.3355724 69.9868596,24.0868765 70.1995658,23.7192548 L70.2498755,23.7483161 Z M58.3,11.752 C59.0113428,11.752 59.588,11.1753428 59.588,10.464 C59.588,9.75265724 59.0113428,9.176 58.3,9.176 C57.5886572,9.176 57.012,9.75265724 57.012,10.464 C57.012,11.1753428 57.5886572,11.752 58.3,11.752 Z M58.3,18.1 C59.0113428,18.1 59.588,17.5233428 59.588,16.812 C59.588,16.1006572 59.0113428,15.524 58.3,15.524 C57.5886572,15.524 57.012,16.1006572 57.012,16.812 C57.012,17.5233428 57.5886572,18.1 58.3,18.1 Z M63.728,8.716 C64.4393428,8.716 65.016,8.13934276 65.016,7.428 C65.016,6.71665724 64.4393428,6.14 63.728,6.14 C63.0166572,6.14 62.44,6.71665724 62.44,7.428 C62.44,8.13934276 63.0166572,8.716 63.728,8.716 Z M69.156,5.588 C69.8673428,5.588 70.444,5.01134276 70.444,4.3 C70.444,3.58865724 69.8673428,3.012 69.156,3.012 C68.4446572,3.012 67.868,3.58865724 67.868,4.3 C67.868,5.01134276 68.4446572,5.588 69.156,5.588 Z M69.156,11.752 C69.8673428,11.752 70.444,11.1753428 70.444,10.464 C70.444,9.75265724 69.8673428,9.176 69.156,9.176 C68.4446572,9.176 67.868,9.75265724 67.868,10.464 C67.868,11.1753428 68.4446572,11.752 69.156,11.752 Z M63.728,14.972 C64.4393428,14.972 65.016,14.3953428 65.016,13.684 C65.016,12.9726572 64.4393428,12.396 63.728,12.396 C63.0166572,12.396 62.44,12.9726572 62.44,13.684 C62.44,14.3953428 63.0166572,14.972 63.728,14.972 Z M74.492,8.624 C75.2033428,8.624 75.78,8.04734276 75.78,7.336 C75.78,6.62465724 75.2033428,6.048 74.492,6.048 C73.7806572,6.048 73.204,6.62465724 73.204,7.336 C73.204,8.04734276 73.7806572,8.624 74.492,8.624 Z M79.92,11.844 C80.6313428,11.844 81.208,11.2673428 81.208,10.556 C81.208,9.84465724 80.6313428,9.268 79.92,9.268 C79.2086572,9.268 78.632,9.84465724 78.632,10.556 C78.632,11.2673428 79.2086572,11.844 79.92,11.844 Z M79.92,18.008 C80.6313428,18.008 81.208,17.4313428 81.208,16.72 C81.208,16.0086572 80.6313428,15.432 79.92,15.432 C79.2086572,15.432 78.632,16.0086572 78.632,16.72 C78.632,17.4313428 79.2086572,18.008 79.92,18.008 Z M74.492,14.972 C75.2033428,14.972 75.78,14.3953428 75.78,13.684 C75.78,12.9726572 75.2033428,12.396 74.492,12.396 C73.7806572,12.396 73.204,12.9726572 73.204,13.684 C73.204,14.3953428 73.7806572,14.972 74.492,14.972 Z M74.492,21.136 C75.2033428,21.136 75.78,20.5593428 75.78,19.848 C75.78,19.1366572 75.2033428,18.56 74.492,18.56 C73.7806572,18.56 73.204,19.1366572 73.204,19.848 C73.204,20.5593428 73.7806572,21.136 74.492,21.136 Z M79.92,24.356 C80.6313428,24.356 81.208,23.7793428 81.208,23.068 C81.208,22.3566572 80.6313428,21.78 79.92,21.78 C79.2086572,21.78 78.632,22.3566572 78.632,23.068 C78.632,23.7793428 79.2086572,24.356 79.92,24.356 Z M63.728,21.228 C64.4393428,21.228 65.016,20.6513428 65.016,19.94 C65.016,19.2286572 64.4393428,18.652 63.728,18.652 C63.0166572,18.652 62.44,19.2286572 62.44,19.94 C62.44,20.6513428 63.0166572,21.228 63.728,21.228 Z M58.3,24.356 C59.0113428,24.356 59.588,23.7793428 59.588,23.068 C59.588,22.3566572 59.0113428,21.78 58.3,21.78 C57.5886572,21.78 57.012,22.3566572 57.012,23.068 C57.012,23.7793428 57.5886572,24.356 58.3,24.356 Z" id="Oval-1-Copy-2" sketch:type="MSShapeGroup"></path>
        </g>
    </g>
</svg>