<?xml version="1.0" encoding="UTF-8" standalone="no"?>
<svg width="31px" height="42px" viewBox="0 0 31 42" version="1.1" xmlns="http://www.w3.org/2000/svg" xmlns:xlink="http://www.w3.org/1999/xlink" xmlns:sketch="http://www.bohemiancoding.com/sketch/ns">
    <!-- Generator: Sketch 3.4.2 (15855) - http://www.bohemiancoding.com/sketch -->
    <title>Shape</title>
    <desc>Created with Sketch.</desc>
    <defs></defs>
    <g id="Page-1" stroke="none" stroke-width="1" fill="none" fill-rule="evenodd" sketch:type="MSPage">
        <g id="Artboard-1" sketch:type="MSArtboardGroup" transform="translate(-46.000000, -108.000000)" fill="#FFFFFF">
            <path d="M76.5454545,132.818182 C76.5454545,144.272727 68.9090909,150 61.2727273,150 C53.6363636,150 46,144.272727 46,132.818182 C46,119.454545 53.6363636,108 61.2727273,108 C68.9090909,108 76.5454545,119.454545 76.5454545,132.818182 L76.5454545,132.818182 Z M53.0063636,129.954545 L53.0063636,139.5 L61.2727273,144.272727 L69.5390909,139.5 L69.5390909,129.954545 L61.2727273,125.181818 L53.0063636,129.954545 L53.0063636,129.954545 Z M60.6045455,124.024145 L61.2727273,123.638509 L61.2727273,119.454545 C57.1933818,119.454545 53.3584,121.042909 50.4733818,123.927164 L54.2426909,127.697236 L60.6045455,124.024145 L60.6045455,124.024145 Z M61.2727273,129.954545 C60.2181455,129.954545 59.3636364,132.0912 59.3636364,134.727273 C59.3636364,137.363345 60.2181455,139.5 61.2727273,139.5 C62.3273091,139.5 63.1818182,137.363345 63.1818182,134.727273 C63.1818182,132.0912 62.3273091,129.954545 61.2727273,129.954545 L61.2727273,129.954545 Z M70.4524,143.906945 L69.1022909,142.556836 C67.0106909,144.648436 64.2302909,145.8 61.2727273,145.8 L61.2727273,147.709091 C64.7404,147.709091 68.0003636,146.358218 70.4524,143.906945 L70.4524,143.906945 Z" id="Shape" sketch:type="MSShapeGroup"></path>
        </g>
    </g>
</svg>