<?xml version="1.0" encoding="UTF-8" standalone="no"?>
<svg width="27px" height="46px" viewBox="0 0 27 46" version="1.1" xmlns="http://www.w3.org/2000/svg" xmlns:xlink="http://www.w3.org/1999/xlink" xmlns:sketch="http://www.bohemiancoding.com/sketch/ns">
    <!-- Generator: Sketch 3.4 (15575) - http://www.bohemiancoding.com/sketch -->
    <title>Oval 1 Copy 2</title>
    <desc>Created with Sketch.</desc>
    <defs></defs>
    <g id="Page-1" stroke="none" stroke-width="1" fill="none" fill-rule="evenodd" sketch:type="MSPage">
        <g id="Artboard-6" sketch:type="MSArtboardGroup" transform="translate(-262.000000, -176.000000)" fill="#4CAF50">
            <path d="M274.528971,199.281492 C273.563471,199.008529 272.856,198.120884 272.856,197.068 C272.856,196.882227 272.878025,196.701598 272.919606,196.528582 L271.3167,195.603144 C270.90379,195.997684 270.344193,196.24 269.728,196.24 C269.088967,196.24 268.510804,195.979388 268.093995,195.55865 L266.520685,196.467001 C266.572408,196.658582 266.6,196.860069 266.6,197.068 C266.6,198.338255 265.570255,199.368 264.3,199.368 C263.029745,199.368 262,198.338255 262,197.068 C262,195.797745 263.029745,194.768 264.3,194.768 C264.896579,194.768 265.440107,194.995135 265.848826,195.367644 L267.479483,194.426184 C267.445757,194.269462 267.428,194.106804 267.428,193.94 C267.428,192.669745 268.457745,191.64 269.728,191.64 C270.34081,191.64 270.897644,191.879662 271.309886,192.270371 L274.512,190.421629 L274.512,186.672623 C274.149591,186.567129 273.824141,186.374855 273.559646,186.119797 L271.95843,187.120348 C272.003866,187.300708 272.028,187.489535 272.028,187.684 C272.028,188.954255 270.998255,189.984 269.728,189.984 C268.457745,189.984 267.428,188.954255 267.428,187.684 C267.428,187.500464 267.449498,187.321949 267.490112,187.150836 L265.822461,186.188018 C265.57217,186.409215 265.273347,186.576753 264.944,186.672623 L264.944,188.603377 C265.900807,188.881895 266.6,189.765295 266.6,190.812 C266.6,192.082255 265.570255,193.112 264.3,193.112 C263.029745,193.112 262,192.082255 262,190.812 C262,189.765295 262.699193,188.881895 263.656,188.603377 L263.656,186.672623 C262.699193,186.394105 262,185.510705 262,184.464 C262,183.193745 263.029745,182.164 264.3,182.164 C264.943429,182.164 265.525148,182.42821 265.942584,182.854056 L267.475664,181.896082 C267.444418,181.744948 267.428,181.588391 267.428,181.428 C267.428,180.157745 268.457745,179.128 269.728,179.128 C270.998255,179.128 272.028,180.157745 272.028,181.428 C272.028,182.698255 270.998255,183.728 269.728,183.728 C269.083292,183.728 268.500539,183.462739 268.082928,183.035403 L266.551583,183.992293 C266.583319,184.144548 266.6,184.302326 266.6,184.464 C266.6,184.684089 266.569087,184.896958 266.511365,185.098502 L268.127909,186.031814 C268.541889,185.630807 269.106122,185.384 269.728,185.384 C270.338431,185.384 270.893319,185.621805 271.305077,186.009827 L272.919093,185.001278 C272.877844,184.828913 272.856,184.649007 272.856,184.464 C272.856,183.384026 273.600345,182.477904 274.604,182.230667 L274.604,180.533333 C273.600345,180.286096 272.856,179.379974 272.856,178.3 C272.856,177.029745 273.885745,176 275.156,176 C276.426255,176 277.456,177.029745 277.456,178.3 C277.456,179.346705 276.756807,180.230105 275.8,180.508623 L275.8,182.255377 C276.756807,182.533895 277.456,183.417295 277.456,184.464 C277.456,185.510705 276.756807,186.394105 275.8,186.672623 L275.8,190.474746 L278.851125,192.236314 C279.144859,191.937294 279.519691,191.718205 279.94,191.614667 L279.94,189.917333 C278.936345,189.670096 278.192,188.763974 278.192,187.684 C278.192,186.413745 279.221745,185.384 280.492,185.384 C281.101759,185.384 281.656098,185.621282 282.067718,186.008547 L283.664902,185.010516 C283.635451,184.863586 283.62,184.711598 283.62,184.556 C283.62,184.360252 283.644454,184.170216 283.690472,183.988779 L282.040826,183.036356 C281.632107,183.408865 281.088579,183.636 280.492,183.636 C279.221745,183.636 278.192,182.606255 278.192,181.336 C278.192,180.065745 279.221745,179.036 280.492,179.036 C281.762255,179.036 282.792,180.065745 282.792,181.336 C282.792,181.543931 282.764408,181.745418 282.712685,181.936999 L284.3453,182.87959 C284.756815,182.492891 285.310743,182.256 285.92,182.256 C287.190255,182.256 288.22,183.285745 288.22,184.556 C288.22,185.602705 287.520807,186.486105 286.564,186.764623 L286.564,188.511377 C287.520807,188.789895 288.22,189.673295 288.22,190.72 C288.22,191.990255 287.190255,193.02 285.92,193.02 C284.649745,193.02 283.62,191.990255 283.62,190.72 C283.62,189.640026 284.364345,188.733904 285.368,188.486667 L285.368,186.789333 C284.941252,186.684209 284.561385,186.459966 284.265683,186.153888 L282.721966,187.11851 C282.767702,187.299424 282.792,187.488874 282.792,187.684 C282.792,188.730705 282.092807,189.614105 281.136,189.892623 L281.136,191.639377 C282.092807,191.917895 282.792,192.801295 282.792,193.848 C282.792,194.063642 282.762323,194.272353 282.706831,194.470271 L284.329147,195.406915 C284.742264,195.011159 285.302735,194.768 285.92,194.768 C287.190255,194.768 288.22,195.797745 288.22,197.068 C288.22,198.338255 287.190255,199.368 285.92,199.368 C284.649745,199.368 283.62,198.338255 283.62,197.068 C283.62,196.879991 283.642558,196.697251 283.685116,196.522338 L282.024169,195.56339 C281.617395,195.926968 281.08051,196.148 280.492,196.148 C279.221745,196.148 278.192,195.118255 278.192,193.848 C278.192,193.684646 278.20903,193.52527 278.241411,193.371549 L275.11,191.563628 L271.959927,193.382324 C272.004396,193.560877 272.028,193.747682 272.028,193.94 C272.028,194.129047 272.005192,194.312766 271.962178,194.488557 L273.56052,195.41136 C273.974074,195.012981 274.536428,194.768 275.156,194.768 C276.426255,194.768 277.456,195.797745 277.456,197.068 C277.456,198.136129 276.727893,199.034199 275.740929,199.292961 L275.740929,202.305308 L278.361702,200.790993 C278.311019,200.601209 278.284,200.40176 278.284,200.196 C278.284,198.925745 279.313745,197.896 280.584,197.896 C281.854255,197.896 282.884,198.925745 282.884,200.196 C282.884,201.466255 281.854255,202.496 280.584,202.496 C279.957073,202.496 279.388731,202.245169 278.973856,201.838389 L275.740929,203.70603 L275.740929,209.205897 L287.631894,209.205897 C287.855073,209.205897 288.036,209.387358 288.036,209.610389 C288.036,209.834505 287.855073,210.015243 287.631894,210.015243 L275.782459,210.015243 C275.991554,211.548265 277.446913,211.753946 279.716261,211.939383 C281.927828,212.120844 284.434439,212.326524 285.10831,214.817098 C285.152368,214.979763 285.056668,215.146042 284.895604,215.190142 C284.868519,215.19701 284.842156,215.200625 284.815794,215.200625 C284.682175,215.200625 284.560113,215.111702 284.523639,214.976148 C284.015527,213.099361 282.188565,212.771141 280.286126,212.597632 C280.337406,212.654745 280.386159,212.714027 280.4313,212.775478 C280.794598,213.266725 281.36338,213.49554 281.965386,213.737729 C282.719789,214.040647 283.499471,214.35477 283.852657,215.216168 C283.916216,215.371242 283.842184,215.548727 283.686898,215.612347 C283.64934,215.627529 283.610338,215.634758 283.572419,215.634758 C283.452885,215.634758 283.339851,215.56427 283.29182,215.446068 C283.035778,214.822159 282.435217,214.580693 281.739679,214.301271 C281.476414,214.195359 281.209899,214.086554 280.954941,213.954254 C281.030417,214.236928 281.090004,214.525025 281.145979,214.805893 C281.247457,215.312683 281.343518,215.792362 281.526972,216.194686 C281.596671,216.347229 281.529861,216.527244 281.377464,216.597009 C281.336656,216.615444 281.294043,216.624481 281.25179,216.624481 C281.13659,216.624481 281.026806,216.558331 280.975886,216.447358 C280.762458,215.980692 280.655202,215.443537 280.551557,214.92518 C280.303099,213.683869 280.088587,212.61173 278.604338,212.447619 C278.600366,212.447258 278.597477,212.446535 278.594226,212.445812 C277.541529,212.327247 276.560697,212.117591 275.9168,211.553326 C276.218706,212.258567 276.667231,212.774033 277.107811,213.277208 C277.289821,213.48578 277.472914,213.696159 277.645174,213.918467 C277.648063,213.921359 277.651674,213.924251 277.654563,213.927504 C277.83549,214.162103 278.04639,214.360915 278.269931,214.573102 C278.568586,214.854692 278.881687,215.153272 279.137006,215.553426 C279.142785,215.560656 279.148563,215.567162 279.153619,215.575476 C279.490193,216.111908 280.482581,217.207182 281.112033,217.562152 C281.25793,217.643845 281.309571,217.828921 281.227595,217.975319 C281.17198,218.074003 281.069058,218.12967 280.963247,218.12967 C280.912688,218.12967 280.861769,218.117018 280.814822,218.090992 C280.460552,217.891095 280.036584,217.519859 279.648007,217.120789 C279.684481,217.494556 279.684481,217.918568 279.631395,218.417044 C279.614783,218.573202 279.483692,218.688151 279.330573,218.688151 C279.319739,218.688151 279.309266,218.687428 279.298432,218.686705 C279.132312,218.669355 279.011333,218.519342 279.029028,218.353062 C279.176731,216.961378 278.904077,216.224327 278.487332,215.680666 C278.671508,216.625927 278.552335,217.876998 277.852102,219.697755 C277.805516,219.818489 277.690676,219.892591 277.568975,219.892591 C277.532501,219.892591 277.495665,219.885723 277.460275,219.872349 C277.303905,219.811621 277.225901,219.636304 277.286209,219.479785 C278.642979,215.953942 277.720289,214.899154 276.651702,213.677001 C276.228456,213.192622 275.776681,212.673181 275.444079,211.979145 C275.539779,213.167319 275.693621,214.142221 275.826878,214.987354 C276.228817,217.531065 276.470775,219.06734 274.476609,221.873122 C274.417745,221.956261 274.324212,222 274.229595,222 C274.168564,222 274.107533,221.982649 274.054086,221.944333 C273.917578,221.846734 273.885799,221.657682 273.982943,221.521405 C275.448052,219.459904 275.618145,218.1763 275.432162,216.504471 C275.308655,216.717742 275.164203,216.896312 275.021917,217.071989 C274.643091,217.540825 274.28521,217.983633 274.360686,219.227474 C274.370798,219.394838 274.24368,219.539067 274.076476,219.548827 C274.070337,219.54955 274.064197,219.54955 274.058058,219.54955 C273.898799,219.54955 273.765181,219.425202 273.75543,219.264345 C273.66587,217.785183 274.136062,217.20429 274.550641,216.690993 C274.964136,216.179142 275.320934,215.737056 275.106422,214.295488 C275.012167,213.667241 274.920078,212.968145 274.851824,212.173981 C274.526084,212.837652 273.987276,213.561329 273.093838,214.31573 L273.093477,214.31573 C272.027418,215.215446 272.316684,216.196855 272.651091,217.331891 C272.870298,218.076171 273.097088,218.845032 272.956247,219.64498 C272.930607,219.792462 272.802405,219.895483 272.658314,219.895483 C272.640618,219.895483 272.622923,219.894037 272.605228,219.891145 C272.440191,219.862227 272.330407,219.704985 272.359297,219.53979 C272.47522,218.880457 272.269376,218.180638 272.070031,217.504315 C271.979748,217.197783 271.886938,216.880768 271.822656,216.559054 C271.795572,216.677618 271.770292,216.796183 271.744652,216.916916 C271.520751,217.965198 271.289266,219.050351 269.883743,219.972478 C269.832824,220.005734 269.774682,220.022 269.717984,220.022 C269.619395,220.022 269.522251,219.973924 269.464109,219.885 C269.372382,219.744386 269.411745,219.55678 269.551503,219.464965 C270.748291,218.679837 270.934996,217.804341 271.151675,216.789676 C271.24593,216.348675 271.347047,215.87984 271.546391,215.406667 C271.458275,215.459804 271.371242,215.511133 271.289988,215.55921 C270.401605,216.085158 269.911912,216.373978 269.715456,217.491664 C269.689816,217.639146 269.561975,217.74289 269.417523,217.74289 C269.399828,217.74289 269.382854,217.741444 269.364798,217.737829 C269.200122,217.708911 269.089616,217.551669 269.118506,217.386474 C269.363714,215.994066 270.04228,215.592466 270.981582,215.036876 C271.477054,214.743719 272.038974,214.411883 272.702011,213.852679 C272.702372,213.852679 272.702733,213.851956 272.702733,213.851956 C273.749652,212.968145 274.258847,212.149039 274.507305,211.427532 C274.426412,211.526577 274.341546,211.622368 274.24693,211.711291 C273.345908,212.556424 271.877909,212.920069 269.88266,212.797167 C268.996444,212.960916 268.896772,213.443849 268.761348,214.508759 C268.638202,215.477155 268.484721,216.682318 267.426607,217.935557 C267.366659,218.007129 267.281432,218.043639 267.195122,218.043639 C267.125785,218.043639 267.056448,218.019781 266.99975,217.971705 C266.87191,217.863623 266.855659,217.672402 266.963637,217.544439 C267.906189,216.427477 268.046669,215.321358 268.160064,214.432487 C268.238791,213.815447 268.316073,213.220095 268.66637,212.789576 C268.336658,212.810903 268.036919,212.851027 267.764626,212.906694 C266.990361,213.22877 266.956775,213.636154 266.89755,214.371036 C266.857464,214.863006 266.808712,215.474986 266.478999,216.152393 C266.426996,216.260113 266.319018,216.32301 266.206706,216.32301 C266.162287,216.32301 266.117146,216.31325 266.074171,216.292646 C265.923579,216.219266 265.861104,216.037805 265.934413,215.886708 C266.213568,215.31196 266.25582,214.786734 266.293378,214.322237 C266.319379,213.998354 266.346103,213.681339 266.448303,213.388181 C265.282571,214.062335 265.098756,215.056396 265.087922,215.122908 C265.063365,215.271113 264.934441,215.376303 264.789266,215.376303 C264.772654,215.376303 264.755681,215.374857 264.738708,215.371965 C264.574032,215.344493 264.462443,215.188696 264.489889,215.02314 C264.638675,214.131739 265.462054,212.810903 267.543975,212.342068 C267.547225,212.340622 267.549392,212.339176 267.552642,212.33773 C267.588755,212.32291 267.625229,212.316403 267.661703,212.31568 C268.28646,212.188079 269.020279,212.134219 269.879771,212.189525 C271.697344,212.308812 273.063503,211.990351 273.832351,211.268844 C274.260653,210.867605 274.440135,210.409614 274.506583,210.015243 L262.637286,210.015243 C262.414107,210.015243 262.23318,209.834505 262.23318,209.610389 C262.23318,209.387358 262.414107,209.205897 262.637286,209.205897 L274.528612,209.205897 L274.528612,203.70603 L271.287099,201.832497 C271.033087,202.080618 270.720715,202.269466 270.372587,202.375522 C270.141339,202.453646 269.893616,202.496 269.636,202.496 C268.365745,202.496 267.336,201.466255 267.336,200.196 C267.336,198.925745 268.365745,197.896 269.636,197.896 C270.531722,197.896 271.307853,198.408029 271.687665,199.155358 C271.862661,199.474647 271.963859,199.839774 271.963859,200.228987 C271.963859,200.419846 271.937496,200.603838 271.892716,200.7806 L274.528612,202.304586 L274.528971,199.281492 Z M281.674164,200.882236 C281.799485,200.683566 281.872,200.448252 281.872,200.196 C281.872,199.484657 281.295343,198.908 280.584,198.908 C280.09006,198.908 279.66106,199.18604 279.444972,199.594149 L279.480803,199.614838 C279.376075,199.795576 279.315405,200.005233 279.315405,200.228987 C279.315405,200.453464 279.376798,200.663843 279.481887,200.845304 C279.695315,201.213288 280.091476,201.461261 280.546501,201.461261 C281.000804,201.461261 281.397326,201.213288 281.610394,200.845304 L281.674164,200.882236 Z M270.033684,201.421434 C270.550403,201.253864 270.924,200.768561 270.924,200.196 C270.924,199.484657 270.347343,198.908 269.636,198.908 C268.924657,198.908 268.348,199.484657 268.348,200.196 C268.348,200.457724 268.426064,200.701216 268.560177,200.904462 L268.65987,200.84675 C268.872937,201.214011 269.268737,201.461261 269.722679,201.461261 C269.830152,201.461261 269.934372,201.447423 270.033684,201.421434 Z M276.249875,197.748316 C276.372916,197.550899 276.444,197.317751 276.444,197.068 C276.444,196.356657 275.867343,195.78 275.156,195.78 C274.444657,195.78 273.868,196.356657 273.868,197.068 C273.868,197.310087 273.934789,197.536576 274.050946,197.730043 L274.069614,197.719255 C274.282682,198.086876 274.679565,198.335572 275.13459,198.335572 C275.590338,198.335572 275.98686,198.086876 276.199566,197.719255 L276.249875,197.748316 Z M264.3,185.752 C265.011343,185.752 265.588,185.175343 265.588,184.464 C265.588,183.752657 265.011343,183.176 264.3,183.176 C263.588657,183.176 263.012,183.752657 263.012,184.464 C263.012,185.175343 263.588657,185.752 264.3,185.752 Z M264.3,192.1 C265.011343,192.1 265.588,191.523343 265.588,190.812 C265.588,190.100657 265.011343,189.524 264.3,189.524 C263.588657,189.524 263.012,190.100657 263.012,190.812 C263.012,191.523343 263.588657,192.1 264.3,192.1 Z M269.728,182.716 C270.439343,182.716 271.016,182.139343 271.016,181.428 C271.016,180.716657 270.439343,180.14 269.728,180.14 C269.016657,180.14 268.44,180.716657 268.44,181.428 C268.44,182.139343 269.016657,182.716 269.728,182.716 Z M275.156,179.588 C275.867343,179.588 276.444,179.011343 276.444,178.3 C276.444,177.588657 275.867343,177.012 275.156,177.012 C274.444657,177.012 273.868,177.588657 273.868,178.3 C273.868,179.011343 274.444657,179.588 275.156,179.588 Z M275.156,185.752 C275.867343,185.752 276.444,185.175343 276.444,184.464 C276.444,183.752657 275.867343,183.176 275.156,183.176 C274.444657,183.176 273.868,183.752657 273.868,184.464 C273.868,185.175343 274.444657,185.752 275.156,185.752 Z M269.728,188.972 C270.439343,188.972 271.016,188.395343 271.016,187.684 C271.016,186.972657 270.439343,186.396 269.728,186.396 C269.016657,186.396 268.44,186.972657 268.44,187.684 C268.44,188.395343 269.016657,188.972 269.728,188.972 Z M280.492,182.624 C281.203343,182.624 281.78,182.047343 281.78,181.336 C281.78,180.624657 281.203343,180.048 280.492,180.048 C279.780657,180.048 279.204,180.624657 279.204,181.336 C279.204,182.047343 279.780657,182.624 280.492,182.624 Z M285.92,185.844 C286.631343,185.844 287.208,185.267343 287.208,184.556 C287.208,183.844657 286.631343,183.268 285.92,183.268 C285.208657,183.268 284.632,183.844657 284.632,184.556 C284.632,185.267343 285.208657,185.844 285.92,185.844 Z M285.92,192.008 C286.631343,192.008 287.208,191.431343 287.208,190.72 C287.208,190.008657 286.631343,189.432 285.92,189.432 C285.208657,189.432 284.632,190.008657 284.632,190.72 C284.632,191.431343 285.208657,192.008 285.92,192.008 Z M280.492,188.972 C281.203343,188.972 281.78,188.395343 281.78,187.684 C281.78,186.972657 281.203343,186.396 280.492,186.396 C279.780657,186.396 279.204,186.972657 279.204,187.684 C279.204,188.395343 279.780657,188.972 280.492,188.972 Z M280.492,195.136 C281.203343,195.136 281.78,194.559343 281.78,193.848 C281.78,193.136657 281.203343,192.56 280.492,192.56 C279.780657,192.56 279.204,193.136657 279.204,193.848 C279.204,194.559343 279.780657,195.136 280.492,195.136 Z M285.92,198.356 C286.631343,198.356 287.208,197.779343 287.208,197.068 C287.208,196.356657 286.631343,195.78 285.92,195.78 C285.208657,195.78 284.632,196.356657 284.632,197.068 C284.632,197.779343 285.208657,198.356 285.92,198.356 Z M269.728,195.228 C270.439343,195.228 271.016,194.651343 271.016,193.94 C271.016,193.228657 270.439343,192.652 269.728,192.652 C269.016657,192.652 268.44,193.228657 268.44,193.94 C268.44,194.651343 269.016657,195.228 269.728,195.228 Z M264.3,198.356 C265.011343,198.356 265.588,197.779343 265.588,197.068 C265.588,196.356657 265.011343,195.78 264.3,195.78 C263.588657,195.78 263.012,196.356657 263.012,197.068 C263.012,197.779343 263.588657,198.356 264.3,198.356 Z" id="Oval-1-Copy-2" sketch:type="MSShapeGroup"></path>
        </g>
    </g>
</svg>